<svg width="512" height="512" viewBox="0 0 512 512" fill="none" xmlns="http://www.w3.org/2000/svg">
<rect width="512" height="512" fill="#68CA10"/>
<g clip-path="url(#clip0)">
<path fill-rule="evenodd" clip-rule="evenodd" d="M253.594 106.063L248.22 106.192C240.695 106.469 232.92 107.431 225.123 109.103C208.04 112.63 191.265 119.35 176.609 128.516C159.999 138.826 145.241 152.654 133.965 168.49C121.724 185.529 113.081 205.385 108.964 225.902C106.84 236.516 105.856 247.385 106.017 258.191C106.008 260.01 106.107 261.75 106.209 263.435C106.263 264.361 106.335 265.286 106.357 266.238C106.442 268.152 106.652 269.981 106.871 271.751C106.961 272.636 107.046 273.526 107.144 274.434C107.35 276.253 107.631 278.069 107.922 279.87C108.06 280.76 108.208 281.641 108.347 282.557C108.695 284.413 109.066 286.241 109.464 288.079L109.983 290.601C114.977 311.56 124.71 331.702 138.168 348.826C150.776 365.037 167.403 378.879 186.293 388.872C203.385 397.984 222.776 403.689 242.345 405.405C246.396 405.821 250.773 406.009 256.124 406.009H256.133L258.396 405.973C259.92 405.955 261.44 405.937 262.92 405.848L269.434 405.419C278.448 404.48 286.598 403.063 294.387 401.006C308.944 397.098 322.916 391.009 334.786 383.404C344.309 377.368 353.184 370.241 361.169 362.203C367.259 356.189 371.399 350.744 374.417 346.76L379.639 339.343L377.841 338.037L373.25 344.055L372.588 344.847C371.126 346.608 369.387 348.66 367.348 350.958L366.065 352.295C363.941 354.54 361.531 357.079 358.719 359.663C350.743 367.161 341.859 373.796 332.323 379.371C330.458 380.493 328.527 381.508 326.466 382.586C325.545 383.069 324.601 383.56 323.721 384.034C322.156 384.736 320.586 385.469 319.017 386.212L314.171 388.273C308.336 390.745 301.594 392.94 292.92 395.189C285.628 396.937 277.598 398.176 269.028 398.873L262.567 399.164C261.852 399.2 261.15 399.209 260.439 399.209L256.169 399.164C250.92 399.043 246.874 398.766 243.06 398.314C224.895 396.329 206.613 390.58 190.133 381.683C172.759 372.289 157.174 359.064 145.066 343.429C132.476 327.307 123.387 308.332 118.742 288.553C118.527 287.507 118.312 286.469 118.084 285.419C117.767 283.957 117.44 282.455 117.168 281.006C117.047 280.063 116.886 279.101 116.73 278.149C116.457 276.557 116.189 274.961 116.014 273.383C115.925 272.453 115.818 271.505 115.701 270.566C115.527 268.939 115.335 267.311 115.263 265.773C115.227 264.852 115.147 263.909 115.089 262.984C114.99 261.307 114.883 259.572 114.901 257.936C114.704 247.684 115.598 237.477 117.557 227.601C121.491 207.857 129.467 189.057 140.645 173.212C151.402 157.885 165.163 144.522 180.454 134.56C194.385 125.386 209.832 118.8 226.411 114.982C233.363 113.337 240.776 112.201 248.47 111.665L253.849 111.329C255.566 111.195 257.206 111.106 258.905 111.182C260.144 111.213 261.351 111.222 262.558 111.231C264.7 111.249 266.721 111.258 268.733 111.396C281.761 112.04 292.92 114.785 301.142 117.092L302.935 117.656C306.673 118.836 309.919 119.855 312.744 121.058L314.376 121.702C317.005 122.721 319.303 123.602 321.101 124.541L327.972 127.836L328.978 125.86C328.978 125.86 326.627 124.608 322.29 122.283C320.43 121.183 318.127 120.155 315.481 118.97L313.947 118.291C310.952 116.824 307.518 115.617 303.521 114.213L302.211 113.748C293.922 111.07 282.677 107.842 269.117 106.675C266.993 106.447 264.879 106.358 262.621 106.264C261.409 106.21 260.175 106.156 258.95 106.085C258.101 106.027 257.238 106 256.384 106C255.445 106 254.519 106.027 253.594 106.063Z" fill="white"/>
<path fill-rule="evenodd" clip-rule="evenodd" d="M236.167 143.815L235.156 144.079C233.833 144.432 232.483 144.759 231.115 145.094C230.596 145.241 230.051 145.38 229.492 145.505C228.37 145.782 227.198 146.055 226.156 146.484L224.355 147.128C221.896 148.04 219.477 148.93 217.022 149.829C210.928 152.462 205.429 155.355 200.216 158.645C190.823 164.735 182.297 172.215 175.604 180.298C170.194 186.763 165.526 193.823 161.73 201.285C158.779 206.94 157.085 211.733 155.873 215.238L153.888 221.623L155.972 222.325L157.939 217.103L158.136 216.607C158.824 215.024 159.624 213.115 160.612 210.982L161.413 209.395C162.383 207.45 163.487 205.255 164.824 202.97C168.817 195.973 173.641 189.392 179.149 183.401C180.249 182.203 181.443 181.031 182.645 179.842L184.183 178.309C184.849 177.736 185.493 177.146 186.137 176.556C187.344 175.452 188.601 174.307 190.013 173.256C193.514 170.292 197.779 167.301 203.449 163.832C208.063 161.086 213.566 158.422 219.302 156.146L228.531 153.097C229.474 152.712 230.426 152.529 231.432 152.301C231.973 152.203 232.519 152.091 233.055 151.957L237.75 150.893C250.854 148.362 264.96 148.402 278.341 151.031C292.68 153.835 306.432 159.674 318.142 167.9C330.405 176.413 340.872 187.706 348.432 200.551C356.1 213.419 361.027 228.007 362.645 242.735C364.237 257.574 362.811 272.458 358.532 285.781C354.387 298.818 347.717 311.189 339.231 321.566C331.532 331.013 321.946 339.249 311.449 345.379C311.006 345.647 310.554 345.928 310.107 346.21C309.374 346.684 308.623 347.162 307.836 347.556L298.693 352.004L296.784 352.747C291.481 354.96 286.452 356.431 282.678 357.481C273.387 359.936 264.96 360.517 258.705 360.732L255.115 360.754C253.429 360.754 251.466 360.732 249.651 360.58L248.364 360.495C246.28 360.379 244.501 360.271 242.998 360.025L237.423 359.265L237.057 361.447L242.551 362.556C244.022 362.9 245.69 363.115 247.621 363.356L249.343 363.58C251.815 363.987 254.663 364.089 257.69 364.233L258.687 364.273C259.501 364.277 260.319 364.286 261.173 364.286C266.462 364.286 274.541 364.058 283.729 362.078C285.334 361.774 286.957 361.344 288.642 360.902C289.443 360.696 290.265 360.486 291.083 360.28C292.778 359.896 294.428 359.319 296.024 358.765C296.891 358.461 297.767 358.165 298.666 357.884L299.095 357.745C299.592 357.571 300.101 357.401 300.669 357.218C301.197 357.003 301.644 356.793 302.077 356.601L310.501 352.867C311.426 352.438 312.329 351.92 313.223 351.396C313.644 351.159 314.051 350.914 314.498 350.668L318.96 348.124C320.14 347.462 321.356 346.76 322.465 345.897L324.933 344.136C326.681 342.911 328.438 341.654 330.276 340.291L337.747 333.705C339.37 332.109 340.925 330.405 342.504 328.693C343.259 327.884 343.992 327.061 344.788 326.234C354.32 315.191 361.787 302.069 366.316 288.312C371.301 273.481 373.036 257.408 371.337 241.809C369.602 225.522 364.483 210.097 356.131 195.964C347.873 182.069 336.463 169.876 323.109 160.702C310.729 152.037 295.751 145.912 279.839 143.002C273.392 141.821 266.788 141.231 260.145 141.231C252.124 141.231 244.058 142.094 236.167 143.815Z" fill="white"/>
</g>
<defs>
<clipPath id="clip0">
<rect x="106" y="106" width="300" height="300" fill="white"/>
</clipPath>
</defs>
</svg>
