<svg width="320" height="320" viewBox="0 0 320 320" fill="none" xmlns="http://www.w3.org/2000/svg">
<rect width="320" height="320" fill="white"/>
<rect width="320" height="320" fill="black"/>
<circle cx="160" cy="160" r="100" fill="black"/>
<circle cx="160" cy="162" r="96" fill="url(#paint0_linear)"/>
<ellipse cx="160" cy="166" rx="90" ry="94" fill="black"/>
<path d="M138.158 184.15H132.358V180C132.358 179.467 132.258 179.117 132.058 178.95C131.858 178.75 131.492 178.65 130.958 178.65H128.608C128.075 178.65 127.708 178.75 127.508 178.95C127.308 179.117 127.208 179.467 127.208 180V200.5C127.208 201.033 127.308 201.4 127.508 201.6C127.708 201.767 128.075 201.85 128.608 201.85H130.958C131.492 201.85 131.858 201.767 132.058 201.6C132.258 201.4 132.358 201.033 132.358 200.5V193.5H129.858V189.45H138.158V201.1C138.158 204.4 136.342 206.05 132.708 206.05H126.858C123.225 206.05 121.408 204.4 121.408 201.1V179.4C121.408 176.1 123.225 174.45 126.858 174.45H132.708C136.342 174.45 138.158 176.1 138.158 179.4V184.15Z" fill="#FF8B17"/>
<path d="M148.259 201.6H157.859V206H142.459V174.45H157.459V178.85H148.259V187.6H156.009V192.05H148.259V201.6Z" fill="#FF8B17"/>
<path d="M166.96 201.6H176.56V206H161.16V174.45H176.16V178.85H166.96V187.6H174.71V192.05H166.96V201.6Z" fill="#FF8B17"/>
<path d="M198.361 174.45L191.861 190.15L198.311 206H192.111L185.861 190.15L192.161 174.45H198.361ZM179.861 206V174.45H185.611V206H179.861Z" fill="#FF8B17"/>
<path d="M139.914 113.66H148.104V162.08C148.104 167.36 145.284 170 139.644 170H129.654C124.014 170 121.194 167.36 121.194 162.08V113.66H129.384V160.82C129.384 161.9 129.564 162.62 129.924 162.98C130.284 163.28 131.004 163.43 132.084 163.43H137.214C138.354 163.43 139.074 163.28 139.374 162.98C139.734 162.62 139.914 161.9 139.914 160.82V113.66Z" fill="white"/>
<path d="M173.436 160.82V147.05C173.436 145.97 173.256 145.28 172.896 144.98C172.596 144.62 171.906 144.44 170.826 144.44H164.166C158.706 144.44 155.976 141.77 155.976 136.43V121.58C155.976 116.3 158.766 113.66 164.346 113.66H173.166C178.746 113.66 181.536 116.3 181.536 121.58V129.86H173.346V122.84C173.346 121.76 173.166 121.07 172.806 120.77C172.446 120.41 171.726 120.23 170.646 120.23H166.866C165.786 120.23 165.066 120.41 164.706 120.77C164.346 121.07 164.166 121.76 164.166 122.84V135.35C164.166 136.43 164.346 137.15 164.706 137.51C165.066 137.81 165.786 137.96 166.866 137.96H173.436C178.956 137.96 181.716 140.6 181.716 145.88V162.08C181.716 167.36 178.896 170 173.256 170H164.526C158.946 170 156.156 167.36 156.156 162.08V153.8H164.346V160.82C164.346 161.9 164.526 162.62 164.886 162.98C165.246 163.28 165.966 163.43 167.046 163.43H170.826C171.906 163.43 172.596 163.28 172.896 162.98C173.256 162.62 173.436 161.9 173.436 160.82Z" fill="white"/>
<path d="M190.475 113.66H198.575V170H190.475V113.66Z" fill="white"/>
<defs>
<linearGradient id="paint0_linear" x1="160" y1="66" x2="160" y2="258" gradientUnits="userSpaceOnUse">
<stop stop-color="#FF8B17"/>
<stop offset="1" stop-color="#FF9934" stop-opacity="0"/>
</linearGradient>
</defs>
</svg>
