<?xml version="1.0" encoding="UTF-8" standalone="no"?><!DOCTYPE svg PUBLIC "-//W3C//DTD SVG 1.1//EN" "http://www.w3.org/Graphics/SVG/1.1/DTD/svg11.dtd"><svg width="100%" height="100%" viewBox="0 0 200 200" version="1.1" xmlns="http://www.w3.org/2000/svg" xmlns:xlink="http://www.w3.org/1999/xlink" xml:space="preserve" xmlns:serif="http://www.serif.com/" style="fill-rule:evenodd;clip-rule:evenodd;stroke-linejoin:round;stroke-miterlimit:2;"><g id="SWISS-APO" serif:id="SWISS APO"><rect id="BG" x="0" y="0" width="200" height="200" style="fill:#fff;"/><g><path d="M39.296,61.375l0.67,0c1.774,0 3.273,-0.755 3.273,-2.727c0,-1.712 -0.891,-2.703 -3.769,-2.703l-1.338,0l0,9.349l1.164,0l0,-3.919Zm0,-4.39l0.31,0c1.154,0 2.544,0.174 2.544,1.638c0,1.488 -1.291,1.712 -2.482,1.712l-0.372,0l0,-3.35Zm6.039,2.506l-1.115,0l0,5.803l1.115,0l0,-2.853c0,-0.942 0.149,-2.058 1.352,-2.058c0.26,0 0.484,0.062 0.682,0.236l0.508,-1.016c-0.273,-0.174 -0.595,-0.285 -0.918,-0.285c-0.743,0 -1.314,0.433 -1.586,1.115l-0.038,0l0,-0.942Zm5.743,-0.173c-1.737,0 -3.1,1.338 -3.1,3.087c0,1.749 1.363,3.087 3.1,3.087c1.736,0 3.099,-1.338 3.099,-3.087c0,-1.749 -1.363,-3.087 -3.099,-3.087Zm0,1.065c1.104,0 1.984,0.918 1.984,2.022c0,1.092 -0.88,2.022 -1.984,2.022c-1.104,0 -1.985,-0.93 -1.985,-2.022c0,-1.104 0.881,-2.022 1.985,-2.022Zm6.993,-5.852c-0.248,-0.099 -0.509,-0.148 -0.781,-0.148c-1.438,0 -1.871,1.015 -1.871,2.28l0,2.828l-0.509,0l0,1.041l0.509,0l0,4.762l1.114,0l0,-4.762l1.538,0l0,-1.041l-1.538,0l0,-2.493c0,-0.571 0,-1.576 0.794,-1.576c0.235,0 0.521,0.137 0.744,0.236l0,-1.127Zm5.63,8.047l0,-0.173c0,-1.724 -0.868,-3.087 -2.716,-3.087c-1.872,0 -2.826,1.338 -2.826,3.124c0,1.712 1.077,3.05 2.851,3.05c1.128,0 2.145,-0.582 2.691,-1.586l-0.943,-0.534c-0.421,0.695 -0.88,1.13 -1.736,1.13c-1.066,0 -1.736,-0.931 -1.748,-1.924l4.427,0Zm-4.366,-0.842c0.137,-0.832 0.782,-1.453 1.65,-1.453c0.893,0 1.463,0.584 1.6,1.453l-3.25,0Zm8.558,-1.403c-0.31,-0.631 -0.88,-1.015 -1.588,-1.015c-0.942,0 -1.71,0.743 -1.71,1.685c0,0.794 0.471,1.116 1.115,1.464l1.092,0.583c0.261,0.174 0.41,0.323 0.41,0.633c0,0.496 -0.41,0.819 -0.882,0.819c-0.533,0 -0.819,-0.31 -1.054,-0.745l-0.954,0.435c0.31,0.817 1.165,1.3 2.008,1.3c1.08,0 1.996,-0.817 1.996,-1.921c0,-0.918 -0.656,-1.339 -1.338,-1.65c-0.683,-0.31 -1.353,-0.533 -1.353,-1.042c0,-0.322 0.298,-0.571 0.608,-0.571c0.323,0 0.609,0.224 0.745,0.509l0.905,-0.484Zm4.761,0c-0.309,-0.631 -0.879,-1.015 -1.587,-1.015c-0.943,0 -1.71,0.743 -1.71,1.685c0,0.794 0.47,1.116 1.115,1.464l1.092,0.583c0.26,0.174 0.409,0.323 0.409,0.633c0,0.496 -0.409,0.819 -0.881,0.819c-0.534,0 -0.819,-0.31 -1.054,-0.745l-0.954,0.435c0.31,0.817 1.165,1.3 2.008,1.3c1.08,0 1.996,-0.817 1.996,-1.921c0,-0.918 -0.656,-1.339 -1.338,-1.65c-0.683,-0.31 -1.353,-0.533 -1.353,-1.042c0,-0.322 0.298,-0.571 0.608,-0.571c0.323,0 0.609,0.224 0.745,0.509l0.904,-0.484Zm2.89,-0.842l-1.115,0l0,5.803l1.115,0l0,-5.803Zm-0.558,-3.434c-0.421,0 -0.768,0.346 -0.768,0.78c0,0.421 0.347,0.755 0.768,0.755c0.421,0 0.768,-0.334 0.768,-0.755c0,-0.434 -0.347,-0.78 -0.768,-0.78Zm4.923,3.261c-1.737,0 -3.099,1.338 -3.099,3.087c0,1.749 1.362,3.087 3.099,3.087c1.737,0 3.1,-1.338 3.1,-3.087c0,-1.749 -1.363,-3.087 -3.1,-3.087Zm0,1.065c1.104,0 1.985,0.918 1.985,2.022c0,1.092 -0.881,2.022 -1.985,2.022c-1.104,0 -1.985,-0.93 -1.985,-2.022c0,-1.104 0.881,-2.022 1.985,-2.022Zm5.232,-0.892l-1.114,0l0,5.803l1.114,0l0,-2.667c0,-1.054 0,-2.319 1.44,-2.319c1.141,0 1.278,0.67 1.278,1.662l0,3.324l1.115,0l0,-3.46c0,-1.414 -0.422,-2.516 -2.058,-2.516c-0.707,0 -1.402,0.334 -1.75,0.953l-0.025,0l0,-0.78Zm7.876,5.011c-1.179,0 -1.836,-1.018 -1.836,-2.109c0,-1.079 0.682,-2.085 1.836,-2.085c1.204,0 1.885,0.956 1.885,2.085c0,1.141 -0.669,2.109 -1.885,2.109Zm2.938,-5.011l-1.114,0l0,0.967l-0.025,0c-0.459,-0.694 -1.154,-1.14 -2.01,-1.14c-1.687,0 -2.74,1.449 -2.74,3.038c0,1.662 1.003,3.136 2.777,3.136c0.831,0 1.526,-0.446 1.973,-1.102l0.025,0l0,0.904l1.114,0l0,-5.803Zm2.617,-4.96l-1.115,0l0,10.763l1.115,0l0,-10.763Zm9.536,1.215c-2.679,0 -4.897,2.194 -4.897,4.873c0,2.779 2.193,4.873 4.897,4.873c2.704,0 4.898,-2.094 4.898,-4.873c0,-2.679 -2.218,-4.873 -4.898,-4.873Zm0,8.656c-2.021,0 -3.733,-1.649 -3.733,-3.783c0,-2.059 1.538,-3.783 3.733,-3.783c2.196,0 3.734,1.724 3.734,3.783c0,2.134 -1.711,3.783 -3.734,3.783Zm7.093,-4.911l-1.115,0l0,5.803l1.115,0l0,-2.853c0,-0.942 0.149,-2.058 1.352,-2.058c0.26,0 0.483,0.062 0.682,0.236l0.508,-1.016c-0.273,-0.174 -0.595,-0.285 -0.918,-0.285c-0.744,0 -1.314,0.433 -1.587,1.115l-0.037,0l0,-0.942Zm5.656,5.011c-1.179,0 -1.836,-1.018 -1.836,-2.109c0,-1.079 0.682,-2.085 1.836,-2.085c1.203,0 1.885,0.956 1.885,2.085c0,1.141 -0.67,2.109 -1.885,2.109Zm2.938,-5.011l-1.115,0l0,0.991l-0.024,0c-0.46,-0.718 -1.154,-1.164 -2.023,-1.164c-1.674,0 -2.727,1.449 -2.727,3.038c0,1.662 0.991,3.136 2.777,3.136c0.819,0 1.526,-0.446 1.973,-1.102l0.024,0l0,1.102c0,1.192 -0.285,2.135 -1.662,2.135c-1.017,0 -1.737,-0.596 -1.737,-1.637l-1.114,0c0.024,1.637 1.188,2.627 2.801,2.627c2.257,0 2.827,-1.437 2.827,-3.433l0,-5.693Zm3.956,5.011c-1.178,0 -1.836,-1.018 -1.836,-2.109c0,-1.079 0.683,-2.085 1.836,-2.085c1.204,0 1.886,0.956 1.886,2.085c0,1.141 -0.67,2.109 -1.886,2.109Zm2.939,-5.011l-1.115,0l0,0.967l-0.025,0c-0.459,-0.694 -1.153,-1.14 -2.01,-1.14c-1.687,0 -2.739,1.449 -2.739,3.038c0,1.662 1.003,3.136 2.777,3.136c0.831,0 1.526,-0.446 1.972,-1.102l0.025,0l0,0.904l1.115,0l0,-5.803Zm2.567,0l-1.115,0l0,5.803l1.115,0l0,-2.667c0,-1.054 0,-2.319 1.439,-2.319c1.141,0 1.278,0.67 1.278,1.662l0,3.324l1.115,0l0,-3.46c0,-1.414 -0.422,-2.516 -2.058,-2.516c-0.707,0 -1.402,0.334 -1.749,0.953l-0.025,0l0,-0.78Zm6.733,0l-1.114,0l0,5.803l1.114,0l0,-5.803Zm-0.557,-3.434c-0.421,0 -0.768,0.346 -0.768,0.78c0,0.421 0.347,0.755 0.768,0.755c0.421,0 0.768,-0.334 0.768,-0.755c0,-0.434 -0.347,-0.78 -0.768,-0.78Zm3.77,8.197l3.93,-4.763l-5.43,0l0,1.041l3.261,0l-3.931,4.762l5.939,0l0,-1.04l-3.769,0Zm9.808,-1.676l0,-0.173c0,-1.724 -0.868,-3.087 -2.715,-3.087c-1.873,0 -2.826,1.338 -2.826,3.124c0,1.712 1.077,3.05 2.85,3.05c1.129,0 2.146,-0.582 2.691,-1.586l-0.942,-0.534c-0.422,0.695 -0.881,1.13 -1.736,1.13c-1.067,0 -1.736,-0.931 -1.749,-1.924l4.427,0Zm-4.365,-0.842c0.136,-0.832 0.781,-1.453 1.65,-1.453c0.892,0 1.463,0.584 1.599,1.453l-3.249,0Zm6.51,-2.245l-1.114,0l0,5.803l1.114,0l0,-2.853c0,-0.942 0.15,-2.058 1.352,-2.058c0.261,0 0.484,0.062 0.683,0.236l0.508,-1.016c-0.273,-0.174 -0.595,-0.285 -0.918,-0.285c-0.744,0 -1.314,0.433 -1.587,1.115l-0.038,0l0,-0.942Zm6.4,0.842c-0.31,-0.631 -0.88,-1.015 -1.587,-1.015c-0.943,0 -1.711,0.743 -1.711,1.685c0,0.794 0.471,1.116 1.115,1.464l1.092,0.583c0.261,0.174 0.41,0.323 0.41,0.633c0,0.496 -0.41,0.819 -0.881,0.819c-0.534,0 -0.819,-0.31 -1.054,-0.745l-0.955,0.435c0.311,0.817 1.165,1.3 2.009,1.3c1.079,0 1.995,-0.817 1.995,-1.921c0,-0.918 -0.656,-1.339 -1.338,-1.65c-0.682,-0.31 -1.353,-0.533 -1.353,-1.042c0,-0.322 0.298,-0.571 0.609,-0.571c0.322,0 0.608,0.224 0.744,0.509l0.905,-0.484Z" style="fill:#231f20;fill-rule:nonzero;"/><path d="M43.215,42.277c-0.508,-0.904 -1.363,-1.412 -2.406,-1.412c-1.414,0 -2.752,0.904 -2.752,2.417c0,1.303 0.966,1.91 2.033,2.369l0.645,0.273c0.807,0.335 1.613,0.769 1.613,1.774c0,0.98 -0.72,1.823 -1.725,1.823c-1.005,0 -1.823,-0.744 -1.81,-1.774l-1.177,0.248c0.198,1.501 1.375,2.616 2.888,2.616c1.675,0 2.988,-1.214 2.988,-2.913c0,-1.563 -0.991,-2.295 -2.318,-2.816l-0.67,-0.26c-0.583,-0.224 -1.302,-0.608 -1.302,-1.34c0,-0.819 0.818,-1.327 1.563,-1.327c0.707,0 1.154,0.298 1.501,0.881l0.929,-0.559Zm1.749,2.334l-1.264,0l2.951,6l1.711,-3.881l1.698,3.881l2.951,-6l-1.264,0l-1.687,3.694l-1.698,-4.017l-1.711,4.017l-1.687,-3.694Zm9.969,0l-1.114,0l0,5.801l1.114,0l0,-5.801Zm-0.557,-3.436c-0.421,0 -0.768,0.347 -0.768,0.781c0,0.421 0.347,0.756 0.768,0.756c0.421,0 0.768,-0.335 0.768,-0.756c0,-0.434 -0.347,-0.781 -0.768,-0.781Zm5.58,4.277c-0.309,-0.631 -0.879,-1.015 -1.587,-1.015c-0.943,0 -1.711,0.742 -1.711,1.685c0,0.794 0.471,1.117 1.115,1.464l1.093,0.583c0.26,0.174 0.409,0.322 0.409,0.632c0,0.497 -0.409,0.819 -0.881,0.819c-0.534,0 -0.819,-0.31 -1.055,-0.744l-0.953,0.434c0.31,0.818 1.164,1.301 2.008,1.301c1.079,0 1.996,-0.817 1.996,-1.921c0,-0.918 -0.657,-1.34 -1.338,-1.65c-0.683,-0.31 -1.354,-0.533 -1.354,-1.042c0,-0.323 0.299,-0.571 0.609,-0.571c0.322,0 0.608,0.224 0.745,0.509l0.904,-0.484Zm4.762,0c-0.31,-0.631 -0.88,-1.015 -1.587,-1.015c-0.943,0 -1.71,0.742 -1.71,1.685c0,0.794 0.47,1.117 1.114,1.464l1.092,0.583c0.261,0.174 0.41,0.322 0.41,0.632c0,0.497 -0.41,0.819 -0.881,0.819c-0.534,0 -0.819,-0.31 -1.055,-0.744l-0.954,0.434c0.311,0.818 1.165,1.301 2.009,1.301c1.079,0 1.996,-0.817 1.996,-1.921c0,-0.918 -0.657,-1.34 -1.339,-1.65c-0.682,-0.31 -1.353,-0.533 -1.353,-1.042c0,-0.323 0.298,-0.571 0.608,-0.571c0.324,0 0.609,0.224 0.745,0.509l0.905,-0.484Zm10.851,2.617l1.065,2.343l1.253,0l-4.464,-9.745l-4.463,9.745l1.252,0l1.067,-2.343l4.29,0Zm-0.484,-1.065l-3.323,0l1.661,-3.783l1.662,3.783Zm6.696,-1.552c-0.309,-0.631 -0.879,-1.015 -1.587,-1.015c-0.943,0 -1.711,0.742 -1.711,1.685c0,0.794 0.471,1.117 1.115,1.464l1.092,0.583c0.261,0.174 0.41,0.322 0.41,0.632c0,0.497 -0.41,0.819 -0.881,0.819c-0.534,0 -0.819,-0.31 -1.054,-0.744l-0.954,0.434c0.309,0.818 1.164,1.301 2.008,1.301c1.079,0 1.996,-0.817 1.996,-1.921c0,-0.918 -0.657,-1.34 -1.338,-1.65c-0.683,-0.31 -1.353,-0.533 -1.353,-1.042c0,-0.323 0.297,-0.571 0.608,-0.571c0.323,0 0.608,0.224 0.745,0.509l0.904,-0.484Zm4.762,0c-0.309,-0.631 -0.88,-1.015 -1.587,-1.015c-0.943,0 -1.711,0.742 -1.711,1.685c0,0.794 0.471,1.117 1.115,1.464l1.093,0.583c0.26,0.174 0.409,0.322 0.409,0.632c0,0.497 -0.409,0.819 -0.881,0.819c-0.534,0 -0.819,-0.31 -1.055,-0.744l-0.953,0.434c0.309,0.818 1.164,1.301 2.008,1.301c1.079,0 1.996,-0.817 1.996,-1.921c0,-0.918 -0.657,-1.34 -1.338,-1.65c-0.683,-0.31 -1.354,-0.533 -1.354,-1.042c0,-0.323 0.299,-0.571 0.609,-0.571c0.322,0 0.608,0.224 0.745,0.509l0.904,-0.484Zm4.105,-1.015c-1.737,0 -3.1,1.338 -3.1,3.087c0,1.749 1.363,3.087 3.1,3.087c1.737,0 3.099,-1.338 3.099,-3.087c0,-1.749 -1.362,-3.087 -3.099,-3.087Zm0,1.065c1.104,0 1.985,0.918 1.985,2.022c0,1.091 -0.881,2.022 -1.985,2.022c-1.104,0 -1.985,-0.931 -1.985,-2.022c0,-1.104 0.881,-2.022 1.985,-2.022Zm8.382,-0.681c-0.446,-0.26 -1.017,-0.384 -1.538,-0.384c-1.786,0 -3.173,1.325 -3.173,3.124c0,1.737 1.4,3.05 3.111,3.05c0.583,0 1.092,-0.112 1.6,-0.384l0,-1.426c-0.421,0.472 -0.942,0.77 -1.587,0.77c-1.178,0 -2.009,-0.869 -2.009,-2.06c0,-1.066 0.843,-2.034 1.934,-2.034c0.67,0 1.216,0.273 1.662,0.782l0,-1.438Zm2.567,-0.21l-1.114,0l0,5.801l1.114,0l0,-5.801Zm-0.557,-3.436c-0.421,0 -0.769,0.347 -0.769,0.781c0,0.421 0.348,0.756 0.769,0.756c0.421,0 0.768,-0.335 0.768,-0.756c0,-0.434 -0.347,-0.781 -0.768,-0.781Zm4.849,8.445c-1.179,0 -1.837,-1.017 -1.837,-2.109c0,-1.079 0.683,-2.084 1.837,-2.084c1.203,0 1.885,0.956 1.885,2.084c0,1.142 -0.67,2.109 -1.885,2.109Zm2.938,-5.009l-1.115,0l0,0.965l-0.024,0c-0.46,-0.694 -1.154,-1.139 -2.01,-1.139c-1.687,0 -2.74,1.449 -2.74,3.037c0,1.663 1.003,3.137 2.777,3.137c0.831,0 1.526,-0.446 1.973,-1.102l0.024,0l0,0.903l1.115,0l0,-5.801Zm2.728,1.04l1.091,0l0,-1.04l-1.091,0l0,-2.22l-1.115,0l0,2.22l-0.607,0l0,1.04l0.607,0l0,4.761l1.115,0l0,-4.761Zm3.063,-1.04l-1.115,0l0,5.801l1.115,0l0,-5.801Zm-0.557,-3.436c-0.422,0 -0.769,0.347 -0.769,0.781c0,0.421 0.347,0.756 0.769,0.756c0.421,0 0.768,-0.335 0.768,-0.756c0,-0.434 -0.347,-0.781 -0.768,-0.781Zm4.923,3.262c-1.737,0 -3.1,1.338 -3.1,3.087c0,1.749 1.363,3.087 3.1,3.087c1.736,0 3.099,-1.338 3.099,-3.087c0,-1.749 -1.363,-3.087 -3.099,-3.087Zm0,1.065c1.104,0 1.985,0.918 1.985,2.022c0,1.091 -0.881,2.022 -1.985,2.022c-1.105,0 -1.985,-0.931 -1.985,-2.022c0,-1.104 0.88,-2.022 1.985,-2.022Zm5.232,-0.891l-1.114,0l0,5.801l1.114,0l0,-2.666c0,-1.054 0,-2.319 1.439,-2.319c1.142,0 1.278,0.67 1.278,1.662l0,3.323l1.115,0l0,-3.46c0,-1.413 -0.421,-2.515 -2.058,-2.515c-0.707,0 -1.402,0.334 -1.749,0.953l-0.025,0l0,-0.779Zm11.533,-0.174c-1.736,0 -3.099,1.338 -3.099,3.087c0,1.749 1.363,3.087 3.099,3.087c1.737,0 3.1,-1.338 3.1,-3.087c0,-1.749 -1.363,-3.087 -3.1,-3.087Zm0,1.065c1.105,0 1.986,0.918 1.986,2.022c0,1.091 -0.881,2.022 -1.986,2.022c-1.104,0 -1.984,-0.931 -1.984,-2.022c0,-1.104 0.88,-2.022 1.984,-2.022Zm6.994,-5.852c-0.248,-0.099 -0.508,-0.149 -0.781,-0.149c-1.438,0 -1.872,1.015 -1.872,2.281l0,2.829l-0.508,0l0,1.04l0.508,0l0,4.761l1.115,0l0,-4.761l1.538,0l0,-1.04l-1.538,0l0,-2.494c0,-0.571 0,-1.576 0.794,-1.576c0.236,0 0.521,0.137 0.744,0.236l0,-1.127Z" style="fill:#231f20;fill-rule:nonzero;"/><rect x="37.5" y="86.192" width="61.956" height="61.957" style="fill:#fdba12;"/><path d="M88.194,100.13l13.938,60.369l60.368,-13.938l-13.937,-60.369l-60.369,13.938Z" style="fill:#ef4023;fill-rule:nonzero;"/><path d="M50.115,143.881l-1.708,-1.571l0.363,-0.341c0.643,-0.609 0.901,-1.128 0.901,-1.661c0.003,-0.721 -0.562,-1.317 -1.217,-1.336c-0.528,-0.012 -0.984,0.317 -1.441,1.286c-0.115,0.245 -0.27,0.553 -0.543,1.068c-0.656,1.245 -1.537,1.866 -2.574,1.959c-0.236,0.022 -0.475,0.016 -0.711,-0.016c-1.661,-0.214 -2.841,-1.583 -2.832,-3.517c0.006,-1.149 0.41,-2.106 1.183,-2.857l0.255,-0.245l1.605,1.412l0.059,0.081l-0.096,0.065c-0.565,0.401 -0.891,1.006 -0.91,1.497c-0.022,0.63 0.478,1.152 1.037,1.145c0.481,-0.002 0.91,-0.353 1.372,-1.394c0.15,-0.335 0.32,-0.698 0.51,-1.08c0.611,-1.229 1.611,-1.847 2.906,-1.826c1.344,0.025 2.406,0.718 3.005,1.991c0.227,0.478 0.351,1.037 0.363,1.704c0.022,1.323 -0.416,2.456 -1.301,3.397l-0.226,0.239Zm-9.498,-10.585l0,-2.403l5.039,-1.267c2.071,-0.521 2.283,-0.571 3.344,-0.692l-1.27,-0.218c-0.972,-0.167 -1.586,-0.288 -2.077,-0.397l-5.023,-1.105l0,-2.515l7.097,-1.59c0.208,-0.05 0.481,-0.096 1.218,-0.198l-1.208,-0.227c-1.112,-0.214 -1.646,-0.333 -2.081,-0.444l-5.026,-1.289l0,-2.378l10.727,3.21l0,2.447l-4.251,0.95l-1.881,0.438c-0.454,0.102 -1.022,0.208 -2.09,0.366c0.345,0.053 0.692,0.112 1.037,0.171c1.006,0.171 2.009,0.372 2.937,0.584l4.248,0.966l0,2.492l-10.74,3.099Zm10.774,-18.189l-10.74,0l0,-2.347l10.74,0l0,2.347Zm-1.276,-6.039l-1.708,-1.571l0.363,-0.341c0.643,-0.609 0.901,-1.128 0.901,-1.661c0.003,-0.721 -0.562,-1.317 -1.217,-1.335c-0.528,-0.013 -0.984,0.316 -1.441,1.285c-0.115,0.245 -0.27,0.553 -0.543,1.068c-0.656,1.245 -1.537,1.866 -2.574,1.959c-0.236,0.022 -0.475,0.016 -0.711,-0.016c-1.661,-0.214 -2.841,-1.583 -2.832,-3.517c0.006,-1.149 0.41,-2.105 1.183,-2.857l0.255,-0.245l1.605,1.413l0.059,0.081l-0.096,0.065c-0.565,0.4 -0.891,1.006 -0.91,1.496c-0.022,0.63 0.478,1.152 1.037,1.146c0.481,-0.003 0.91,-0.354 1.372,-1.394c0.15,-0.336 0.32,-0.699 0.51,-1.081c0.611,-1.229 1.611,-1.847 2.906,-1.826c1.344,0.025 2.406,0.718 3.005,1.991c0.227,0.478 0.351,1.037 0.363,1.705c0.022,1.322 -0.416,2.455 -1.301,3.396l-0.226,0.239Zm0,-10.653l-1.708,-1.571l0.363,-0.341c0.643,-0.609 0.901,-1.128 0.901,-1.661c0.003,-0.721 -0.562,-1.317 -1.217,-1.336c-0.528,-0.012 -0.984,0.317 -1.441,1.286c-0.115,0.245 -0.27,0.553 -0.543,1.068c-0.656,1.245 -1.537,1.866 -2.574,1.959c-0.236,0.022 -0.475,0.016 -0.711,-0.016c-1.661,-0.214 -2.841,-1.583 -2.832,-3.517c0.006,-1.149 0.41,-2.106 1.183,-2.857l0.255,-0.245l1.605,1.413l0.059,0.08l-0.096,0.066c-0.565,0.4 -0.891,1.006 -0.91,1.496c-0.022,0.63 0.478,1.152 1.037,1.146c0.481,-0.003 0.91,-0.354 1.372,-1.394c0.15,-0.336 0.32,-0.699 0.51,-1.081c0.611,-1.229 1.611,-1.847 2.906,-1.826c1.344,0.025 2.406,0.718 3.005,1.991c0.227,0.478 0.351,1.037 0.363,1.705c0.022,1.322 -0.416,2.455 -1.301,3.396l-0.226,0.239Z" style="fill:#fff;fill-rule:nonzero;"/><path d="M91.582,148.387l-15.508,-37.515l-8.683,0l-15.03,37.515l8.77,0l2.826,-7.574l15.79,0l2.913,7.574l8.922,0Zm-14.508,-14.551l-10.629,0c0.468,-1.098 0.913,-2.195 1.337,-3.304c2.032,-5.292 3.173,-9.172 3.989,-13.161c0.956,4.663 2.086,8.379 4.444,14.357c0.283,0.706 0.565,1.401 0.859,2.108Z" style="fill:#fff;fill-rule:nonzero;"/><path d="M162.043,129.573c0.086,-11.364 -8.424,-19.907 -20.274,-19.659c-11.72,0.237 -19.939,8.951 -19.627,20.413c0.302,10.977 8.025,18.54 19.703,18.647c12.28,0.119 20.101,-7.594 20.198,-19.401Zm-8.09,0.108c-0.043,7.207 -5.096,12.011 -11.796,11.86c-6.657,-0.161 -11.278,-4.449 -11.936,-10.675c-0.064,-0.603 -0.086,-1.207 -0.054,-1.81c0.259,-5.827 4.568,-10.546 10.148,-11.322c7.627,-1.077 13.681,4.288 13.638,11.947Z" style="fill:#fff;fill-rule:nonzero;"/><path d="M119.295,122.142c-0.044,-1.999 -0.478,-3.727 -1.229,-5.184c-1.945,-3.814 -4.727,-5.477 -10.389,-5.944c-0.684,-0.065 -1.358,-0.098 -2.043,-0.109l-1.424,-0.022l-10.487,-0.011l0,37.548l8.216,0l0,-14.269l3.771,0.033c2.37,0.021 3.652,-0.109 4.88,-0.414c5.607,-1.347 8.857,-5.379 8.705,-11.628Zm-7.977,0.185c0.011,0.435 -0.055,0.88 -0.163,1.304c-0.576,2.185 -2.304,3.543 -4.554,3.673l-0.684,0.022l-4.021,0.011l0,-9.77l2.89,0l1.924,0.033c2.076,0.097 3.728,1.326 4.379,3.336c0.142,0.445 0.218,0.913 0.229,1.391Z" style="fill:#fff;fill-rule:nonzero;"/></g></g></svg>