<?xml version="1.0" standalone="no"?>
<!-- Generator: Gravit.io --><svg xmlns="http://www.w3.org/2000/svg" xmlns:xlink="http://www.w3.org/1999/xlink" style="isolation:isolate" viewBox="0 0 28 24" width="28" height="24"><g id="Group"><g id="Group"><path d=" M 0 6 L 0 18 L 8 18 L 14 24 L 14 0 L 8 6 L 0 6 Z " fill="rgb(1,0,2)"/><path d=" M 23.312 0.687 L 21.867 2.134 C 24.382 4.665 25.937 8.151 25.937 12.001 C 25.937 15.852 24.38 19.337 21.867 21.868 L 23.312 23.314 C 26.209 20.418 28 16.418 28 12 C 28 7.582 26.209 3.582 23.312 0.687 Z " fill="rgb(1,0,2)"/><path d=" M 20.516 3.547 L 19.102 4.962 C 20.893 6.77 22 9.255 22 12 C 22 14.745 20.893 17.23 19.102 19.038 L 20.516 20.452 C 22.668 18.283 24 15.298 24 12 C 24 8.702 22.668 5.717 20.516 3.547 Z " fill="rgb(1,0,2)"/><path d=" M 17.688 6.376 L 16.274 7.791 C 17.34 8.873 18 10.359 18 12 C 18 13.641 17.34 15.126 16.271 16.21 L 17.685 17.624 C 19.116 16.18 20 14.193 20 12 C 20 9.807 19.116 7.82 17.688 6.376 Z " fill="rgb(1,0,2)"/></g></g></svg>
