<?xml version="1.0" standalone="no"?><!-- Generator: Gravit.io --><svg xmlns="http://www.w3.org/2000/svg" xmlns:xlink="http://www.w3.org/1999/xlink" style="isolation:isolate" viewBox="0 0 623 623" width="623" height="623"><defs><clipPath id="_clipPath_XBjpYo14u9cN57NeLycmnevGJwzaqJOq"><rect width="623" height="623"/></clipPath></defs><g clip-path="url(#_clipPath_XBjpYo14u9cN57NeLycmnevGJwzaqJOq)"><circle vector-effect="non-scaling-stroke" cx="311.5" cy="311.5" r="300" fill="none" stroke-width="23" stroke="rgb(0,0,0)" stroke-linejoin="miter" stroke-linecap="square" stroke-miterlimit="3"/><g><path d=" M 477.972 255.127 C 462.975 237.129 436.009 237.841 415.886 245.652 L 289.485 293.453 C 252.628 273.427 216.282 279.3 216.251 269.495 C 216.23 261.833 223.27 263.49 222.159 243.544 C 221.092 224.39 201.049 210.275 182.152 211.584 C 163.241 211.529 143.68 226.078 143.572 246.062 C 142.221 266.196 159.205 284.839 179.234 286.1 C 202.699 289.521 244.199 275.191 263.787 310.054 C 249.346 336.881 223.59 337.03 200.295 335.759 C 180.957 334.703 157.75 340.312 148.584 359.345 C 139.724 377.586 148.539 403.485 169.02 409 C 189.692 416.516 218.022 406.857 222.864 383.097 C 226.594 364.784 213.608 356.222 218.564 349.564 C 222.304 344.539 246.151 347.373 288.565 328.173 L 425.732 376.068 C 443.06 380.85 464.215 380.628 479.503 363.558 L 337.279 310.276 L 477.972 255.127 L 477.972 255.127 Z  M 195.794 226.675 C 215.772 237.754 214.233 267.97 193.523 273.882 C 174.796 280.463 150.789 262.313 156.708 241.981 C 160.156 225.3 182.113 219.09 195.794 226.675 Z  M 197.024 350.207 C 217.862 357.83 214.431 393.058 193.28 397.855 C 179.255 402.769 159.167 395.816 157.697 379.284 C 154.902 359.182 178.477 340.944 197.024 350.207 Z " fill="rgb(0,0,0)"/></g></g></svg>