<?xml version="1.0" standalone="no"?><!-- Generator: Gravit.io --><svg xmlns="http://www.w3.org/2000/svg" xmlns:xlink="http://www.w3.org/1999/xlink" style="isolation:isolate" viewBox="0 0 623 623" width="623" height="623"><defs><clipPath id="_clipPath_ftvf5Mnu5Si2nEXroSMsn5GlMt7zq9aT"><rect width="623" height="623"/></clipPath></defs><g clip-path="url(#_clipPath_ftvf5Mnu5Si2nEXroSMsn5GlMt7zq9aT)"><circle vector-effect="non-scaling-stroke" cx="311.5" cy="311.5" r="300" fill="none" stroke-width="23" stroke="rgb(0,0,0)" stroke-linejoin="miter" stroke-linecap="square" stroke-miterlimit="3"/><path d=" M 262.843 340.67 C 240.903 342.081 220.991 350.437 209.693 380.208 C 208.408 383.604 205.318 385.666 201.714 385.666 C 195.639 385.666 176.854 370.534 171.5 366.881 C 171.505 411.915 192.248 451.497 241.504 451.497 C 282.989 451.497 311.503 427.561 311.503 385.77 C 311.503 384.069 311.147 382.445 310.972 380.777 L 262.843 340.67 L 262.843 340.67 Z  M 421.909 171.503 C 413.619 171.503 405.848 175.172 399.92 180.499 C 288.135 280.356 276.503 282.702 276.503 312.096 C 276.503 319.588 278.281 326.73 281.278 333.26 L 316.178 362.342 C 320.121 363.326 324.185 363.999 328.423 363.999 C 362.388 363.999 382.076 339.133 443.899 223.75 C 447.934 215.903 451.5 207.426 451.5 198.6 C 451.5 182.79 437.282 171.503 421.909 171.503 Z " fill="rgb(0,0,0)"/></g></svg>