<?xml version="1.0" standalone="no"?><!-- Generator: Gravit.io --><svg xmlns="http://www.w3.org/2000/svg" xmlns:xlink="http://www.w3.org/1999/xlink" style="isolation:isolate" viewBox="0 0 623 623" width="623" height="623"><defs><clipPath id="_clipPath_fH9C9Nyxpjs6aoaWQeJSd1wAeUI1gyYM"><rect width="623" height="623"/></clipPath></defs><g clip-path="url(#_clipPath_fH9C9Nyxpjs6aoaWQeJSd1wAeUI1gyYM)"><circle vector-effect="non-scaling-stroke" cx="311.5" cy="311.5" r="300" fill="none" stroke-width="23" stroke="rgb(0,0,0)" stroke-linejoin="miter" stroke-linecap="square" stroke-miterlimit="3"/><g><g><path d=" M 161.5 247.214 L 161.5 375.786 L 247.214 375.786 L 311.5 440.071 L 311.5 182.929 L 247.214 247.214 L 161.5 247.214 Z " fill="rgb(1,0,2)"/><path d=" M 411.271 190.289 L 395.789 205.793 C 422.736 232.911 439.396 270.261 439.396 311.511 C 439.396 352.771 422.714 390.111 395.789 417.229 L 411.271 432.721 C 442.311 401.693 461.5 358.836 461.5 311.5 C 461.5 264.164 442.311 221.307 411.271 190.289 Z " fill="rgb(1,0,2)"/><path d=" M 381.314 220.932 L 366.164 236.093 C 385.354 255.464 397.214 282.089 397.214 311.5 C 397.214 340.911 385.354 367.536 366.164 386.907 L 381.314 402.057 C 404.371 378.818 418.643 346.836 418.643 311.5 C 418.643 276.164 404.371 244.182 381.314 220.932 Z " fill="rgb(1,0,2)"/><path d=" M 351.014 251.243 L 335.864 266.404 C 347.286 277.996 354.357 293.918 354.357 311.5 C 354.357 329.082 347.286 344.993 335.832 356.607 L 350.982 371.757 C 366.314 356.286 375.786 334.996 375.786 311.5 C 375.786 288.004 366.314 266.714 351.014 251.243 Z " fill="rgb(1,0,2)"/></g></g></g></svg>