<?xml version="1.0" standalone="no"?>
<!DOCTYPE svg PUBLIC "-//W3C//DTD SVG 20010904//EN"
 "http://www.w3.org/TR/2001/REC-SVG-20010904/DTD/svg10.dtd">
<svg version="1.0" xmlns="http://www.w3.org/2000/svg"
 width="700.000000pt" height="700.000000pt" viewBox="0 0 700.000000 700.000000"
 preserveAspectRatio="xMidYMid meet">
<metadata>
Created by potrace 1.11, written by Peter Selinger 2001-2013
</metadata>
<g transform="translate(0.000000,700.000000) scale(0.100000,-0.100000)"
fill="#000000" stroke="none">
<path d="M3405 6988 c4 -11 -1 -14 -17 -13 -13 1 -31 -3 -40 -9 -15 -9 -15
-11 0 -22 14 -10 11 -11 -16 -9 -26 2 -30 0 -22 -10 8 -9 8 -15 0 -20 -5 -3
-10 -3 -10 1 0 3 -7 1 -15 -6 -9 -7 -14 -19 -11 -26 3 -7 -3 -18 -12 -26 -16
-12 -16 -11 -2 6 9 12 10 17 3 12 -7 -4 -18 -17 -24 -28 -10 -18 -9 -20 7 -14
18 6 18 6 1 -8 -20 -15 -21 -24 -5 -43 7 -9 4 -11 -12 -8 -18 3 -20 2 -10 -10
7 -8 17 -12 23 -8 6 4 7 1 3 -6 -5 -7 -14 -10 -22 -7 -12 5 -12 1 1 -24 18
-35 19 -43 3 -34 -7 4 -4 -3 7 -16 16 -18 17 -24 6 -28 -10 -3 -7 -9 10 -19
13 -8 16 -12 7 -9 -10 3 -20 0 -24 -6 -4 -6 -3 -8 4 -4 6 3 21 -4 34 -16 13
-13 17 -18 8 -13 -9 6 -2 -3 14 -19 17 -16 25 -25 17 -21 -10 6 -12 4 -7 -4 5
-7 15 -10 23 -6 12 4 13 2 5 -8 -8 -10 -6 -13 8 -13 10 0 16 5 13 10 -4 5 -1
6 6 1 7 -4 11 -16 8 -26 -3 -10 -2 -18 2 -17 18 2 22 -4 11 -17 -10 -12 -10
-15 0 -15 10 0 10 -3 0 -15 -7 -8 -8 -15 -3 -15 5 0 9 -9 9 -19 0 -15 -3 -17
-13 -9 -10 8 -12 7 -7 -6 3 -9 9 -16 13 -16 4 0 8 -7 8 -15 0 -8 -5 -15 -11
-15 -6 0 -5 -4 3 -9 9 -6 10 -11 2 -15 -18 -11 -13 -29 6 -22 15 6 15 5 -1
-13 -19 -21 -13 -47 7 -34 7 4 7 0 -1 -10 -17 -20 -23 -67 -9 -67 7 0 7 -4 -1
-12 -15 -15 -15 -28 -1 -28 5 0 8 4 5 8 -3 5 2 9 10 9 11 0 10 -5 -6 -22 -11
-12 -20 -25 -20 -31 0 -5 5 -2 11 6 8 12 9 12 7 -5 -1 -11 1 -26 6 -34 6 -9 5
-12 -1 -8 -6 4 -14 0 -17 -9 -5 -12 -2 -15 11 -10 15 5 15 4 -1 -9 -11 -8 -14
-15 -8 -15 7 0 12 -7 12 -16 0 -8 -4 -12 -10 -9 -5 3 -10 2 -10 -4 0 -5 5 -11
12 -13 7 -3 8 -9 3 -19 -13 -20 -15 -40 -4 -33 14 8 11 -30 -3 -45 -11 -11
-10 -12 1 -6 10 6 13 4 9 -6 -3 -8 -9 -23 -13 -34 -7 -19 -7 -19 7 -1 12 15
17 16 23 6 5 -8 4 -11 -2 -7 -6 4 -13 -6 -15 -24 -3 -16 -1 -32 3 -34 4 -3 5
-15 1 -27 -3 -14 -1 -19 6 -14 8 5 10 2 6 -8 -3 -9 -10 -16 -16 -16 -5 0 -7 4
-3 9 3 5 1 12 -4 15 -5 4 -8 -2 -6 -11 2 -10 4 -22 4 -26 1 -5 6 -5 13 -1 6 4
8 3 4 -4 -3 -6 -2 -13 4 -17 13 -8 3 -25 -13 -25 -8 0 -8 3 2 9 8 5 9 11 3 15
-16 10 -21 -18 -6 -39 11 -15 11 -20 1 -27 -8 -5 -8 -8 0 -8 6 0 9 -9 6 -20
-3 -11 0 -20 6 -20 6 0 11 -5 11 -11 0 -5 -4 -7 -10 -4 -13 8 -13 -11 1 -38
l12 -22 -23 20 -24 20 16 -24 c9 -13 14 -30 11 -39 -4 -9 -2 -13 3 -9 6 3 10
-5 10 -18 0 -13 -4 -21 -8 -19 -5 3 -6 10 -3 15 4 5 2 9 -4 9 -6 0 -7 -15 -4
-37 5 -29 3 -35 -8 -29 -8 4 -3 -2 10 -13 18 -16 20 -21 7 -21 -9 0 -16 -5
-16 -11 0 -5 5 -7 10 -4 6 3 10 2 10 -4 0 -5 -7 -14 -16 -19 -15 -8 -15 -10 0
-15 10 -4 15 -3 11 3 -3 6 -1 10 4 10 18 0 12 -18 -11 -35 -21 -16 -21 -16 -2
-11 16 5 20 2 20 -19 0 -16 -6 -25 -15 -26 -10 0 -6 -4 8 -10 19 -8 21 -12 11
-24 -7 -8 -9 -15 -4 -15 5 0 2 -5 -6 -10 -13 -9 -13 -10 0 -10 13 0 13 -1 0
-10 -9 -6 -11 -10 -3 -10 7 0 10 -7 6 -17 -5 -12 -3 -14 7 -8 9 6 11 4 6 -4
-5 -7 -14 -10 -22 -7 -8 3 -11 0 -7 -9 3 -8 10 -12 16 -8 5 3 7 1 3 -5 -3 -6
-2 -13 4 -17 7 -4 7 -12 0 -26 -6 -10 -8 -19 -5 -19 3 0 1 -8 -4 -18 -7 -13
-6 -23 2 -31 9 -9 8 -14 -3 -21 -8 -5 -10 -10 -4 -10 7 0 14 -7 17 -14 4 -9 1
-13 -7 -10 -8 3 -12 -5 -12 -25 0 -17 4 -27 10 -24 5 4 7 -1 3 -10 -3 -9 -2
-19 4 -22 5 -4 6 -12 2 -18 -10 -17 -11 -47 -1 -41 4 3 8 0 8 -5 0 -6 -4 -11
-9 -11 -5 0 -5 -16 -1 -37 5 -22 5 -42 0 -49 -6 -6 -7 -14 -3 -18 13 -13 9
-97 -4 -92 -7 3 -10 -1 -6 -9 3 -8 8 -13 12 -10 4 2 8 -3 8 -11 0 -8 -6 -13
-13 -10 -8 3 -11 0 -7 -9 3 -8 8 -13 12 -10 4 2 8 -2 8 -10 0 -8 -4 -15 -9
-15 -4 0 -8 -5 -8 -11 0 -5 4 -8 8 -5 5 3 9 -1 9 -9 0 -8 -5 -15 -11 -15 -6 0
-4 -5 4 -10 8 -5 11 -10 5 -10 -5 0 -10 -13 -10 -30 0 -16 3 -30 8 -30 4 0 7
-5 7 -11 0 -5 -5 -7 -11 -3 -8 5 -8 1 0 -14 6 -11 11 -23 11 -27 0 -3 -5 -3
-11 1 -8 4 -8 1 -1 -13 6 -11 7 -25 2 -33 -5 -9 -5 -19 2 -27 7 -9 7 -13 -1
-13 -7 0 -10 -4 -6 -9 12 -20 13 -91 2 -91 -8 0 -8 -3 -2 -8 14 -10 14 -123 1
-115 -6 3 -6 0 1 -7 9 -9 9 -19 2 -33 -8 -14 -8 -18 0 -13 15 10 14 -7 -1 -23
-10 -11 -10 -13 0 -7 7 5 12 1 12 -9 0 -10 -5 -13 -12 -9 -7 5 -8 3 -3 -6 4
-7 8 -26 7 -41 0 -16 3 -31 8 -34 5 -3 7 -12 4 -20 -4 -8 -11 -12 -16 -9 -6 4
-4 -4 3 -17 7 -13 12 -27 12 -30 -1 -4 -4 -18 -7 -33 -2 -14 -7 -30 -11 -36
-4 -6 1 -7 12 -3 16 6 16 5 4 -10 -9 -12 -10 -17 -2 -17 7 0 9 -5 6 -10 -4 -6
-11 -7 -17 -4 -5 4 -2 -5 7 -20 10 -14 13 -26 7 -26 -5 0 -12 -9 -15 -21 -4
-16 -3 -18 8 -9 11 9 14 7 12 -9 0 -11 -5 -17 -11 -14 -5 4 -7 -3 -4 -15 4
-12 0 -26 -8 -33 -11 -9 -14 -8 -14 7 0 15 -2 16 -9 5 -5 -7 -14 -10 -20 -7
-6 4 -11 2 -11 -5 0 -8 -4 -8 -15 1 -13 11 -14 10 -10 -2 4 -9 -1 -18 -10 -22
-11 -4 -14 -2 -9 6 4 6 -3 4 -17 -5 -27 -20 -43 -22 -33 -5 5 7 3 8 -7 2 -15
-9 -20 -11 -46 -13 -12 -1 -14 -4 -7 -9 9 -5 8 -11 -2 -20 -8 -7 -14 -9 -14
-4 0 5 -7 9 -15 9 -8 0 -15 -5 -15 -10 0 -5 -7 -4 -16 3 -12 11 -15 11 -12 -1
2 -8 -3 -13 -11 -11 -9 2 -11 -3 -7 -14 5 -14 4 -15 -9 -4 -8 7 -15 8 -15 3 0
-6 -11 -9 -24 -8 -16 2 -26 -3 -29 -15 -3 -11 -13 -17 -28 -16 -13 1 -30 -5
-37 -14 -12 -13 -12 -13 -6 0 7 12 5 13 -8 3 -8 -7 -19 -9 -24 -5 -4 4 -2 -2
6 -13 8 -11 10 -17 6 -13 -5 4 -15 3 -23 -4 -11 -9 -12 -7 -7 8 4 15 1 13 -16
-6 -12 -14 -19 -18 -15 -10 6 13 5 13 -7 0 -7 -9 -25 -15 -40 -15 -22 1 -25
-2 -16 -13 6 -7 7 -12 2 -11 -23 4 -35 -2 -28 -13 5 -9 2 -9 -9 1 -15 12 -21
9 -19 -10 1 -3 -5 -6 -13 -6 -8 0 -11 5 -8 11 4 6 0 5 -9 -2 -13 -10 -17 -10
-22 0 -3 7 -3 2 0 -11 5 -19 3 -23 -10 -18 -9 4 -16 2 -16 -3 0 -6 -5 -10 -11
-10 -5 0 -8 4 -5 9 4 5 -4 7 -16 3 -12 -3 -17 -7 -10 -10 7 -2 10 -8 6 -13 -3
-5 -13 -5 -24 1 -16 8 -18 7 -14 -4 4 -11 -1 -14 -19 -12 -19 2 -24 -1 -19
-12 4 -11 2 -13 -8 -7 -10 6 -12 4 -7 -8 4 -11 2 -14 -8 -10 -8 3 -12 10 -8
17 3 6 -2 4 -13 -5 -10 -9 -25 -15 -32 -13 -7 1 -8 0 -2 -3 16 -8 11 -26 -6
-19 -8 3 -12 2 -9 -3 3 -5 1 -12 -5 -16 -5 -3 -10 0 -11 7 0 7 -4 5 -8 -5 -4
-10 -11 -18 -16 -18 -6 0 -19 -8 -30 -17 -19 -16 -19 -16 -6 1 12 15 12 17 -3
11 -15 -6 -20 -18 -17 -37 1 -5 -3 -6 -9 -2 -6 3 -7 12 -3 18 4 7 0 6 -10 -2
-9 -7 -14 -18 -10 -25 3 -6 0 -6 -8 2 -7 6 -20 12 -28 11 -12 0 -12 -2 2 -8
17 -6 17 -8 -5 -26 -15 -14 -18 -14 -10 -3 11 14 11 16 -7 11 -12 -3 -21 -10
-21 -15 0 -5 -6 -6 -12 -2 -8 5 -7 0 2 -11 8 -10 10 -16 4 -12 -7 4 -18 0 -25
-9 -8 -10 -21 -13 -38 -9 -14 3 -21 2 -16 -2 12 -10 18 -33 7 -32 -24 4 -34
-2 -27 -18 5 -15 4 -16 -7 -5 -10 10 -16 8 -30 -10 l-17 -23 4 23 c2 13 0 20
-6 17 -5 -4 -7 -11 -4 -16 4 -5 1 -9 -5 -9 -6 0 -9 -4 -5 -9 3 -5 0 -13 -6
-17 -6 -3 -15 -1 -19 6 -5 9 -9 8 -13 -4 -3 -8 -1 -17 6 -20 7 -2 2 -5 -11 -5
-13 -1 -21 -5 -17 -10 3 -6 -4 -8 -15 -6 -11 2 -18 0 -15 -6 5 -8 -7 -13 -26
-11 -4 1 -5 -8 -2 -18 3 -12 0 -20 -6 -20 -7 0 -9 5 -5 12 4 7 3 8 -4 4 -7 -4
-12 -16 -12 -27 0 -11 -3 -18 -7 -16 -11 6 -43 -30 -35 -39 4 -4 2 -4 -4 -1
-7 4 -15 0 -18 -9 -4 -10 -13 -13 -28 -9 -13 3 -18 3 -13 -2 6 -4 11 -14 13
-22 3 -12 1 -12 -14 0 -16 13 -16 12 -5 -9 12 -22 11 -23 -7 -13 -24 13 -36 3
-19 -17 10 -13 9 -14 -12 -3 -13 7 -21 8 -17 3 3 -6 2 -13 -4 -17 -5 -3 -10
-15 -10 -25 0 -10 -4 -22 -10 -25 -6 -4 -7 1 -3 12 8 23 -1 15 -17 -16 -10
-19 -9 -22 1 -16 8 6 10 4 5 -4 -5 -7 -14 -10 -21 -7 -8 3 -11 -2 -8 -13 2
-10 -4 -24 -14 -32 -17 -13 -17 -13 -3 6 14 19 14 19 -3 6 -14 -11 -15 -16 -5
-29 11 -13 11 -14 -1 -7 -11 6 -13 4 -8 -8 4 -12 2 -14 -10 -10 -11 4 -14 2
-9 -5 4 -7 1 -12 -10 -12 -14 0 -14 -3 -4 -15 7 -9 10 -18 6 -22 -3 -3 -6 -1
-6 5 0 7 -5 12 -11 12 -6 0 -9 -7 -5 -15 3 -8 1 -15 -5 -15 -6 0 -7 -5 -4 -10
4 -6 1 -9 -7 -8 -8 2 -12 -4 -10 -15 2 -9 -2 -17 -9 -17 -8 0 -7 -5 2 -17 10
-11 10 -14 2 -9 -9 5 -13 0 -13 -14 0 -11 -7 -23 -15 -26 -8 -4 -12 -11 -9
-16 4 -6 0 -14 -7 -19 -11 -7 -11 -9 -1 -9 7 0 10 -5 7 -10 -4 -6 -11 -8 -16
-5 -5 3 -6 -2 -2 -11 5 -13 3 -15 -8 -9 -11 7 -11 5 1 -10 8 -10 10 -16 4 -12
-7 4 -17 0 -23 -7 -8 -9 -8 -16 -2 -20 5 -4 9 -15 8 -26 -1 -10 -5 -16 -9 -14
-4 3 -8 0 -8 -5 0 -6 6 -11 13 -11 7 0 8 -3 2 -8 -17 -12 -41 -47 -27 -38 8 5
12 0 12 -14 0 -12 -4 -19 -9 -15 -9 5 -6 -33 4 -62 2 -7 0 -15 -5 -18 -5 -3
-6 -13 -3 -22 5 -11 3 -14 -6 -8 -10 6 -11 3 -3 -12 7 -12 7 -24 0 -37 -8 -14
-7 -17 1 -12 8 5 10 -2 6 -24 -4 -24 -2 -30 7 -24 8 5 7 1 -2 -11 -8 -10 -10
-16 -4 -12 7 4 14 0 17 -8 4 -9 1 -12 -9 -8 -7 3 -14 0 -14 -6 0 -6 4 -11 9
-11 8 0 17 -20 26 -58 2 -6 -1 -10 -6 -6 -5 3 -6 10 -3 16 5 7 2 8 -6 3 -8 -5
-11 -4 -6 3 3 6 2 13 -3 16 -14 9 -7 -22 10 -42 19 -23 23 -52 8 -52 -7 0 -4
-7 7 -16 10 -8 13 -13 7 -9 -9 4 -11 1 -7 -9 3 -9 10 -14 14 -11 14 9 20 -10
8 -25 -8 -12 -8 -11 -3 5 4 14 3 17 -5 9 -6 -6 -8 -19 -4 -28 5 -14 9 -15 15
-5 4 8 11 10 15 6 4 -3 1 -14 -7 -24 -9 -11 -10 -14 -1 -9 8 5 12 0 12 -14 0
-14 4 -19 13 -14 8 5 7 2 -2 -9 -8 -10 -11 -20 -7 -24 3 -3 6 0 6 8 0 12 2 12
9 0 5 -8 7 -21 3 -29 -4 -11 -2 -13 9 -7 11 7 12 6 2 -6 -9 -11 -8 -19 4 -34
13 -16 15 -17 10 -2 -4 9 -1 17 4 17 7 0 9 -11 7 -25 -4 -17 -1 -25 8 -25 8 0
14 -4 14 -10 0 -5 -5 -10 -12 -10 -6 0 -8 -3 -5 -6 4 -4 13 -2 20 5 12 9 14 6
12 -14 -2 -16 2 -25 11 -25 13 0 18 -12 15 -32 0 -5 3 -8 8 -8 6 0 8 -10 6
-21 -3 -12 -2 -19 2 -15 3 3 13 0 22 -6 11 -9 10 -6 -2 9 -15 17 -16 23 -5 29
7 4 10 4 6 -1 -4 -4 7 -26 25 -49 17 -22 27 -37 20 -33 -6 4 -14 3 -18 -3 -3
-6 3 -10 16 -10 17 0 19 -3 10 -14 -10 -12 -8 -13 10 -9 18 5 21 3 15 -12 -5
-15 -4 -16 9 -5 13 11 14 10 10 -2 -4 -9 5 -25 24 -41 16 -13 27 -28 24 -31
-4 -3 4 -6 16 -6 19 0 22 -4 18 -21 -4 -17 -3 -19 6 -10 17 17 31 13 17 -4
-11 -13 -10 -14 3 -10 9 4 21 -2 29 -14 8 -12 18 -18 22 -14 4 4 4 -1 0 -12
-4 -11 -3 -17 1 -12 5 4 19 -3 32 -15 13 -12 23 -18 23 -14 0 4 7 1 15 -8 8
-8 15 -19 15 -25 0 -5 5 -13 12 -17 7 -4 8 -3 4 4 -4 7 -2 12 3 12 10 0 15
-14 12 -32 0 -4 5 -5 13 -2 7 3 20 -2 29 -10 8 -8 17 -12 21 -9 3 4 6 -2 6
-12 0 -14 3 -15 14 -6 11 9 16 9 22 0 4 -7 3 -9 -3 -6 -6 4 -13 0 -16 -8 -4
-10 -1 -12 10 -8 12 5 14 3 8 -7 -5 -9 -4 -11 4 -6 19 12 51 -3 44 -21 -4 -11
-2 -14 5 -9 7 4 12 2 12 -4 0 -6 5 -8 10 -5 6 3 10 1 10 -5 0 -6 4 -9 8 -6 5
3 21 -3 37 -14 15 -10 35 -16 44 -12 14 5 14 4 2 -11 -8 -10 -11 -20 -7 -24 3
-3 6 -1 6 5 0 7 5 11 12 9 20 -4 36 -21 30 -32 -3 -5 3 -3 13 5 17 14 18 13
12 -3 -4 -11 -3 -16 4 -12 6 4 17 -1 25 -11 15 -18 15 -18 10 0 -6 16 -4 17 9
6 8 -7 13 -16 10 -20 -7 -11 21 -20 31 -10 5 5 15 5 24 -1 12 -9 11 -10 -5 -5
-19 6 -19 5 -3 -7 10 -8 16 -16 13 -18 -2 -3 6 -5 18 -5 12 0 26 5 30 10 5 7
6 3 3 -8 -5 -13 -2 -17 8 -13 11 4 13 1 9 -10 -4 -11 -2 -14 5 -9 7 4 12 2 12
-5 0 -10 3 -10 12 -1 15 15 32 16 23 2 -3 -5 1 -10 11 -10 14 0 15 -3 3 -17
-11 -15 -11 -16 1 -6 18 16 44 17 34 1 -5 -8 -2 -9 9 -5 10 4 17 1 17 -5 0 -9
3 -9 11 -1 6 6 18 9 26 6 12 -5 12 -7 1 -14 -11 -7 -10 -11 2 -18 10 -7 17 -6
22 2 6 9 8 9 8 0 0 -7 6 -10 13 -7 8 3 20 -2 27 -10 7 -9 16 -13 21 -10 5 3 9
0 9 -5 0 -6 7 -11 16 -11 9 0 12 5 8 12 -4 6 -3 8 4 4 6 -3 9 -15 7 -25 -3
-14 1 -18 16 -14 12 3 19 0 19 -8 0 -11 2 -11 10 1 6 10 10 11 10 3 0 -7 9
-13 20 -13 11 0 20 -7 20 -16 0 -11 6 -14 20 -9 13 4 20 2 20 -7 0 -10 3 -9
10 2 8 13 10 12 10 -3 0 -10 5 -15 10 -12 6 3 10 2 10 -3 0 -6 7 -13 16 -16 8
-3 12 -2 9 4 -9 14 9 12 23 -2 9 -9 12 -9 12 1 0 7 5 9 10 6 6 -4 8 -11 5 -16
-3 -5 1 -6 9 -3 11 4 16 0 16 -12 0 -16 2 -17 10 -4 8 13 10 12 10 -3 0 -10 5
-15 10 -12 6 4 7 12 3 18 -4 7 0 7 10 -1 9 -8 21 -11 27 -7 5 3 10 1 10 -5 0
-6 4 -8 10 -5 5 3 10 0 10 -8 0 -8 7 -18 16 -21 15 -6 15 -4 3 11 -11 14 -9
13 13 -2 16 -13 23 -24 17 -31 -9 -11 24 -54 41 -54 6 0 9 -3 9 -7 -4 -23 3
-31 21 -28 11 2 25 -2 32 -9 7 -7 35 -12 62 -12 28 0 44 2 38 4 -7 2 -12 8
-12 13 0 4 7 5 17 2 11 -4 14 -3 9 5 -5 8 -2 10 9 6 11 -4 18 3 26 25 6 17 15
28 21 25 5 -4 5 4 -2 16 -8 15 -8 20 -1 16 15 -10 14 7 -1 22 -16 16 4 16 22
0 8 -7 5 -2 -7 12 -16 19 -19 29 -12 42 8 14 7 16 -5 12 -18 -7 -46 33 -39 55
5 13 3 14 -8 3 -19 -18 -28 -15 -24 8 2 13 -2 20 -11 20 -9 0 -12 -5 -8 -12 4
-7 3 -8 -5 -4 -12 8 -1 30 24 48 6 5 6 8 -2 8 -6 0 -15 -4 -18 -10 -3 -5 -12
-10 -18 -9 -9 0 -9 2 1 6 6 2 12 18 12 34 0 22 -4 28 -12 23 -9 -6 -9 -3 1 9
7 9 11 24 7 32 -3 9 -2 14 3 11 5 -3 11 4 14 15 4 14 2 19 -8 15 -10 -4 -11 3
-3 31 5 19 7 37 4 40 -2 3 -1 16 5 30 8 22 7 24 -13 19 -13 -3 -17 -3 -10 0 6
3 12 14 12 25 0 10 4 19 10 19 5 0 7 -8 4 -18 -5 -14 -4 -14 4 -2 7 9 7 18 1
26 -5 6 -7 19 -3 28 3 9 1 16 -6 16 -6 0 -8 5 -5 10 4 6 10 8 14 6 4 -3 8 1 8
9 0 11 -4 12 -13 4 -8 -7 -14 -6 -20 2 -5 8 -3 9 6 4 10 -6 12 -3 8 13 -4 12
-2 20 3 16 5 -3 9 -1 9 4 0 5 -10 14 -22 21 -22 11 -22 11 -1 6 12 -3 24 -1
28 5 4 6 1 9 -6 8 -7 -2 -12 10 -14 28 -1 23 2 31 12 27 7 -3 13 0 13 6 0 6
-4 11 -10 11 -15 0 -7 24 10 32 10 4 7 7 -10 7 -20 1 -22 3 -10 11 11 7 11 10
2 10 -10 0 -10 5 -1 21 14 27 19 68 8 74 -4 3 -4 18 1 34 7 24 5 29 -6 24 -10
-4 -12 0 -8 11 3 9 11 13 18 9 6 -4 5 1 -3 10 -7 9 -9 17 -4 17 6 0 10 13 9
29 -1 16 -4 27 -8 24 -5 -2 -8 1 -8 6 0 6 6 11 13 11 8 0 7 4 -3 10 -13 9 -13
10 0 10 13 0 13 1 0 10 -11 7 -11 10 -2 10 9 0 10 5 2 19 -7 14 -6 21 3 24 9
4 9 6 -1 6 -10 1 -10 6 -1 22 8 15 8 19 0 15 -6 -4 -11 -2 -11 3 0 6 4 11 8
11 9 0 7 135 -3 149 -3 5 -2 12 3 15 9 5 7 89 -3 105 -3 6 -1 11 5 11 8 0 7 6
-1 21 -8 15 -8 19 0 15 6 -4 11 0 11 9 0 9 -5 13 -11 9 -8 -4 -8 -1 -1 13 7
12 7 24 0 37 -6 10 -6 16 -1 13 6 -4 8 18 7 56 -2 37 2 67 9 76 10 12 9 13 -2
7 -10 -7 -12 0 -8 32 2 23 -1 46 -7 53 -8 9 -7 11 6 6 17 -6 17 3 3 37 -5 11
-3 26 3 37 8 12 8 20 1 24 -6 5 -6 12 3 23 7 9 8 13 2 9 -15 -9 -16 55 -1 65
9 6 9 8 0 8 -7 0 -10 7 -6 17 5 12 3 14 -8 8 -12 -8 -12 -6 0 8 7 9 10 17 6
17 -4 0 -1 8 6 17 10 11 10 14 2 9 -7 -4 -13 -3 -13 3 0 5 6 12 13 14 9 4 8 6
-2 6 -11 1 -11 4 -1 16 14 17 4 38 -13 28 -7 -3 -4 3 6 14 13 14 15 23 7 28
-8 5 -8 10 0 20 8 10 7 14 -2 18 -10 4 -10 7 1 15 16 11 5 35 -12 26 -7 -3 -3
2 7 10 14 11 15 16 6 16 -10 0 -11 3 -3 11 6 6 9 18 6 27 -5 11 -3 13 7 7 9
-5 11 -4 6 4 -4 6 -12 9 -17 6 -5 -4 -9 -2 -9 4 0 5 6 12 13 14 9 4 9 8 -2 15
-12 8 -12 13 -2 25 9 12 9 16 0 19 -9 3 -9 9 -1 25 9 16 9 23 -1 26 -9 4 -9 6
1 6 8 1 10 6 5 14 -12 19 -14 49 -3 42 11 -7 14 8 3 19 -4 4 -8 18 -9 32 -1
20 3 23 19 18 17 -5 18 -4 6 9 -8 8 -18 12 -24 9 -5 -3 -7 -2 -3 3 4 4 2 15
-5 23 -7 9 -7 13 -1 9 14 -8 31 31 28 66 -2 16 1 25 7 21 6 -3 5 3 -3 15 -7
12 -16 21 -21 21 -4 0 -2 6 5 14 7 8 18 11 23 8 6 -3 4 1 -3 10 -7 9 -12 22
-11 30 3 28 -1 39 -13 32 -9 -6 -9 -3 1 9 7 9 11 24 7 32 -3 8 0 15 7 16 7 0
3 4 -8 9 -18 8 -18 9 5 10 16 2 19 4 8 7 -12 3 -15 12 -12 33 3 15 0 31 -6 35
-7 4 -8 11 -1 18 15 20 18 62 3 59 -8 -1 -11 2 -7 8 4 6 12 9 19 7 13 -5 15
101 2 121 -5 8 -1 10 11 5 16 -6 17 -5 3 12 -12 15 -12 17 -1 10 10 -6 13 -4
9 6 -4 10 1 15 13 15 13 0 15 -4 8 -12 -7 -8 -6 -15 2 -20 8 -4 9 -3 5 4 -7
12 21 22 59 22 38 0 54 3 49 12 -3 4 -15 3 -27 -3 -19 -9 -19 -8 3 10 13 11
29 16 35 12 12 -9 26 -8 43 3 8 4 20 2 29 -6 9 -7 14 -8 11 -3 -3 6 0 16 8 23
8 7 14 8 14 2 0 -14 16 -12 33 4 11 11 17 12 27 3 9 -8 11 -8 7 -1 -4 7 2 14
13 17 13 3 18 1 13 -6 -3 -7 5 -2 19 11 19 17 28 20 33 11 6 -8 4 -10 -6 -4
-8 5 -10 4 -6 0 14 -16 36 -14 30 2 -4 11 -2 14 8 11 8 -3 20 2 27 11 12 14
13 14 9 1 -3 -10 2 -16 14 -16 14 0 16 3 6 15 -10 12 -9 14 6 8 12 -4 17 -1
17 11 0 11 3 13 8 5 9 -15 44 -11 50 6 3 9 8 9 20 -1 12 -10 14 -10 8 0 -4 7
-2 12 4 12 6 0 8 5 4 12 -5 7 -3 8 7 2 20 -12 40 -14 33 -3 -3 5 -10 6 -16 3
-7 -4 -8 -2 -4 4 5 9 13 9 28 1 15 -8 19 -8 13 1 -5 8 2 10 24 7 18 -3 29 -1
25 4 -3 5 -11 6 -17 3 -7 -4 -8 -3 -4 2 12 12 30 12 39 -1 5 -6 8 -3 8 6 0 9
9 19 20 22 13 3 18 1 13 -6 -4 -7 0 -7 9 1 11 9 18 10 23 2 8 -12 25 -4 25 13
0 8 -3 8 -9 -1 -6 -10 -10 -10 -21 3 -11 13 -10 15 4 9 9 -3 16 -1 16 5 0 7 8
8 25 1 19 -7 23 -6 18 5 -3 9 1 15 11 15 9 0 16 5 16 12 0 6 7 3 16 -8 8 -10
13 -14 10 -7 -4 6 5 23 19 37 14 14 25 22 25 18 0 -5 -5 -13 -12 -20 -9 -9 -9
-12 -1 -12 7 0 15 10 18 21 6 17 9 19 16 8 6 -10 9 -11 9 -2 0 7 3 12 8 12 20
-3 32 3 32 17 0 8 5 12 10 9 6 -4 17 -1 25 5 8 6 19 9 25 5 5 -3 10 2 10 12 0
15 2 16 10 3 8 -13 10 -12 10 4 0 15 3 16 15 6 13 -11 14 -10 9 5 -6 14 -4 16
6 10 10 -6 12 -4 6 10 -6 16 -4 16 11 4 15 -12 16 -12 10 5 -6 14 -5 16 5 8 9
-7 17 -6 25 3 10 11 10 15 0 18 -7 3 -6 6 4 6 9 1 22 8 29 16 7 8 16 12 21 9
5 -3 9 0 9 7 0 6 8 9 19 6 15 -3 17 0 13 17 -4 21 -4 21 12 1 10 -11 14 -14
11 -7 -12 24 72 81 97 66 6 -4 6 2 -1 14 -10 19 -9 20 17 17 15 -2 21 -2 15 1
-7 3 -13 10 -13 15 0 6 5 7 12 3 7 -5 9 -2 5 9 -4 12 -1 15 14 12 11 -2 17 0
14 5 -3 6 -1 18 5 27 10 16 11 16 6 1 -3 -12 -1 -15 9 -12 8 3 11 12 9 19 -3
7 0 16 7 21 8 5 10 3 4 -6 -6 -9 -4 -11 4 -6 7 5 10 15 6 23 -5 14 -3 14 12 2
15 -12 16 -12 11 2 -4 11 1 20 18 28 21 9 28 21 26 42 -1 4 6 6 16 5 12 -1 17
6 16 21 0 18 2 20 13 11 11 -9 12 -7 7 7 -5 13 -4 16 4 11 7 -4 12 -1 12 8 0
8 8 20 18 26 16 11 16 11 0 6 -10 -3 -20 -1 -23 5 -4 5 -3 9 2 8 4 -1 19 3 33
9 14 6 19 11 12 11 -10 1 -10 5 0 20 7 11 16 17 21 14 4 -3 7 3 5 13 -2 11 2
18 10 16 6 -1 11 1 11 5 -4 23 2 43 11 38 6 -3 11 3 11 14 3 38 4 42 18 50 8
5 10 14 6 21 -5 8 -4 11 3 6 7 -4 10 3 9 21 -1 15 3 28 8 28 28 1 35 16 17 43
-9 14 -12 23 -6 19 7 -4 15 0 18 9 9 23 8 26 -6 19 -7 -4 -6 -1 3 7 9 7 15 21
13 31 -1 10 4 21 11 23 8 3 11 13 8 21 -5 12 -3 14 8 8 11 -7 12 -6 2 6 -15
19 -13 61 3 55 7 -3 11 3 9 12 -1 9 3 21 9 25 6 5 0 6 -14 3 -14 -3 -19 -3
-12 0 6 3 9 11 5 17 -4 6 0 8 11 4 14 -5 15 -3 6 12 -5 11 -13 21 -17 23 -5 3
-3 3 4 2 7 -2 15 1 18 6 4 6 1 10 -6 10 -8 0 -8 4 1 15 9 11 9 15 1 15 -7 0
-9 5 -6 10 4 6 12 7 18 3 7 -3 4 3 -6 14 -14 16 -15 23 -6 29 8 5 10 3 4 -6
-5 -9 -4 -11 3 -6 8 5 8 15 2 32 -12 31 -12 37 -1 30 8 -5 8 15 1 34 -1 3 -2
8 -1 13 0 4 -4 7 -11 7 -6 0 -3 6 7 14 18 13 18 13 -1 24 -14 8 -15 12 -4 12
12 0 13 2 1 9 -9 6 -10 10 -2 16 9 5 9 11 -1 23 -11 14 -10 15 7 9 17 -6 18
-5 4 5 -27 22 -45 89 -31 113 11 17 11 35 0 42 -6 3 -8 1 -4 -5 3 -6 3 -13 -2
-16 -4 -2 -9 12 -10 32 -4 75 -5 82 -19 70 -11 -9 -12 -6 -3 16 13 35 13 36
-5 36 -8 0 -15 5 -15 11 0 5 6 7 13 4 6 -4 5 0 -3 7 -8 7 -21 24 -28 37 -13
22 -12 23 4 17 16 -6 16 -5 -2 15 -10 11 -17 22 -15 23 11 3 -12 46 -25 46 -8
0 -12 5 -9 10 4 6 12 7 18 4 7 -4 1 5 -12 19 -13 15 -28 24 -33 20 -6 -3 -5 4
1 15 12 23 5 31 -21 27 -15 -3 -16 0 -7 17 8 15 8 19 0 14 -6 -4 -11 0 -11 9
0 11 -5 15 -14 12 -10 -4 -12 0 -9 14 3 11 0 19 -6 19 -7 0 -9 5 -6 10 3 6 0
10 -8 10 -8 0 -22 17 -30 38 -11 24 -15 28 -12 12 4 -24 4 -24 -7 2 -7 16 -21
31 -31 34 -16 5 -17 8 -6 16 10 7 8 8 -9 5 -20 -5 -22 -3 -10 11 7 9 9 14 4
10 -10 -9 -39 19 -32 31 3 4 -6 7 -19 5 -14 -1 -23 1 -20 6 6 9 -46 64 -70 73
-9 4 -15 13 -12 21 4 9 -2 13 -16 12 -14 -1 -22 5 -22 16 0 9 -4 20 -9 25 -5
4 -6 3 -2 -4 4 -7 2 -13 -3 -13 -6 0 -11 5 -11 10 0 6 -5 10 -11 10 -5 0 -7
-6 -3 -12 5 -9 2 -9 -9 1 -18 15 -23 26 -7 16 6 -3 10 -1 10 6 0 6 -8 9 -20 6
-18 -5 -25 4 -21 26 1 5 -8 5 -20 2 -16 -5 -19 -4 -14 6 6 9 3 11 -10 5 -16
-6 -16 -4 -4 11 9 11 10 14 2 9 -8 -4 -13 -2 -13 5 0 6 -8 9 -20 6 -11 -3 -18
-1 -14 4 5 9 -8 13 -36 10 -11 -1 -11 1 3 9 9 6 17 16 17 23 0 8 -3 9 -8 1 -8
-12 -63 -14 -56 -2 3 5 10 6 15 3 5 -3 6 1 3 9 -7 19 -24 21 -24 4 -1 -7 -6
-3 -13 10 -10 17 -15 20 -25 10 -9 -9 -12 -9 -12 0 0 7 -5 12 -11 12 -5 0 -7
-5 -3 -12 4 -7 3 -8 -5 -4 -9 6 -9 11 0 22 10 12 10 15 -2 12 -8 -2 -17 -7
-21 -13 -5 -6 -8 -5 -8 3 0 6 -10 12 -22 13 -13 0 -17 3 -10 6 6 2 12 9 12 14
0 4 -7 6 -14 3 -8 -3 -25 4 -37 15 -18 17 -25 18 -38 8 -12 -9 -13 -9 -7 1 4
7 1 12 -8 12 -9 0 -16 6 -16 13 0 8 -4 7 -10 -3 -8 -13 -10 -12 -10 3 0 9 -4
17 -10 17 -5 0 -7 -8 -4 -17 3 -10 -2 -6 -11 10 -8 15 -18 27 -21 27 -3 0 -2
-4 1 -10 3 -5 1 -10 -4 -10 -6 0 -11 8 -12 18 0 10 -3 12 -6 5 -2 -7 -9 -13
-14 -13 -6 0 -7 6 -3 13 5 7 0 6 -11 -3 -11 -9 -16 -10 -11 -2 4 7 2 12 -6 12
-9 0 -9 3 2 10 8 5 10 10 5 10 -6 0 -16 -5 -23 -12 -9 -9 -12 -9 -12 -1 0 7
-14 11 -30 11 -19 -1 -37 6 -46 18 -14 17 -15 17 -10 1 3 -11 2 -16 -4 -12 -6
3 -10 14 -10 23 0 15 -2 15 -10 2 -5 -8 -10 -10 -10 -5 0 6 -12 12 -26 13 -15
1 -32 9 -38 17 -6 9 -22 14 -36 13 -17 -2 -24 1 -22 11 3 12 0 12 -12 1 -9 -7
-16 -9 -16 -4 0 5 -5 2 -11 -6 -9 -13 -10 -13 -6 0 2 8 9 14 15 13 6 -2 9 4 6
12 -5 13 -8 13 -21 0 -19 -20 -29 -19 -13 0 11 14 10 14 -14 5 -20 -7 -25 -7
-20 1 4 8 -1 9 -16 4 -15 -5 -20 -4 -16 4 4 6 2 11 -3 11 -6 0 -11 -4 -11 -8
0 -5 -7 -9 -15 -9 -11 0 -12 4 -4 14 6 7 10 13 8 14 -26 5 -51 7 -41 3 6 -3
12 -11 12 -17 0 -6 -12 0 -27 14 -14 13 -23 19 -20 13 4 -7 1 -14 -7 -17 -16
-7 -69 90 -54 99 5 3 3 13 -4 22 -8 10 -8 13 -1 9 7 -5 10 -1 8 10 -2 10 -4
21 -4 26 -1 4 -8 7 -16 7 -8 0 -15 7 -15 16 0 8 -5 12 -10 9 -6 -4 -10 -3 -9
2 4 21 -2 34 -13 27 -7 -5 -10 -2 -7 7 3 8 -5 24 -18 36 -13 12 -23 19 -23 16
0 -3 -9 2 -19 11 -14 13 -21 14 -26 6 -6 -9 -10 -9 -15 1 -9 14 -96 20 -121 8
-9 -5 -21 -3 -27 3 -9 9 -12 9 -12 -1 0 -11 -3 -11 -15 -1 -13 11 -14 10 -10
-2z m170 -8 c-3 -5 -12 -10 -18 -10 -7 0 -6 4 3 10 19 12 23 12 15 0z m50 -10
c3 -5 1 -10 -4 -10 -6 0 -11 5 -11 10 0 6 2 10 4 10 3 0 8 -4 11 -10z m-255
-10 c0 -5 -5 -10 -11 -10 -5 0 -7 5 -4 10 3 6 8 10 11 10 2 0 4 -4 4 -10z
m298 -35 c-3 -3 -9 2 -12 12 -6 14 -5 15 5 6 7 -7 10 -15 7 -18z m110 -230
c-3 -3 -9 2 -12 12 -6 14 -5 15 5 6 7 -7 10 -15 7 -18z m-13 -85 c-4 -7 3 -9
19 -6 15 3 24 1 21 -5 -4 -5 -11 -6 -17 -3 -7 5 -8 2 -4 -5 5 -7 14 -10 22 -7
8 3 14 1 14 -5 0 -6 8 -5 21 2 17 9 20 8 14 -2 -6 -9 -2 -11 14 -6 13 3 20 3
17 0 -3 -3 -1 -14 5 -25 8 -15 13 -17 25 -7 11 9 14 9 14 -1 0 -7 8 -10 19 -7
14 3 18 0 15 -17 -2 -11 -1 -15 2 -8 5 10 9 10 20 1 11 -9 14 -8 14 2 0 11 2
11 9 -1 6 -8 7 -18 5 -22 -3 -4 3 -5 12 -1 10 4 15 2 11 -4 -3 -5 0 -10 8 -10
8 0 11 5 8 11 -4 6 1 5 10 -3 9 -7 17 -10 17 -6 0 4 6 3 13 -3 6 -6 17 -10 22
-9 6 1 12 -9 13 -22 3 -18 6 -21 12 -11 7 11 12 11 23 2 7 -7 18 -8 22 -4 5 4
5 1 1 -6 -6 -11 -11 -11 -24 0 -15 12 -16 11 -4 -4 8 -9 20 -14 29 -11 9 4 19
-1 25 -10 5 -10 16 -17 23 -17 8 0 15 -8 15 -17 0 -15 2 -16 10 -3 6 10 10 11
10 3 0 -7 7 -13 16 -13 8 0 12 -4 9 -10 -3 -5 1 -10 10 -10 10 0 13 -5 9 -12
-6 -10 -4 -10 8 0 14 11 17 10 23 -7 4 -13 15 -21 27 -21 12 0 19 -3 15 -6 -9
-9 14 -30 42 -39 19 -6 21 -9 10 -17 -11 -7 -9 -9 7 -5 13 3 21 -1 21 -9 0 -7
-5 -10 -10 -7 -6 4 -7 1 -3 -6 5 -7 14 -10 22 -7 8 3 15 1 15 -4 1 -6 2 -16 3
-22 1 -7 8 -12 15 -10 20 4 53 -29 46 -46 -5 -12 -3 -13 10 -2 13 11 14 10 9
-3 -4 -12 -1 -15 16 -12 18 3 20 2 10 -10 -10 -12 -9 -15 9 -15 11 0 21 -4 21
-9 0 -5 -10 -7 -22 -5 -17 4 -15 1 7 -10 17 -8 24 -15 17 -15 -7 -1 -10 -6 -7
-11 5 -8 11 -8 20 0 11 9 13 6 10 -15 -1 -18 2 -25 10 -21 14 5 29 -20 20 -34
-3 -5 4 -7 15 -5 17 3 18 1 10 -15 -7 -13 -5 -21 7 -31 14 -12 16 -12 8 1 -8
13 -7 13 8 1 9 -7 17 -20 17 -28 0 -8 5 -11 13 -7 10 6 10 4 0 -7 -7 -7 -13
-18 -13 -23 0 -6 5 -4 10 4 8 13 10 12 10 -3 0 -12 4 -16 13 -11 8 5 7 2 -2
-10 -13 -15 -12 -18 8 -23 17 -4 19 -8 9 -14 -11 -7 -10 -10 1 -21 11 -11 13
-11 6 1 -5 9 -4 12 3 7 9 -5 9 -13 2 -27 -9 -16 -7 -21 15 -29 14 -5 25 -12
25 -15 0 -4 -5 -3 -10 0 -6 4 -9 -2 -7 -12 6 -31 20 -58 33 -66 7 -4 11 -14 8
-22 -4 -9 0 -15 7 -15 9 0 10 -3 4 -8 -5 -4 -10 -19 -11 -34 0 -22 3 -25 13
-16 11 8 12 7 7 -6 -4 -9 -1 -16 6 -16 6 0 10 -6 7 -12 -2 -7 0 -23 4 -36 6
-16 6 -21 -2 -16 -8 4 -8 0 0 -15 9 -16 9 -21 -1 -21 -10 0 -9 -3 1 -9 8 -5
19 -8 25 -7 6 2 8 1 3 -1 -4 -3 -4 -10 -1 -15 4 -6 2 -8 -4 -4 -6 3 -14 1 -18
-5 -4 -7 -3 -9 4 -5 14 8 12 -34 -1 -52 -8 -9 -6 -12 4 -10 8 2 13 -3 11 -9
-1 -7 2 -13 6 -13 10 0 9 -30 -2 -48 -4 -7 -2 -12 5 -12 9 0 9 -3 0 -14 -9
-11 -9 -16 0 -22 8 -5 9 -3 4 6 -6 9 -4 11 4 5 9 -5 10 -10 2 -18 -7 -7 -7
-15 2 -26 10 -12 9 -13 -1 -7 -12 7 -11 -14 3 -61 3 -8 -2 -10 -13 -6 -15 6
-15 4 1 -14 13 -14 15 -23 7 -28 -8 -5 -7 -11 2 -23 11 -13 11 -14 -1 -7 -11
6 -13 4 -8 -7 3 -9 3 -19 -1 -22 -8 -9 -10 -46 -2 -46 3 0 6 -9 6 -19 0 -11
-4 -17 -8 -15 -4 3 -8 -2 -8 -10 0 -9 -5 -16 -12 -16 -6 0 -8 -3 -5 -6 4 -4
13 -1 21 5 12 10 14 8 12 -13 -1 -14 -6 -29 -11 -34 -4 -4 -5 -2 -1 5 3 6 2
14 -3 17 -5 4 -8 -1 -7 -10 1 -8 9 -20 17 -25 10 -6 11 -9 1 -9 -18 0 -33 -43
-18 -52 7 -5 3 -8 -9 -9 -12 0 -15 -3 -7 -6 10 -4 9 -9 -5 -20 -16 -13 -16
-14 -1 -9 15 4 16 1 3 -34 -7 -21 -11 -41 -7 -45 3 -3 0 -4 -8 0 -11 4 -15 -2
-16 -20 -1 -16 2 -22 10 -18 6 4 6 0 -2 -9 -7 -9 -12 -20 -11 -24 1 -5 1 -16
0 -23 -1 -12 -4 -12 -13 -3 -15 15 -28 15 -28 1 0 -5 5 -7 10 -4 14 9 12 -18
-2 -34 -11 -11 -10 -12 2 -6 12 7 13 6 3 -7 -7 -8 -10 -18 -6 -21 6 -7 -12
-11 -30 -8 -5 1 -6 -3 -2 -9 3 -6 12 -8 18 -4 7 3 1 -4 -13 -16 -14 -12 -18
-19 -10 -15 8 4 4 -3 -10 -16 l-25 -22 25 7 c21 6 22 5 7 -4 -9 -6 -15 -15
-12 -20 3 -5 0 -12 -6 -16 -7 -4 -9 -3 -5 4 3 6 2 14 -4 17 -6 4 -10 3 -9 -2
3 -15 -13 -73 -22 -79 -4 -2 -7 -10 -5 -17 1 -7 1 -9 -1 -4 -8 13 -23 7 -23
-9 0 -8 -4 -13 -9 -10 -4 3 -7 -6 -5 -19 2 -21 -1 -23 -15 -15 -16 8 -17 5
-13 -17 4 -22 2 -25 -13 -19 -16 6 -16 4 -4 -11 9 -11 10 -14 2 -9 -20 12 -36
-3 -22 -20 7 -9 8 -14 3 -13 -19 3 -34 -1 -34 -12 0 -5 5 -7 12 -3 7 4 8 3 4
-5 -4 -6 -12 -9 -17 -6 -8 6 -13 -9 -10 -28 1 -5 -3 -6 -9 -2 -12 7 -53 -19
-43 -28 3 -4 -2 -7 -11 -7 -11 0 -16 -5 -13 -14 3 -8 -5 -19 -18 -26 -14 -7
-22 -17 -18 -23 3 -5 -5 -3 -18 4 -20 10 -22 10 -13 -2 9 -11 9 -17 -2 -27 -8
-7 -14 -10 -14 -5 0 4 -6 -1 -13 -12 -9 -12 -19 -15 -28 -10 -11 7 -11 5 1
-11 8 -10 10 -16 6 -12 -5 4 -15 0 -21 -9 -11 -15 -15 -16 -31 -3 -16 14 -16
13 -5 -7 7 -15 8 -23 1 -23 -5 0 -10 5 -10 11 0 5 -5 7 -10 4 -6 -4 -8 -10 -5
-15 7 -12 -32 -23 -47 -14 -9 6 -9 3 1 -9 12 -15 11 -17 -7 -17 -12 0 -24 -5
-27 -11 -4 -6 -13 -8 -21 -5 -9 3 -11 0 -7 -11 5 -13 1 -15 -20 -11 -17 3 -24
1 -20 -5 4 -7 -1 -8 -12 -3 -18 6 -18 6 -2 -12 20 -22 12 -35 -14 -21 -18 9
-24 2 -20 -24 1 -5 -3 -6 -9 -2 -6 3 -8 10 -5 15 3 5 0 12 -7 16 -7 4 -10 4
-6 -1 15 -16 -11 -44 -37 -39 -16 3 -24 0 -23 -7 2 -6 -3 -14 -11 -17 -8 -3
-11 0 -7 7 4 7 1 9 -8 5 -9 -3 -15 -9 -14 -12 2 -20 -3 -25 -12 -12 -8 12 -10
12 -10 1 0 -10 -3 -11 -14 -2 -11 9 -16 9 -22 0 -4 -7 -3 -9 3 -6 6 4 13 1 16
-6 4 -10 -4 -13 -29 -12 -18 2 -31 -1 -28 -6 3 -5 10 -6 16 -3 7 4 8 2 4 -4
-4 -6 -13 -9 -21 -5 -8 3 -15 0 -15 -6 0 -6 -7 -8 -17 -4 -12 5 -14 3 -8 -8 8
-12 6 -12 -8 0 -14 11 -18 11 -23 -3 -5 -12 -10 -14 -19 -6 -9 8 -15 8 -20 0
-3 -6 -11 -7 -17 -4 -7 4 -8 2 -4 -5 6 -9 12 -9 24 1 15 12 16 11 3 -4 -10
-14 -17 -15 -33 -7 -16 9 -19 8 -13 -2 6 -9 3 -10 -10 -5 -16 6 -16 4 -4 -10
13 -16 12 -16 -7 -6 -12 6 -26 7 -34 2 -8 -5 -17 -7 -21 -4 -12 7 -59 -18 -53
-28 4 -5 -9 -2 -27 7 -31 17 -32 18 -14 31 16 12 16 14 3 14 -9 0 -19 4 -22 9
-4 5 4 7 16 5 13 -2 17 -2 10 2 -6 3 -9 11 -5 17 11 18 10 97 -1 90 -5 -4 -7
1 -3 9 3 9 0 21 -6 27 -9 9 -8 11 4 6 11 -4 15 1 15 20 0 14 -4 25 -10 25 -5
0 -6 3 -3 7 4 3 2 12 -5 20 -9 11 -7 12 8 6 17 -6 18 -5 4 12 -8 10 -10 16 -3
12 6 -4 15 -2 19 4 4 7 3 9 -4 5 -7 -4 -10 5 -9 26 1 24 -2 32 -12 30 -11 -2
-12 0 -4 10 6 7 9 21 8 31 -2 9 1 15 6 11 16 -10 9 8 -8 22 -13 10 -13 12 -3
9 11 -4 15 3 16 29 0 20 -3 33 -9 29 -5 -3 -4 4 2 16 7 12 8 21 2 21 -13 0 -8
24 8 44 12 14 12 16 0 11 -10 -4 -15 2 -16 15 -1 11 3 20 8 20 6 0 7 -5 3 -12
-4 -7 -3 -8 4 -4 12 7 6 31 -12 55 -9 12 -8 13 3 7 9 -6 12 -5 9 5 -3 8 -1 23
5 34 9 18 9 19 -8 5 -17 -14 -18 -13 -8 5 5 11 8 32 7 48 -2 18 1 26 9 22 7
-3 4 0 -5 7 -15 11 -15 13 0 26 9 7 12 11 6 8 -7 -3 -15 1 -18 10 -3 8 -2 12
3 9 5 -3 12 -1 16 5 3 5 1 10 -6 10 -8 0 -7 5 2 17 8 9 9 14 3 10 -7 -4 -15 0
-18 9 -3 8 -2 12 4 9 14 -9 12 29 -2 44 -11 11 -10 13 5 8 10 -4 16 -3 13 2
-11 17 -14 125 -4 144 5 11 6 17 1 14 -11 -7 -8 87 3 105 4 7 3 8 -4 4 -7 -4
-12 -2 -12 3 0 6 5 11 11 11 8 0 8 5 -1 15 -9 11 -9 15 -1 15 9 0 9 5 1 20 -8
15 -8 20 2 20 10 0 10 2 0 9 -8 4 -13 11 -12 14 1 4 5 20 10 36 5 19 4 33 -3
40 -8 8 -6 11 8 11 12 0 16 3 9 8 -17 11 -28 52 -14 52 6 0 8 -5 4 -12 -4 -7
-3 -8 4 -4 9 5 7 14 -4 32 -10 15 -12 24 -5 24 6 0 11 5 11 11 0 5 -6 7 -12 3
-10 -6 -10 -4 0 7 13 14 17 33 4 25 -10 -6 -8 72 3 81 4 5 5 2 0 -6 -6 -10 -4
-12 4 -7 9 6 9 12 -2 24 -8 10 -13 26 -11 37 9 50 11 95 4 90 -14 -9 -5 30 10
43 11 10 12 12 1 6 -11 -6 -13 -3 -7 12 14 35 16 55 4 48 -7 -5 -9 -2 -5 8 3
9 0 21 -6 27 -8 8 -8 11 2 11 7 0 9 5 6 10 -9 14 14 42 28 33 6 -3 7 -1 3 6
-6 9 -11 9 -22 0 -14 -11 -20 1 -7 15 11 10 12 37 2 30 -5 -3 -7 -10 -4 -15 4
-5 4 -9 1 -9 -14 0 -14 20 0 34 8 9 11 16 5 16 -15 0 -14 30 2 31 9 0 9 2 -1
6 -10 4 -10 9 2 22 14 15 14 18 1 18 -8 0 -11 -5 -8 -10 4 -6 1 -7 -7 -2 -10
6 -9 11 5 22 13 9 14 13 5 13 -9 0 -7 5 6 15 18 14 18 15 0 8 -13 -4 -17 -2
-14 8 3 8 1 22 -4 33 -7 12 -7 16 0 12 5 -3 15 1 22 9 11 13 10 14 -6 8 -17
-6 -18 -5 -4 12 14 17 13 18 -5 12 -17 -6 -16 -4 4 11 20 16 22 22 12 38 -11
18 -11 17 -6 -3 4 -13 2 -23 -3 -23 -11 0 -10 76 2 87 5 5 6 3 2 -4 -5 -9 -2
-11 9 -7 14 6 14 8 -2 19 -10 7 -22 11 -27 8 -5 -4 -6 -1 -2 6 4 6 11 9 16 6
4 -3 10 2 13 10 4 10 1 12 -11 9 -12 -4 -11 0 6 14 13 12 18 23 12 27 -5 3
-10 0 -10 -7 0 -8 -5 -6 -11 5 -5 9 -7 22 -4 28 4 5 1 18 -7 27 -12 15 -11 16
5 3 10 -8 16 -19 13 -26 -2 -6 2 -12 9 -12 11 0 11 5 -1 28 -9 18 -10 30 -4
34 6 4 8 11 5 16 -4 5 0 9 7 9 9 0 9 3 -2 10 -8 5 -11 10 -7 10 4 0 2 10 -5
23 -16 29 -18 46 -8 52 5 3 7 -4 5 -15 -3 -13 0 -18 7 -14 6 4 8 3 4 -4 -3 -6
-2 -13 3 -16 10 -7 9 13 -2 31 -4 6 -3 14 3 18 6 4 7 12 3 18 -11 17 -11 30 1
46 8 10 8 13 1 9 -6 -4 -17 -3 -25 3 -13 7 -12 9 2 9 9 0 20 5 24 12 4 7 3 8
-4 4 -7 -4 -12 -1 -12 8 0 9 -6 16 -12 16 -7 0 -5 5 5 11 9 5 17 14 17 19 0 6
-8 10 -17 11 -14 0 -13 2 5 9 12 5 22 12 22 15 0 4 -3 4 -8 1 -4 -2 -12 7 -19
20 -6 13 -7 22 -2 18 5 -3 9 3 9 13 0 10 5 25 11 33 9 12 10 11 4 -5 -4 -15 2
-11 23 12 17 17 33 29 36 26 3 -4 6 1 6 9 0 9 8 22 18 29 16 13 16 13 2 -6
-14 -20 -14 -20 7 -1 13 10 20 23 17 28 -3 5 2 18 12 29 18 20 29 26 19 9z
m745 -165 c11 -13 10 -14 -4 -9 -9 3 -16 10 -16 15 0 13 6 11 20 -6z m-903
-190 c0 -8 -4 -12 -9 -9 -5 3 -6 10 -3 15 9 13 12 11 12 -6z m8 -35 c3 -6 -1
-7 -9 -4 -18 7 -21 14 -7 14 6 0 13 -4 16 -10z m-10 -88 c-3 -3 -11 0 -18 7
-9 10 -8 11 6 5 10 -3 15 -9 12 -12z m1262 -485 c1 -11 1 -18 0 -16 -2 2 -8
11 -15 20 -9 12 -9 16 1 16 7 0 14 -9 14 -20z m-1267 -241 c0 -3 -4 -8 -10
-11 -5 -3 -10 -1 -10 4 0 6 5 11 10 11 6 0 10 -2 10 -4z m1350 -66 c0 -5 -5
-10 -11 -10 -5 0 -7 5 -4 10 3 6 8 10 11 10 2 0 4 -4 4 -10z m5 -40 c3 -6 -1
-7 -9 -4 -18 7 -21 14 -7 14 6 0 13 -4 16 -10z m-1535 -360 c0 -5 -5 -10 -11
-10 -5 0 -7 5 -4 10 3 6 8 10 11 10 2 0 4 -4 4 -10z m-5 -100 c3 -5 1 -10 -4
-10 -6 0 -11 5 -11 10 0 6 2 10 4 10 3 0 8 -4 11 -10z m2025 -234 c0 -11 -19
-15 -25 -6 -3 5 1 10 9 10 9 0 16 -2 16 -4z m-877 -581 c-3 -9 -8 -14 -10 -11
-3 3 -2 9 2 15 9 16 15 13 8 -4z m-988 -174 c3 -5 2 -12 -3 -15 -5 -3 -9 1 -9
9 0 17 3 19 12 6z m-3 -247 c-9 -16 -10 -14 -9 8 1 15 6 23 11 18 4 -4 4 -16
-2 -26z m83 -94 c-3 -5 -12 -10 -18 -10 -7 0 -6 4 3 10 19 12 23 12 15 0z
m-86 -134 c9 -11 9 -16 -1 -22 -7 -4 -10 -4 -6 1 4 4 3 14 -3 22 -6 7 -9 13
-6 13 2 0 10 -6 16 -14z m-160 -22 c5 4 13 1 17 -5 4 -8 3 -9 -4 -5 -19 11
-14 -5 6 -20 14 -12 15 -13 1 -8 -10 3 -20 0 -24 -6 -3 -6 -1 -9 6 -8 11 3 14
-14 10 -53 0 -5 -7 -7 -13 -4 -7 4 -5 0 5 -8 17 -14 25 -33 9 -24 -4 3 -7 -8
-7 -24 -1 -16 2 -29 5 -29 4 0 7 -7 7 -15 0 -10 -6 -14 -15 -10 -11 4 -12 2
-5 -7 6 -7 9 -28 7 -47 -2 -25 0 -31 9 -22 19 19 28 12 10 -9 -20 -23 -27 -60
-12 -60 7 0 7 -6 -2 -17 -12 -15 -12 -16 5 -9 20 7 20 7 0 -15 -10 -12 -13
-19 -6 -15 15 9 16 -6 0 -22 -9 -9 -7 -17 8 -33 10 -13 13 -19 7 -15 -7 4 -13
4 -14 -1 0 -4 -2 -16 -4 -26 -2 -9 1 -15 6 -11 9 5 13 -16 10 -45 -2 -7 1 -11
6 -8 5 3 9 -3 9 -13 0 -12 -5 -16 -16 -12 -13 5 -13 4 0 -13 8 -10 10 -16 4
-12 -7 4 -15 0 -18 -9 -3 -8 -2 -12 4 -9 6 3 10 1 10 -5 0 -6 5 -8 12 -4 7 4
8 3 4 -5 -4 -6 -11 -9 -16 -6 -4 3 -10 -4 -13 -15 -3 -11 -1 -20 4 -20 5 0 9
5 9 10 0 6 5 10 12 10 9 0 9 -3 0 -12 -16 -16 -16 -52 0 -42 7 4 8 3 4 -4 -4
-6 -14 -9 -24 -6 -14 5 -15 4 -2 -5 8 -6 15 -18 15 -28 0 -10 4 -24 8 -31 5
-7 2 -14 -8 -18 -14 -6 -14 -8 2 -21 17 -13 16 -13 -7 -7 -23 6 -23 6 -7 -10
11 -12 15 -27 12 -47 -4 -19 -1 -29 7 -29 7 0 5 -5 -5 -11 -14 -8 -16 -14 -6
-25 10 -12 9 -13 -5 -8 -9 3 -16 1 -16 -5 0 -6 3 -10 8 -10 26 4 33 -2 18 -16
-14 -15 -12 -50 3 -41 4 3 7 -6 7 -20 0 -16 -5 -23 -12 -20 -8 3 -11 -1 -7 -9
3 -8 8 -13 12 -10 4 2 8 -2 8 -10 0 -18 -9 -19 -27 -2 -11 9 -11 8 0 -7 8 -11
14 -21 13 -23 -7 -8 -2 -24 5 -19 4 2 8 -6 8 -20 0 -17 -4 -23 -14 -19 -12 4
-12 2 -4 -8 7 -8 9 -17 5 -20 -3 -4 -1 -7 6 -7 7 0 9 -5 6 -10 -4 -6 -11 -8
-16 -5 -5 3 -6 -1 -3 -9 3 -9 9 -14 13 -11 10 5 8 -87 -2 -102 -4 -6 -1 -13 5
-16 10 -3 10 -7 -1 -20 -9 -11 -10 -17 -2 -17 6 0 11 -5 11 -11 0 -5 -4 -8 -8
-5 -4 2 -8 -4 -8 -15 0 -13 5 -18 16 -14 9 3 8 -1 -4 -10 -14 -11 -16 -15 -5
-15 12 0 12 -2 -1 -10 -8 -5 -10 -10 -5 -10 6 0 11 -9 12 -20 1 -13 -2 -18
-10 -14 -7 4 -9 4 -5 -1 4 -4 2 -15 -5 -24 -11 -14 -10 -14 6 -2 20 15 23 2 5
-18 -10 -11 -10 -13 0 -7 15 9 16 -6 0 -22 -9 -9 -9 -15 0 -24 9 -9 7 -14 -6
-25 -16 -12 -16 -13 1 -7 9 3 17 1 17 -5 0 -6 -6 -11 -12 -11 -9 0 -8 -4 2
-10 13 -9 13 -11 0 -20 -8 -5 -10 -10 -5 -10 6 0 11 -16 12 -35 0 -19 -3 -33
-7 -30 -3 2 -7 -2 -7 -10 0 -8 4 -12 7 -10 4 3 8 -6 8 -20 0 -14 -5 -22 -10
-19 -5 3 -4 -4 4 -15 11 -18 11 -23 -2 -31 -8 -5 -10 -10 -4 -10 7 0 14 -9 17
-20 3 -11 1 -18 -4 -14 -12 7 -11 -3 1 -26 9 -16 8 -19 -7 -13 -15 5 -16 3 -5
-8 14 -16 16 -33 2 -24 -6 3 -7 -1 -4 -9 3 -9 11 -13 18 -9 6 4 5 -1 -3 -10
-11 -14 -11 -17 0 -18 10 0 10 -2 2 -5 -7 -3 -9 -12 -6 -20 3 -8 -1 -22 -8
-31 -12 -15 -12 -16 2 -11 14 6 16 2 10 -20 -4 -15 -4 -43 -1 -64 6 -29 4 -35
-8 -31 -12 5 -11 1 3 -20 16 -25 16 -27 1 -27 -10 0 -14 -5 -11 -10 4 -6 9 -8
13 -6 4 2 7 -20 7 -50 0 -30 -3 -54 -7 -54 -10 0 3 -33 16 -42 7 -5 5 -8 -4
-8 -12 0 -15 -11 -13 -47 6 -129 5 -211 -1 -221 -4 -7 -1 -12 9 -12 9 0 13 -5
10 -10 -4 -6 -10 -8 -14 -6 -4 3 -8 -1 -8 -9 0 -8 4 -12 9 -9 4 3 8 1 8 -5 0
-5 -5 -13 -11 -17 -8 -4 -8 -9 0 -17 14 -14 14 -30 0 -21 -8 5 -8 1 0 -13 6
-11 8 -23 5 -26 -11 -10 -11 -58 -1 -64 6 -3 7 -1 3 5 -4 7 -2 12 3 12 14 0
14 -6 -1 -31 -11 -18 -10 -23 0 -26 10 -4 8 -9 -5 -19 -15 -12 -15 -13 -2 -8
10 3 20 0 25 -7 4 -8 3 -10 -4 -5 -7 4 -12 2 -12 -4 0 -6 -4 -9 -9 -5 -5 3
-13 1 -16 -5 -4 -6 -3 -10 2 -9 20 3 34 -2 28 -11 -4 -6 -11 -7 -17 -4 -8 5
-9 1 -5 -10 6 -14 4 -15 -16 -5 -20 11 -21 11 -8 -4 12 -16 8 -21 -12 -18 -4
1 -10 -5 -13 -13 -5 -12 -10 -13 -24 -4 -10 7 -16 17 -12 23 3 5 -3 3 -13 -5
-10 -8 -16 -10 -12 -4 4 7 -4 11 -23 12 -15 0 -43 9 -62 18 -40 22 -49 23 -67
10 -11 -8 -13 -8 -7 1 5 9 0 13 -13 13 -12 0 -21 4 -21 10 0 5 6 8 13 6 6 -1
9 -1 4 1 -4 3 -4 10 -1 15 5 7 2 8 -7 3 -20 -13 -49 -13 -49 -1 0 6 -5 4 -10
-4 -7 -11 -10 -11 -10 -2 0 7 -4 10 -10 7 -6 -4 -7 1 -3 11 5 14 2 16 -15 12
-14 -4 -20 -2 -15 5 4 7 0 8 -12 3 -13 -4 -30 3 -56 24 -21 17 -40 26 -44 20
-4 -6 -13 -5 -25 2 -10 7 -17 15 -14 19 2 5 -5 6 -16 4 -13 -2 -20 1 -20 11 0
8 -9 14 -21 14 -13 0 -18 4 -13 12 4 7 3 8 -4 4 -7 -4 -20 -2 -29 3 -10 6 -14
11 -9 11 17 0 -28 29 -46 30 -10 0 -18 5 -18 11 0 5 -4 7 -10 4 -5 -3 -10 0
-10 9 0 8 -13 17 -28 21 -18 4 -33 16 -40 33 -10 24 -11 24 -5 2 5 -22 4 -23
-11 -8 -9 10 -16 21 -15 25 3 20 -2 24 -18 12 -11 -10 -14 -10 -9 -1 7 11 -5
17 -27 13 -4 -1 -3 8 4 20 8 15 8 19 0 15 -6 -4 -14 0 -17 8 -3 9 -13 16 -21
16 -8 0 -11 5 -7 12 5 8 2 9 -9 5 -16 -6 -22 3 -18 26 1 5 -7 6 -18 2 -16 -5
-19 -2 -16 15 4 19 2 20 -11 9 -8 -7 -14 -8 -13 -3 4 21 -2 35 -11 29 -5 -3
-10 -2 -10 4 0 5 6 12 13 14 10 5 -15 11 -34 9 -3 -1 -5 9 -4 21 2 31 -5 40
-21 26 -12 -10 -13 -9 -8 5 8 22 -15 50 -31 36 -8 -7 -12 -5 -12 5 0 8 4 12 9
9 4 -3 8 0 8 5 0 6 -5 11 -11 11 -5 0 -8 4 -5 9 3 5 -2 15 -12 22 -15 13 -16
12 -4 -3 11 -13 11 -18 0 -24 -7 -4 -10 -4 -6 1 5 5 -4 24 -18 42 -14 19 -24
37 -20 40 3 3 -7 21 -22 41 -15 19 -26 37 -24 39 1 2 2 12 2 24 0 13 -4 18
-12 13 -8 -5 -8 -1 2 12 8 10 10 16 6 12 -15 -13 -38 13 -26 27 8 10 8 15 -1
21 -8 5 -9 3 -4 -7 8 -12 6 -12 -8 0 -18 15 -23 26 -7 16 6 -3 10 -1 10 4 0 6
-6 11 -12 11 -9 0 -8 4 2 10 13 9 13 10 0 11 -8 1 -19 1 -23 0 -5 -1 -6 3 -2
9 3 6 12 7 18 3 7 -3 3 4 -8 17 -11 13 -14 20 -7 16 6 -4 12 -2 12 3 0 6 -5
11 -11 11 -8 0 -7 6 2 17 12 14 12 16 0 8 -11 -6 -13 -4 -8 9 4 10 3 15 -3 11
-6 -3 -11 -1 -11 4 -2 14 -6 30 -9 34 -8 10 -6 37 3 37 7 0 3 7 -7 15 -11 8
-14 15 -8 15 7 0 12 5 12 11 0 5 -4 8 -8 5 -13 -8 -11 28 2 37 7 5 3 7 -8 5
-12 -2 -20 4 -22 16 -2 14 0 16 9 7 6 -6 16 -11 22 -11 5 0 4 4 -4 9 -13 8
-13 12 0 27 8 10 9 15 2 11 -6 -4 -13 -4 -16 0 -2 5 -2 1 0 -7 3 -12 2 -13 -9
-2 -11 11 -9 16 12 32 21 16 22 18 5 14 -16 -4 -20 0 -20 23 0 15 4 34 9 42 7
10 6 12 -4 6 -10 -6 -12 -4 -7 7 3 9 0 21 -6 28 -9 10 -9 11 1 6 15 -9 16 10
0 20 -7 5 -5 11 7 21 11 7 14 13 6 13 -7 0 -11 6 -8 13 2 6 0 20 -4 29 -6 11
-5 19 3 24 7 5 8 3 3 -6 -5 -9 -4 -11 4 -6 6 4 8 13 4 19 -11 18 -11 117 0
124 6 3 7 1 3 -5 -5 -8 -1 -10 10 -5 15 5 14 7 -3 17 -19 11 -24 29 -12 41 4
3 10 1 15 -6 5 -8 3 -10 -7 -4 -8 5 -11 5 -7 1 10 -12 22 -8 24 9 1 8 -1 13
-5 11 -4 -3 -13 -1 -21 5 -12 7 -12 9 3 9 15 0 16 4 7 20 -9 16 -8 18 5 14 8
-4 15 -1 15 5 0 6 -6 11 -12 11 -9 0 -9 3 -2 8 12 8 28 45 16 38 -5 -3 -9 2
-9 10 0 9 6 13 16 9 12 -5 13 -3 4 6 -14 14 -6 42 10 32 5 -3 7 -1 3 5 -3 5 0
13 6 16 7 3 2 4 -12 1 -14 -3 -19 -2 -12 1 6 3 10 10 6 15 -3 5 -2 9 3 8 20
-4 24 2 12 18 -12 14 -12 16 0 8 11 -6 13 -4 8 8 -3 10 -3 17 2 17 4 0 7 10 6
23 -2 25 14 67 27 67 4 0 8 7 8 16 0 9 5 12 13 8 8 -5 7 -2 -2 9 -12 15 -12
17 3 11 12 -5 15 -2 10 10 -3 9 0 23 7 32 10 13 10 17 -2 25 -8 5 -9 9 -3 9 5
0 15 -5 21 -11 9 -9 11 -5 9 15 -2 18 1 26 12 26 13 0 12 3 -3 14 -18 13 -17
14 8 11 15 -2 25 1 21 6 -3 5 -11 6 -17 2 -8 -5 -8 -2 0 9 7 8 9 19 5 23 -4 5
-1 5 6 1 6 -4 12 -2 12 4 0 6 4 9 9 5 9 -5 21 20 27 55 4 19 34 41 47 33 6 -3
7 -1 4 5 -9 13 2 42 15 42 6 0 4 -8 -3 -17 -13 -16 -12 -17 3 -5 9 7 15 22 13
34 -4 17 -2 18 13 7 9 -7 14 -10 10 -5 -11 13 11 48 24 40 6 -4 8 -3 5 3 -3 5
3 16 14 23 10 8 19 21 19 28 0 8 6 12 14 9 17 -7 36 11 29 29 -3 9 2 12 17 9
13 -2 20 -2 16 2 -7 7 35 39 47 35 5 -1 6 2 2 8 -4 6 -16 4 -33 -7 -25 -15
-25 -14 3 10 16 14 38 23 48 21 16 -3 17 -1 5 13 -11 14 -11 16 1 8 9 -5 20 0
33 16 11 13 17 19 14 12 -4 -6 -1 -15 5 -19 8 -4 9 -3 5 5 -4 6 0 14 8 17 9 3
13 11 9 17 -4 6 0 8 10 4 10 -3 17 -2 17 4 0 6 5 7 12 3 7 -5 8 -3 3 6 -6 10
-4 12 10 6 16 -6 16 -4 4 10 -13 16 -12 16 7 6 18 -9 24 -7 42 13 11 13 17 26
14 30 -4 4 4 4 17 0 14 -4 21 -3 18 2 -10 16 36 32 57 21 16 -9 17 -8 6 12 -7
13 -8 20 -2 16 6 -3 13 -2 16 3 3 5 15 7 26 4 12 -3 20 0 20 7 0 9 4 9 17 -1
14 -12 15 -12 9 0 -11 18 14 33 31 19 10 -8 12 -7 7 6 -3 9 -2 16 4 16 6 0 13
-6 15 -12 3 -8 6 -5 6 6 1 15 4 16 16 6 13 -11 14 -10 10 3 -8 20 12 32 30 17
9 -8 15 -8 20 0 3 6 12 7 18 3 7 -4 5 2 -3 12 -14 17 -14 18 10 5 23 -12 24
-12 11 4 -12 14 -12 16 4 10 11 -5 16 -3 12 2 -4 6 6 9 24 6 19 -3 29 0 29 9
0 8 6 5 15 -7 14 -18 15 -17 5 8 -7 22 -6 26 5 21 8 -3 12 -10 9 -17 -3 -6 1
-2 10 8 13 17 18 17 33 5 14 -12 16 -12 8 0 -6 11 -4 13 8 8 12 -4 17 -1 17
10 0 15 2 14 14 -2 13 -18 13 -17 11 9 -3 22 -1 25 10 16 8 -7 19 -9 24 -6z
m168 -20 c-3 -3 -12 -4 -19 -1 -8 3 -5 6 6 6 11 1 17 -2 13 -5z m-1 -40 c2
-12 -1 -13 -12 -3 -7 6 -11 16 -8 21 7 11 17 3 20 -18z m-131 -122 c-3 -3 -11
0 -18 7 -9 10 -8 11 6 5 10 -3 15 -9 12 -12z m-663 -84 c-7 -7 -12 -8 -12 -2
0 6 3 14 7 17 3 4 9 5 12 2 2 -3 -1 -11 -7 -17z m-259 -23 c-3 -9 -8 -14 -10
-11 -3 3 -2 9 2 15 9 16 15 13 8 -4z m912 -44 c3 -5 2 -12 -3 -15 -5 -3 -9 1
-9 9 0 17 3 19 12 6z m5 -126 c11 -13 10 -14 -4 -9 -9 3 -16 10 -16 15 0 13 6
11 20 -6z m130 -49 c0 -3 -4 -8 -10 -11 -5 -3 -10 -1 -10 4 0 6 5 11 10 11 6
0 10 -2 10 -4z m-1766 -314 c3 -5 -1 -9 -9 -9 -8 0 -12 4 -9 9 3 4 7 8 9 8 2
0 6 -4 9 -8z m1740 -1398 c3 -8 2 -12 -4 -9 -6 3 -10 10 -10 16 0 14 7 11 14
-7z m-23 -147 c-10 -9 -11 -8 -5 6 3 10 9 15 12 12 3 -3 0 -11 -7 -18z m-1657
-13 c7 -19 2 -18 -19 6 -16 17 -16 20 -3 15 9 -4 19 -13 22 -21z m1686 -8 c0
-3 -4 -8 -10 -11 -5 -3 -10 -1 -10 4 0 6 5 11 10 11 6 0 10 -2 10 -4z m-25
-446 c3 -5 1 -10 -4 -10 -6 0 -11 5 -11 10 0 6 2 10 4 10 3 0 8 -4 11 -10z
m-55 -80 c0 -5 -5 -10 -11 -10 -5 0 -7 5 -4 10 3 6 8 10 11 10 2 0 4 -4 4 -10z
m-525 -50 c3 -5 1 -10 -4 -10 -6 0 -11 5 -11 10 0 6 2 10 4 10 3 0 8 -4 11
-10z m435 -290 c0 -5 -2 -10 -4 -10 -3 0 -8 5 -11 10 -3 6 -1 10 4 10 6 0 11
-4 11 -10z"/>
<path d="M3756 6587 c3 -10 9 -15 12 -12 3 3 0 11 -7 18 -10 9 -11 8 -5 -6z"/>
<path d="M4090 6455 c8 -11 15 -21 16 -23 1 -2 5 5 8 15 4 9 4 14 0 10 -4 -4
-14 -1 -23 6 -14 11 -15 10 -1 -8z"/>
<path d="M3617 6435 c-4 -8 -3 -16 1 -19 4 -3 9 4 9 15 2 23 -3 25 -10 4z"/>
<path d="M3600 5751 c0 -6 4 -13 10 -16 6 -3 7 1 4 9 -7 18 -14 21 -14 7z"/>
<path d="M3593 5213 c0 -9 4 -10 14 -2 7 6 13 12 13 14 0 1 -6 2 -13 2 -8 0
-14 -6 -14 -14z"/>
<path d="M4880 4661 c-7 -15 -7 -22 2 -27 7 -4 10 -4 6 1 -4 4 -3 16 3 26 5
11 7 19 5 19 -3 0 -10 -9 -16 -19z"/>
<path d="M3583 3905 c0 -8 4 -12 9 -9 5 3 6 10 3 15 -9 13 -12 11 -12 -6z"/>
<path d="M3413 2790 c-1 -11 2 -22 6 -24 4 -3 7 4 6 14 -2 27 -10 33 -12 10z"/>
<path d="M2316 2674 c-6 -15 -4 -15 11 -3 10 7 20 15 22 16 2 2 -3 3 -11 3 -9
0 -19 -7 -22 -16z"/>
<path d="M3419 2588 c-7 -24 -4 -40 9 -50 15 -11 15 -11 6 2 -6 8 -10 23 -9
33 3 13 -2 26 -6 15z"/>
<path d="M2148 2343 c7 -3 16 -2 19 1 4 3 -2 6 -13 5 -11 0 -14 -3 -6 -6z"/>
<path d="M2066 1922 c-3 -5 1 -9 9 -9 8 0 12 4 9 9 -3 4 -7 8 -9 8 -2 0 -6 -4
-9 -8z"/>
<path d="M2090 1406 c0 -2 7 -7 16 -10 8 -3 12 -2 9 4 -6 10 -25 14 -25 6z"/>
<path d="M2245 1011 c-6 -11 13 -26 22 -17 4 3 0 6 -8 6 -11 0 -11 2 1 10 9 6
10 10 3 10 -6 0 -14 -4 -18 -9z"/>
<path d="M2971 387 c2 -1 13 -9 24 -17 19 -14 19 -14 6 3 -7 9 -18 17 -24 17
-6 0 -8 -1 -6 -3z"/>
<path d="M3760 6766 c0 -2 7 -7 16 -10 8 -3 12 -2 9 4 -6 10 -25 14 -25 6z"/>
<path d="M5008 6143 c7 -3 16 -2 19 1 4 3 -2 6 -13 5 -11 0 -14 -3 -6 -6z"/>
<path d="M5085 6081 c-3 -5 -2 -12 3 -15 5 -3 9 1 9 9 0 17 -3 19 -12 6z"/>
<path d="M5230 5921 c0 -6 4 -13 10 -16 6 -3 7 1 4 9 -7 18 -14 21 -14 7z"/>
<path d="M5484 5318 c1 -18 6 -32 9 -30 6 2 8 7 6 15 0 1 -2 10 -4 20 -6 33
-14 30 -11 -5z"/>
<path d="M3380 5200 c-9 -6 -10 -10 -3 -10 6 0 15 5 18 10 8 12 4 12 -15 0z"/>
<path d="M3390 5150 c-8 -5 -12 -12 -9 -15 4 -3 12 1 19 10 14 17 11 19 -10 5z"/>
<path d="M3381 4964 c0 -11 3 -14 6 -6 3 7 2 16 -1 19 -3 4 -6 -2 -5 -13z"/>
<path d="M3396 4647 c3 -10 9 -15 12 -12 3 3 0 11 -7 18 -10 9 -11 8 -5 -6z"/>
<path d="M5386 4488 c3 -5 10 -6 15 -3 13 9 11 12 -6 12 -8 0 -12 -4 -9 -9z"/>
<path d="M4945 3960 c-3 -6 1 -7 9 -4 18 7 21 14 7 14 -6 0 -13 -4 -16 -10z"/>
<path d="M4834 3888 c-4 -7 -4 -10 1 -6 4 4 15 2 24 -5 14 -11 14 -10 2 6 -16
20 -18 21 -27 5z"/>
<path d="M3564 3189 c-4 -7 -3 -9 4 -5 5 3 13 0 15 -6 4 -9 6 -10 6 -1 1 17
-16 25 -25 12z"/>
<path d="M3575 3140 c-3 -5 -1 -10 4 -10 6 0 11 5 11 10 0 6 -2 10 -4 10 -3 0
-8 -4 -11 -10z"/>
<path d="M2220 2910 c-9 -6 -10 -10 -3 -10 6 0 15 5 18 10 8 12 4 12 -15 0z"/>
<path d="M3566 2802 c-3 -5 1 -9 9 -9 8 0 12 4 9 9 -3 4 -7 8 -9 8 -2 0 -6 -4
-9 -8z"/>
<path d="M1556 2202 c-3 -5 1 -9 9 -9 8 0 12 4 9 9 -3 4 -7 8 -9 8 -2 0 -6 -4
-9 -8z"/>
<path d="M3545 489 c-4 -6 -5 -12 -2 -15 2 -3 7 2 10 11 7 17 1 20 -8 4z"/>
<path d="M3536 394 c-6 -15 -4 -15 11 -3 10 7 20 15 22 16 2 2 -3 3 -11 3 -9
0 -19 -7 -22 -16z"/>
<path d="M2850 331 c0 -5 5 -13 10 -16 6 -3 10 -2 10 4 0 5 -4 13 -10 16 -5 3
-10 2 -10 -4z"/>
<path d="M3600 231 c0 -6 4 -13 10 -16 6 -3 7 1 4 9 -7 18 -14 21 -14 7z"/>
<path d="M3430 10 c-12 -7 -10 -9 7 -7 12 0 19 5 17 9 -6 10 -6 10 -24 -2z"/>
</g>
</svg>
