<svg width="3000" height="771" viewBox="0 0 3000 771" fill="none" xmlns="http://www.w3.org/2000/svg">
<path d="M2068.5 216.354C1854.78 112.071 1566.5 147.354 1431 280.354C1295.5 413.354 1200.5 409.354 1109 369.354C1017.5 329.354 942.5 353.354 859.5 454.354C826.599 494.39 805 501.041 780 507.543C653.656 540.402 550.5 434.541 256.5 610.541C85 723.5 0 748.041 0 748.041V770.041H3000V97.041C3000 97.041 2813 30.5405 2662.5 8.04054C2512 -14.4595 2384.5 10.5406 2300.5 79.5407C2216.5 148.541 2177.5 269.541 2068.5 216.354Z" fill="url(#paint0_linear)"/>
<defs>
<linearGradient id="paint0_linear" x1="779.999" y1="242.71" x2="2214.5" y2="243.532" gradientUnits="userSpaceOnUse">
<stop stop-color="#46FFC8"/>
<stop offset="1" stop-color="#17BAFF"/>
</linearGradient>
</defs>
</svg>
