<?xml version="1.0" encoding="UTF-8" standalone="no"?><!DOCTYPE svg PUBLIC "-//W3C//DTD SVG 1.1//EN" "http://www.w3.org/Graphics/SVG/1.1/DTD/svg11.dtd"><svg width="100%" height="100%" viewBox="0 0 300 150" version="1.1" xmlns="http://www.w3.org/2000/svg" xmlns:xlink="http://www.w3.org/1999/xlink" xml:space="preserve" xmlns:serif="http://www.serif.com/" style="fill-rule:evenodd;clip-rule:evenodd;stroke-linejoin:round;stroke-miterlimit:2;"><g><path d="M261.893,66.499l0.208,0.004l0.208,0.006l0.21,0.009l0.212,0.012l0.212,0.014l0.214,0.017l0.215,0.02l0.216,0.022l0.217,0.025l0.219,0.028l0.22,0.031l0.221,0.033l0.222,0.036l0.224,0.039l0.225,0.041l0.226,0.044l0.159,0.033l0.158,0.035l0.156,0.036l0.155,0.038l0.154,0.039l0.153,0.041l0.151,0.042l0.15,0.045l0.149,0.045l0.147,0.047l0.147,0.049l0.144,0.051l0.144,0.052l0.142,0.053l0.141,0.055l0.139,0.057l0.139,0.058l0.136,0.059l0.136,0.062l0.134,0.062l0.132,0.064l0.132,0.066l0.13,0.067l0.128,0.068l0.127,0.07l0.126,0.072l0.124,0.072l0.123,0.075l0.121,0.075l0.12,0.077l0.118,0.078l0.117,0.08l0.116,0.081l0.114,0.082l0.112,0.084l0.111,0.085l0.109,0.086l0.108,0.088l0.107,0.088l0.104,0.09l0.104,0.091l0.101,0.092l0.101,0.094l0.098,0.094l0.097,0.096l0.096,0.097l0.094,0.098l0.092,0.098l0.091,0.1l0.089,0.101l0.088,0.102l0.086,0.103l0.084,0.104l0.083,0.105l0.081,0.105l0.08,0.107l0.078,0.107l0.076,0.109l0.075,0.109l0.073,0.11l0.072,0.11l0.07,0.112l0.069,0.112l0.067,0.113l0.065,0.113l0.064,0.115l0.062,0.115l0.061,0.115l0.059,0.116l0.058,0.117l0.056,0.117l0.054,0.118l0.053,0.119l0.052,0.119l0.017,0.042l0.033,0.077l0.048,0.12l0.047,0.121l0.046,0.12l0.044,0.122l0.042,0.122l0.041,0.122l0.04,0.122l0.038,0.123l0.037,0.123l0.035,0.124l0.034,0.124l0.032,0.124l0.031,0.125l0.03,0.125l0.028,0.125l0.027,0.125l0.025,0.126l0.024,0.126l0.023,0.126l0.021,0.126l0.02,0.127l0.019,0.127l0.017,0.127l0.016,0.127l0.014,0.127l0.014,0.127l0.012,0.128l0.01,0.127l0.01,0.128l0.008,0.128l0.007,0.128l0.005,0.128l0.005,0.128l0.003,0.128l0.001,0.128l0.001,0.128l-0.001,0.128l-0.002,0.129l-0.003,0.128l-0.004,0.128l-0.006,0.128l-0.006,0.128l-0.008,0.128l-0.009,0.128l-0.011,0.129l-0.011,0.127l-0.013,0.128l-0.014,0.128l-0.015,0.128l-0.016,0.128l-0.017,0.127l-0.019,0.127l-0.019,0.128l-0.021,0.127l-0.022,0.127l-0.023,0.127l-0.024,0.126l-0.025,0.127l-0.026,0.126l-0.028,0.126l-0.028,0.126l-0.03,0.126l-0.031,0.125l-0.032,0.126l-0.033,0.125l-0.034,0.124l-0.035,0.125l-0.036,0.124l-0.037,0.124l-0.038,0.124l-0.04,0.123l-0.04,0.123l-0.042,0.123l-0.042,0.123l-0.044,0.122l-0.045,0.122l-0.045,0.121l-0.047,0.121l-0.048,0.121l-0.049,0.12l-0.049,0.12l-0.051,0.12l-0.052,0.119l-0.053,0.119l-0.054,0.118l-0.055,0.118l-0.056,0.118l-0.057,0.117l-0.058,0.116l-0.059,0.116l-0.06,0.116l-0.061,0.115l-0.062,0.115l-0.063,0.114l-0.064,0.114l-0.065,0.113l-0.067,0.112l-0.067,0.112l-0.068,0.112l-0.069,0.11l-0.07,0.111l-0.071,0.109l-0.072,0.109l-0.073,0.109l-0.074,0.107l-0.075,0.108l-0.076,0.106l-0.077,0.106l-0.078,0.105l-0.079,0.105l-0.08,0.103l-0.08,0.103l-0.082,0.103l-0.083,0.101l-0.084,0.101l-0.085,0.101l-0.085,0.099l-0.087,0.098l-0.088,0.098l-0.088,0.097l-0.09,0.096l-0.091,0.096l-0.091,0.094l-0.093,0.094l-0.093,0.093l-0.095,0.092l-0.095,0.091l-0.096,0.09l-0.098,0.089l-0.098,0.088l-0.099,0.087l-0.1,0.087l-0.101,0.085l-0.102,0.084l-0.103,0.084l-0.104,0.082l-0.105,0.081l-0.106,0.08l-0.107,0.08l-0.107,0.078l-0.109,0.077l-0.11,0.076l-0.11,0.074l-0.111,0.074l-0.113,0.072l-0.113,0.072l-0.114,0.07l-0.115,0.069l-0.116,0.067l-0.117,0.067l-0.118,0.065l-0.118,0.064l-0.12,0.062l-0.12,0.061l-0.121,0.06l-0.122,0.059l-0.123,0.057l-0.124,0.056l-0.125,0.055l-0.125,0.053l-0.127,0.051l-0.127,0.051l-0.128,0.048l-0.129,0.048l-0.129,0.046l-0.13,0.044l-0.132,0.043l-0.132,0.041l-0.132,0.04l-0.134,0.038l-0.134,0.036l-0.135,0.035l-0.135,0.034l-0.137,0.032l-0.137,0.03l-0.137,0.028l-0.139,0.027l-0.139,0.025l-0.139,0.023l-0.141,0.022l-0.141,0.02l-0.15,0.019l-0.154,0.018l-0.157,0.016l-0.161,0.016l-0.164,0.014l-0.167,0.012l-0.172,0.012l-0.175,0.011l-0.178,0.01l-0.182,0.009l-0.185,0.009l-0.189,0.007l-0.192,0.007l-0.197,0.006l-0.396,0.01l-0.409,0.008l-0.418,0.005l-0.426,0.003l-0.433,0.001l-0.438,-0.001l-0.442,-0.003l-0.445,-0.004l-0.446,-0.006l-0.445,-0.007l-0.443,-0.007l-0.441,-0.009l-0.436,-0.01l-0.849,-0.021l-0.407,-0.011l0.028,0.07l0.056,0.137l0.019,0.046l0.038,0.09l0.058,0.136l0.058,0.134l0.06,0.134l0.06,0.133l0.061,0.132l0.061,0.131l0.063,0.131l0.063,0.129l0.064,0.128l0.065,0.127l0.065,0.127l0.066,0.125l0.067,0.124l0.068,0.123l0.068,0.122l0.069,0.121l0.07,0.12l0.07,0.119l0.071,0.118l0.072,0.116l0.072,0.116l0.073,0.114l0.074,0.113l0.074,0.111l0.075,0.111l0.075,0.109l0.076,0.108l0.077,0.107l0.077,0.105l0.078,0.104l0.078,0.103l0.079,0.101l0.079,0.1l0.08,0.099l0.08,0.097l0.081,0.096l0.081,0.095l0.082,0.093l0.082,0.091l0.083,0.091l0.083,0.088l0.083,0.088l0.084,0.086l0.085,0.084l0.084,0.083l0.086,0.082l0.18,0.17l0.181,0.166l0.18,0.163l0.179,0.159l0.179,0.155l0.178,0.152l0.178,0.148l0.177,0.144l0.176,0.141l0.176,0.137l0.175,0.133l0.174,0.13l0.174,0.126l0.173,0.123l0.172,0.119l0.011,0.008l0.159,0.111l0.169,0.115l0.169,0.113l0.168,0.108l0.167,0.106l0.166,0.102l0.166,0.099l0.166,0.096l0.164,0.093l0.164,0.09l0.163,0.086l0.163,0.084l0.162,0.08l0.162,0.078l0.16,0.074l0.16,0.072l0.16,0.069l0.159,0.066l0.158,0.063l0.158,0.06l0.157,0.058l0.156,0.055l0.156,0.052l0.155,0.05l0.155,0.047l0.154,0.044l0.154,0.042l0.153,0.04l0.152,0.037l0.152,0.034l0.152,0.032l0.151,0.03l0.151,0.027l0.15,0.025l0.15,0.022l0.149,0.021l0.15,0.017l0.148,0.016l0.149,0.014l0.148,0.011l0.148,0.009l0.147,0.007l0.147,0.004l0.147,0.003l0.147,0l0.147,-0.002l0.146,-0.004l0.146,-0.006l0.146,-0.008l0.146,-0.01l0.146,-0.012l0.146,-0.015l0.145,-0.016l0.146,-0.018l0.145,-0.021l0.145,-0.022l0.146,-0.025l0.135,-0.025l0.01,-0.001l0.145,-0.028l0.145,-0.03l0.146,-0.032l0.145,-0.034l0.145,-0.036l0.145,-0.038l0.145,-0.04l0.146,-0.042l0.145,-0.043l0.145,-0.046l0.145,-0.048l0.146,-0.05l0.145,-0.052l0.145,-0.053l0.146,-0.056l0.145,-0.057l0.145,-0.06l0.145,-0.061l0.146,-0.064l0.145,-0.065l0.145,-0.067l0.145,-0.07l0.145,-0.071l0.145,-0.072l0.145,-0.075l0.145,-0.077l0.145,-0.078l0.145,-0.081l0.145,-0.082l0.144,-0.084l0.145,-0.086l0.144,-0.088l0.144,-0.089l0.144,-0.091l0.144,-0.093l0.144,-0.095l0.144,-0.097l0.143,-0.098l0.144,-0.1l0.143,-0.102l0.143,-0.103l0.142,-0.105l0.143,-0.107l0.142,-0.109l0.142,-0.11l0.141,-0.111l0.142,-0.114l0.141,-0.115l0.141,-0.116l0.141,-0.118l0.14,-0.12l0.14,-0.121l0.139,-0.122l0.14,-0.124l0.139,-0.126l0.138,-0.127l0.139,-0.129l0.138,-0.13l0.077,-0.073l0.061,-0.057l0.14,-0.13l0.139,-0.131l0.14,-0.133l0.138,-0.134l0.139,-0.136l0.137,-0.137l0.138,-0.138l0.137,-0.139l0.137,-0.141l0.136,-0.142l0.136,-0.144l0.135,-0.144l0.135,-0.146l0.134,-0.147l0.134,-0.148l0.133,-0.149l0.133,-0.151l0.133,-0.151l0.132,-0.153l0.131,-0.154l0.131,-0.154l0.13,-0.156l0.13,-0.157l0.129,-0.158l0.129,-0.159l0.128,-0.16l0.127,-0.16l0.127,-0.162l0.126,-0.163l0.126,-0.163l0.125,-0.164l0.125,-0.166l0.123,-0.166l0.124,-0.166l0.122,-0.168l0.122,-0.168l0.121,-0.17l0.121,-0.17l0.12,-0.17l0.063,-0.091l0.057,-0.08l0.119,-0.171l0.119,-0.172l0.119,-0.173l0.117,-0.173l0.117,-0.174l0.116,-0.175l0.115,-0.175l0.115,-0.175l0.114,-0.176l0.113,-0.177l0.113,-0.177l0.111,-0.178l0.111,-0.178l0.111,-0.178l0.109,-0.179l0.109,-0.18l0.107,-0.179l0.108,-0.18l0.106,-0.181l0.105,-0.18l0.105,-0.181l0.104,-0.181l0.103,-0.182l0.102,-0.182l0.102,-0.182l0.1,-0.182l0.1,-0.182l0.099,-0.183l0.098,-0.182l0.097,-0.183l0.096,-0.183l0.096,-0.183l0.094,-0.183l0.094,-0.183l0.06,-0.117l0.037,-0.064l0.103,-0.178l0.103,-0.177l0.101,-0.178l0.1,-0.178l0.099,-0.179l0.098,-0.178l0.097,-0.178l0.096,-0.179l0.094,-0.178l0.094,-0.178l0.092,-0.178l0.092,-0.179l0.09,-0.178l0.089,-0.178l0.088,-0.178l0.087,-0.177l0.086,-0.178l0.085,-0.177l0.083,-0.177l0.083,-0.177l0.081,-0.177l0.08,-0.176l0.079,-0.176l0.078,-0.176l0.076,-0.175l0.076,-0.175l0.074,-0.175l0.073,-0.174l0.072,-0.174l0.07,-0.173l0.07,-0.173l0.068,-0.172l0.067,-0.172l0.066,-0.171l0.064,-0.17l0.064,-0.17l0.062,-0.17l0.061,-0.168l0.059,-0.168l0.059,-0.168l0.057,-0.166l0.056,-0.166l0.055,-0.165l0.053,-0.165l0.052,-0.163l0.051,-0.163l0.05,-0.162l0.049,-0.161l0.048,-0.164l0.003,-0.009l0.736,-0.945l1.147,-0.185l0.019,0.005l0.923,0.708l0.198,1.181l-0.002,0.009l-0.037,0.175l-0.039,0.179l-0.04,0.18l-0.041,0.181l-0.042,0.181l-0.043,0.183l-0.044,0.183l-0.045,0.184l-0.046,0.186l-0.047,0.185l-0.047,0.187l-0.049,0.188l-0.049,0.188l-0.05,0.189l-0.051,0.19l-0.053,0.19l-0.052,0.191l-0.054,0.192l-0.055,0.193l-0.056,0.193l-0.056,0.194l-0.058,0.195l-0.058,0.195l-0.059,0.196l-0.06,0.197l-0.061,0.197l-0.061,0.197l-0.063,0.198l-0.063,0.199l-0.064,0.2l-0.065,0.199l-0.066,0.201l-0.067,0.201l-0.067,0.201l-0.068,0.202l-0.07,0.202l-0.069,0.203l-0.071,0.203l-0.072,0.203l-0.072,0.204l-0.073,0.204l-0.074,0.205l-0.075,0.205l-0.076,0.205l-0.076,0.206l-0.077,0.206l-0.078,0.206l-0.079,0.207l-0.08,0.207l-0.028,0.073l-0.059,0.13l-0.093,0.202l-0.094,0.201l-0.095,0.202l-0.095,0.201l-0.097,0.202l-0.097,0.202l-0.098,0.201l-0.1,0.202l-0.1,0.201l-0.101,0.201l-0.102,0.202l-0.103,0.201l-0.104,0.201l-0.105,0.2l-0.105,0.201l-0.107,0.2l-0.107,0.2l-0.109,0.2l-0.109,0.2l-0.11,0.199l-0.111,0.2l-0.112,0.198l-0.113,0.199l-0.114,0.198l-0.114,0.198l-0.116,0.197l-0.116,0.197l-0.117,0.197l-0.118,0.196l-0.119,0.196l-0.12,0.195l-0.121,0.195l-0.121,0.195l-0.123,0.194l-0.058,0.091l-0.066,0.102l-0.125,0.192l-0.126,0.192l-0.127,0.191l-0.128,0.19l-0.128,0.19l-0.13,0.189l-0.13,0.189l-0.131,0.187l-0.132,0.188l-0.133,0.186l-0.134,0.186l-0.135,0.185l-0.135,0.184l-0.136,0.184l-0.138,0.182l-0.138,0.182l-0.138,0.181l-0.14,0.18l-0.141,0.18l-0.141,0.178l-0.142,0.178l-0.144,0.177l-0.144,0.175l-0.144,0.175l-0.146,0.174l-0.147,0.173l-0.147,0.172l-0.148,0.17l-0.149,0.17l-0.15,0.169l-0.151,0.168l-0.152,0.166l-0.152,0.166l-0.154,0.164l-0.154,0.163l-0.155,0.162l-0.156,0.161l-0.157,0.16l-0.157,0.158l-0.07,0.069l-0.09,0.087l-0.162,0.153l-0.163,0.152l-0.164,0.15l-0.165,0.149l-0.165,0.148l-0.166,0.147l-0.167,0.145l-0.168,0.143l-0.169,0.142l-0.169,0.141l-0.171,0.139l-0.171,0.138l-0.172,0.136l-0.173,0.134l-0.174,0.133l-0.175,0.131l-0.175,0.13l-0.177,0.128l-0.177,0.127l-0.178,0.124l-0.179,0.123l-0.18,0.122l-0.181,0.119l-0.181,0.118l-0.183,0.116l-0.183,0.114l-0.184,0.112l-0.185,0.111l-0.186,0.108l-0.187,0.107l-0.188,0.104l-0.188,0.103l-0.19,0.1l-0.19,0.099l-0.191,0.096l-0.192,0.095l-0.193,0.092l-0.194,0.09l-0.195,0.088l-0.195,0.086l-0.197,0.083l-0.197,0.081l-0.198,0.079l-0.199,0.077l-0.2,0.074l-0.201,0.072l-0.201,0.069l-0.203,0.067l-0.203,0.065l-0.204,0.061l-0.205,0.06l-0.205,0.057l-0.207,0.054l-0.207,0.051l-0.208,0.049l-0.209,0.046l-0.209,0.044l-0.21,0.041l-0.015,0.002l-0.196,0.035l-0.212,0.034l-0.213,0.031l-0.213,0.029l-0.213,0.026l-0.214,0.022l-0.215,0.02l-0.216,0.017l-0.216,0.013l-0.216,0.011l-0.217,0.007l-0.218,0.004l-0.217,0.002l-0.219,-0.002l-0.218,-0.006l-0.219,-0.008l-0.22,-0.012l-0.22,-0.014l-0.22,-0.019l-0.22,-0.021l-0.22,-0.025l-0.221,-0.028l-0.221,-0.031l-0.221,-0.035l-0.221,-0.038l-0.222,-0.042l-0.221,-0.045l-0.222,-0.048l-0.221,-0.052l-0.222,-0.055l-0.221,-0.058l-0.222,-0.062l-0.221,-0.066l-0.221,-0.069l-0.222,-0.072l-0.221,-0.076l-0.221,-0.079l-0.221,-0.083l-0.22,-0.086l-0.221,-0.09l-0.22,-0.093l-0.22,-0.097l-0.22,-0.1l-0.219,-0.104l-0.219,-0.107l-0.219,-0.111l-0.219,-0.114l-0.218,-0.117l-0.219,-0.121l-0.217,-0.125l-0.218,-0.128l-0.217,-0.132l-0.217,-0.135l-0.216,-0.139l-0.217,-0.142l-0.215,-0.146l-0.216,-0.149l-0.201,-0.143l-0.014,-0.01l-0.213,-0.159l-0.212,-0.163l-0.212,-0.166l-0.211,-0.17l-0.211,-0.173l-0.211,-0.177l-0.21,-0.18l-0.21,-0.184l-0.209,-0.188l-0.209,-0.191l-0.209,-0.194l-0.208,-0.199l-0.208,-0.201l-0.207,-0.206l-0.208,-0.21l-0.118,-0.122l-0.118,-0.124l-0.116,-0.125l-0.115,-0.127l-0.114,-0.128l-0.113,-0.129l-0.111,-0.131l-0.11,-0.131l-0.109,-0.134l-0.107,-0.134l-0.107,-0.136l-0.105,-0.136l-0.103,-0.138l-0.103,-0.139l-0.101,-0.141l-0.1,-0.141l-0.099,-0.142l-0.098,-0.144l-0.096,-0.145l-0.095,-0.145l-0.094,-0.147l-0.093,-0.148l-0.091,-0.148l-0.091,-0.15l-0.089,-0.151l-0.088,-0.151l-0.087,-0.153l-0.085,-0.153l-0.085,-0.155l-0.083,-0.155l-0.082,-0.156l-0.081,-0.157l-0.08,-0.158l-0.078,-0.159l-0.078,-0.159l-0.076,-0.161l-0.075,-0.161l-0.074,-0.162l-0.073,-0.162l-0.072,-0.164l-0.07,-0.164l-0.07,-0.164l-0.068,-0.166l-0.067,-0.166l-0.066,-0.167l-0.065,-0.168l-0.043,-0.111l-0.021,-0.057l-0.063,-0.169l-0.061,-0.169l-0.06,-0.17l-0.059,-0.171l-0.058,-0.171l-0.057,-0.172l-0.056,-0.172l-0.055,-0.173l-0.053,-0.173l-0.053,-0.174l-0.051,-0.175l-0.05,-0.175l-0.049,-0.175l-0.048,-0.176l-0.047,-0.176l-0.045,-0.177l-0.045,-0.177l-0.043,-0.177l-0.042,-0.178l-0.041,-0.178l-0.04,-0.179l-0.039,-0.179l-0.037,-0.179l-0.037,-0.179l-0.035,-0.18l-0.035,-0.18l-0.033,-0.181l-0.032,-0.18l-0.03,-0.181l-0.03,-0.181l-0.028,-0.182l-0.028,-0.181l-0.026,-0.182l-0.025,-0.182l-0.024,-0.182l-0.023,-0.183l-0.021,-0.182l-0.021,-0.183l-0.019,-0.182l-0.009,-0.091l-0.009,-0.092l-0.018,-0.183l-0.016,-0.182l-0.016,-0.183l-0.014,-0.183l-0.013,-0.183l-0.011,-0.183l-0.011,-0.183l-0.009,-0.183l-0.008,-0.183l-0.007,-0.183l-0.006,-0.183l-0.005,-0.183l-0.003,-0.183l-0.002,-0.183l-0.001,-0.182l0,-0.183l0.002,-0.182l0.002,-0.183l0.004,-0.182l0.006,-0.182l0.006,-0.181l0.008,-0.182l0.009,-0.181l0.01,-0.182l0.011,-0.181l0.013,-0.18l0.014,-0.181l0.015,-0.18l0.017,-0.18l0.006,-0.062l0.011,-0.117l0.018,-0.18l0.019,-0.179l0.02,-0.179l0.022,-0.178l0.023,-0.178l0.024,-0.178l0.025,-0.177l0.027,-0.177l0.029,-0.176l0.029,-0.177l0.031,-0.175l0.032,-0.175l0.034,-0.175l0.035,-0.174l0.037,-0.174l0.037,-0.174l0.04,-0.172l0.04,-0.173l0.042,-0.171l0.043,-0.171l0.045,-0.171l0.046,-0.17l0.048,-0.169l0.049,-0.169l0.051,-0.168l0.052,-0.167l0.053,-0.167l0.055,-0.166l0.057,-0.166l0.057,-0.164l0.06,-0.164l0.061,-0.163l0.062,-0.163l0.064,-0.161l0.066,-0.161l0.067,-0.16l0.068,-0.159l0.07,-0.159l0.072,-0.157l0.073,-0.157l0.075,-0.155l0.077,-0.155l0.078,-0.154l0.079,-0.152l0.082,-0.152l0.082,-0.151l0.085,-0.15l0.086,-0.149l0.088,-0.147l0.09,-0.147l0.091,-0.145l0.093,-0.145l0.095,-0.143l0.096,-0.142l0.098,-0.14l0.1,-0.14l0.101,-0.138l0.104,-0.137l0.105,-0.136l0.106,-0.134l0.109,-0.133l0.11,-0.132l0.112,-0.13l0.114,-0.129l0.116,-0.127l0.117,-0.126l0.119,-0.124l0.121,-0.122l0.123,-0.121l0.124,-0.12l0.127,-0.118l0.128,-0.116l0.129,-0.114l0.132,-0.113l0.134,-0.111l0.135,-0.109l0.137,-0.107l0.139,-0.106l0.14,-0.103l0.142,-0.102l0.144,-0.099l0.146,-0.098l0.148,-0.096l0.149,-0.093l0.151,-0.092l0.153,-0.089l0.154,-0.088l0.156,-0.085l0.128,-0.067l0.03,-0.016l0.159,-0.081l0.161,-0.079l0.162,-0.076l0.165,-0.075l0.165,-0.072l0.168,-0.069l0.169,-0.068l0.17,-0.065l0.172,-0.062l0.174,-0.06l0.175,-0.058l0.176,-0.056l0.179,-0.053l0.179,-0.05l0.181,-0.048l0.182,-0.045l0.184,-0.043l0.186,-0.041l0.186,-0.038l0.188,-0.035l0.19,-0.033l0.19,-0.03l0.192,-0.028l0.194,-0.025l0.195,-0.023l0.196,-0.02l0.197,-0.017l0.199,-0.015l0.2,-0.012l0.201,-0.01l0.202,-0.006l0.204,-0.005l0.205,-0.001l0.206,0.001Zm-0.349,4.063l-0.151,0.004l-0.149,0.005l-0.147,0.007l-0.145,0.01l-0.144,0.011l-0.142,0.012l-0.14,0.015l-0.139,0.016l-0.137,0.018l-0.135,0.02l-0.133,0.022l-0.132,0.023l-0.131,0.025l-0.129,0.026l-0.127,0.028l-0.126,0.03l-0.124,0.031l-0.122,0.033l-0.122,0.034l-0.119,0.036l-0.119,0.038l-0.117,0.038l-0.115,0.041l-0.114,0.042l-0.113,0.043l-0.111,0.045l-0.111,0.046l-0.108,0.047l-0.108,0.049l-0.106,0.051l-0.105,0.051l-0.104,0.053l-0.02,0.011l-0.083,0.044l-0.101,0.056l-0.101,0.058l-0.099,0.059l-0.098,0.06l-0.097,0.061l-0.096,0.063l-0.094,0.064l-0.094,0.066l-0.093,0.067l-0.091,0.068l-0.091,0.07l-0.089,0.071l-0.089,0.072l-0.087,0.073l-0.087,0.075l-0.086,0.077l-0.084,0.077l-0.084,0.079l-0.083,0.08l-0.081,0.082l-0.081,0.083l-0.08,0.084l-0.079,0.085l-0.078,0.087l-0.077,0.088l-0.076,0.09l-0.076,0.091l-0.074,0.092l-0.073,0.093l-0.073,0.095l-0.071,0.096l-0.071,0.097l-0.07,0.098l-0.068,0.1l-0.068,0.101l-0.067,0.102l-0.066,0.104l-0.065,0.105l-0.064,0.106l-0.063,0.107l-0.062,0.108l-0.061,0.11l-0.06,0.111l-0.059,0.112l-0.059,0.113l-0.057,0.114l-0.056,0.116l-0.055,0.116l-0.055,0.118l-0.053,0.119l-0.052,0.12l-0.052,0.121l-0.05,0.122l-0.05,0.123l-0.048,0.124l-0.047,0.125l-0.047,0.126l-0.045,0.128l-0.044,0.128l-0.043,0.129l-0.043,0.13l-0.041,0.131l-0.04,0.132l-0.039,0.133l-0.038,0.133l-0.037,0.135l-0.036,0.135l-0.035,0.137l-0.034,0.137l-0.033,0.137l-0.032,0.139l-0.031,0.14l-0.03,0.14l-0.029,0.141l-0.027,0.141l-0.027,0.143l-0.025,0.143l-0.025,0.143l-0.023,0.145l-0.023,0.145l-0.021,0.145l-0.02,0.146l-0.02,0.147l-0.018,0.147l-0.017,0.148l-0.016,0.148l-0.015,0.149l-0.014,0.15l-0.009,0.098l-0.004,0.051l-0.01,0.151l-0.009,0.151l-0.009,0.151l-0.007,0.151l-0.006,0.152l-0.006,0.152l-0.004,0.153l-0.003,0.153l-0.002,0.153l-0.001,0.154l0,0.153l0.001,0.154l0.002,0.154l0.004,0.155l0.004,0.154l0.005,0.155l0.006,0.155l0.008,0.155l0.008,0.155l0.009,0.155l0.011,0.155l0.011,0.155l0.013,0.156l0.013,0.155l0.015,0.155l0.015,0.156l0.017,0.155l0.017,0.155l0.019,0.156l0.01,0.078l0.01,0.077l0.021,0.154l0.022,0.155l0.024,0.155l0.024,0.154l0.025,0.155l0.027,0.154l0.027,0.153l0.028,0.154l0.029,0.153l0.024,0.12l0.147,0.004l0.758,0.022l0.804,0.021l0.838,0.021l0.427,0.009l0.432,0.008l0.434,0.008l0.435,0.006l0.434,0.006l0.431,0.004l0.428,0.002l0.421,0.001l0.415,-0.001l0.406,-0.003l0.395,-0.005l0.382,-0.007l0.371,-0.01l0.176,-0.005l0.174,-0.007l0.17,-0.007l0.165,-0.007l0.159,-0.008l0.154,-0.009l0.149,-0.009l0.143,-0.01l0.136,-0.011l0.129,-0.011l0.123,-0.011l0.114,-0.012l0.107,-0.012l0.098,-0.013l0.09,-0.013l0.09,-0.014l0.09,-0.015l0.089,-0.016l0.088,-0.017l0.088,-0.018l0.088,-0.02l0.087,-0.02l0.087,-0.021l0.086,-0.023l0.086,-0.023l0.086,-0.025l0.085,-0.025l0.084,-0.027l0.084,-0.027l0.084,-0.029l0.083,-0.029l0.083,-0.031l0.082,-0.031l0.082,-0.033l0.082,-0.033l0.081,-0.034l0.081,-0.036l0.08,-0.036l0.08,-0.037l0.08,-0.038l0.079,-0.04l0.078,-0.04l0.079,-0.041l0.078,-0.042l0.077,-0.043l0.077,-0.043l0.076,-0.045l0.077,-0.046l0.075,-0.046l0.076,-0.048l0.074,-0.048l0.075,-0.049l0.074,-0.05l0.073,-0.051l0.073,-0.052l0.073,-0.053l0.072,-0.053l0.072,-0.054l0.071,-0.056l0.071,-0.056l0.07,-0.057l0.07,-0.057l0.069,-0.059l0.069,-0.059l0.068,-0.06l0.068,-0.061l0.067,-0.062l0.067,-0.063l0.066,-0.063l0.066,-0.064l0.065,-0.065l0.065,-0.065l0.064,-0.066l0.064,-0.067l0.063,-0.068l0.062,-0.069l0.062,-0.069l0.061,-0.07l0.061,-0.07l0.06,-0.071l0.06,-0.072l0.059,-0.073l0.059,-0.073l0.057,-0.074l0.058,-0.074l0.056,-0.075l0.056,-0.076l0.056,-0.076l0.055,-0.077l0.054,-0.077l0.053,-0.079l0.053,-0.078l0.052,-0.079l0.052,-0.08l0.051,-0.08l0.05,-0.081l0.05,-0.081l0.049,-0.082l0.048,-0.082l0.047,-0.082l0.047,-0.084l0.046,-0.083l0.046,-0.084l0.044,-0.085l0.045,-0.084l0.043,-0.086l0.042,-0.085l0.042,-0.086l0.041,-0.087l0.041,-0.087l0.039,-0.087l0.039,-0.087l0.039,-0.088l0.037,-0.088l0.037,-0.088l0.036,-0.089l0.035,-0.089l0.034,-0.089l0.034,-0.089l0.032,-0.09l0.033,-0.09l0.031,-0.09l0.03,-0.09l0.03,-0.091l0.029,-0.091l0.028,-0.091l0.027,-0.091l0.027,-0.091l0.025,-0.091l0.025,-0.091l0.024,-0.092l0.024,-0.091l0.022,-0.092l0.022,-0.092l0.02,-0.092l0.02,-0.092l0.019,-0.091l0.019,-0.092l0.017,-0.092l0.017,-0.092l0.016,-0.092l0.015,-0.092l0.014,-0.092l0.013,-0.091l0.012,-0.092l0.012,-0.091l0.011,-0.092l0.009,-0.091l0.009,-0.092l0.009,-0.091l0.007,-0.091l0.006,-0.091l0.006,-0.09l0.005,-0.091l0.004,-0.09l0.003,-0.09l0.002,-0.09l0.001,-0.09l0,-0.089l0,-0.089l-0.001,-0.089l-0.002,-0.089l-0.003,-0.088l-0.004,-0.088l-0.005,-0.088l-0.006,-0.087l-0.006,-0.087l-0.007,-0.087l-0.009,-0.087l-0.009,-0.086l-0.009,-0.085l-0.011,-0.086l-0.012,-0.084l-0.012,-0.085l-0.013,-0.084l-0.015,-0.084l-0.015,-0.083l-0.015,-0.083l-0.017,-0.082l-0.018,-0.082l-0.018,-0.082l-0.019,-0.081l-0.02,-0.08l-0.021,-0.08l-0.022,-0.08l-0.022,-0.079l-0.024,-0.078l-0.024,-0.078l-0.025,-0.078l-0.026,-0.077l-0.027,-0.076l-0.028,-0.076l-0.028,-0.076l-0.029,-0.075l-0.03,-0.074l-0.02,-0.047l-0.011,-0.027l-0.032,-0.073l-0.033,-0.072l-0.033,-0.072l-0.034,-0.072l-0.036,-0.071l-0.036,-0.07l-0.036,-0.07l-0.038,-0.069l-0.039,-0.068l-0.039,-0.068l-0.04,-0.068l-0.041,-0.066l-0.042,-0.067l-0.043,-0.065l-0.043,-0.065l-0.045,-0.065l-0.045,-0.064l-0.046,-0.063l-0.047,-0.063l-0.048,-0.062l-0.049,-0.061l-0.05,-0.061l-0.05,-0.06l-0.052,-0.06l-0.052,-0.059l-0.054,-0.059l-0.054,-0.058l-0.055,-0.057l-0.057,-0.057l-0.057,-0.056l-0.058,-0.056l-0.06,-0.055l-0.06,-0.054l-0.061,-0.054l-0.062,-0.053l-0.064,-0.053l-0.064,-0.052l-0.066,-0.051l-0.066,-0.051l-0.068,-0.05l-0.069,-0.049l-0.07,-0.049l-0.071,-0.049l-0.072,-0.047l-0.074,-0.047l-0.074,-0.046l-0.076,-0.046l-0.077,-0.045l-0.079,-0.044l-0.079,-0.044l-0.081,-0.043l-0.082,-0.042l-0.084,-0.041l-0.085,-0.041l-0.086,-0.04l-0.087,-0.039l-0.089,-0.039l-0.09,-0.038l-0.092,-0.037l-0.093,-0.036l-0.094,-0.035l-0.096,-0.034l-0.097,-0.034l-0.099,-0.033l-0.1,-0.032l-0.102,-0.031l-0.103,-0.03l-0.105,-0.029l-0.106,-0.028l-0.108,-0.028l-0.11,-0.026l-0.11,-0.025l-0.113,-0.025l-0.114,-0.023l-0.184,-0.035l-0.181,-0.034l-0.18,-0.03l-0.178,-0.029l-0.177,-0.026l-0.174,-0.024l-0.173,-0.021l-0.17,-0.02l-0.169,-0.017l-0.167,-0.015l-0.165,-0.013l-0.163,-0.011l-0.162,-0.008l-0.159,-0.007l-0.158,-0.004l-0.156,-0.003l-0.154,0l-0.152,0.001Z" style="fill:#fff;"/><path d="M222.26,11.764l0.547,1.185l0.545,1.172l0.546,1.169l0.548,1.166l0.548,1.163l0.549,1.161l0.574,1.211l0.522,1.106l0.546,1.156l0.544,1.155l0.543,1.153l0.541,1.153l0.539,1.151l0.268,0.576l0.268,0.575l0.267,0.576l0.265,0.575l0.265,0.575l0.228,0.496l0.035,0.08l0.255,0.579l0.254,0.579l0.252,0.579l0.251,0.579l0.25,0.58l0.248,0.579l0.247,0.58l0.246,0.58l0.244,0.58l0.242,0.58l0.241,0.581l0.239,0.581l0.237,0.582l0.236,0.581l0.233,0.583l0.232,0.582l0.23,0.583l0.228,0.584l0.226,0.584l0.223,0.585l0.222,0.585l0.219,0.585l0.209,0.564l0.008,0.023l0.214,0.587l0.211,0.588l0.209,0.589l0.206,0.589l0.204,0.591l0.201,0.59l0.199,0.592l0.195,0.593l0.194,0.593l0.19,0.594l0.187,0.594l0.093,0.299l0.092,0.298l0.091,0.298l0.091,0.299l0.09,0.298l0.089,0.299l0.088,0.3l0.087,0.299l0.087,0.3l0.086,0.3l0.085,0.3l0.085,0.3l0.083,0.301l0.083,0.301l0.082,0.301l0.081,0.302l0.08,0.302l0.08,0.302l0.078,0.302l0.078,0.303l0.077,0.303l0.076,0.303l0.075,0.303l0.074,0.304l0.074,0.304l0.072,0.304l0.072,0.305l0.071,0.305l0.028,0.125l0.041,0.18l0.068,0.306l0.067,0.306l0.066,0.307l0.065,0.306l0.065,0.307l0.063,0.307l0.062,0.308l0.062,0.308l0.06,0.308l0.06,0.309l0.058,0.309l0.058,0.309l0.056,0.31l0.056,0.31l0.054,0.31l0.054,0.311l0.052,0.311l0.051,0.311l0.051,0.311l0.049,0.313l0.048,0.312l0.048,0.313l0.046,0.313l0.045,0.313l0.044,0.314l0.043,0.314l0.042,0.315l0.04,0.315l0.04,0.315l0.039,0.316l0.037,0.316l0.036,0.316l0.036,0.317l0.034,0.317l0.032,0.318l0.032,0.318l0.031,0.318l0.029,0.319l0.028,0.319l0.028,0.32l0.025,0.32l0.025,0.32l0.024,0.321l0.022,0.321l0.021,0.322l0.02,0.322l0.019,0.322l0.017,0.323l0.016,0.323l0.015,0.324l0.014,0.324l0.012,0.325l0.012,0.325l0.009,0.325l0.009,0.326l0.007,0.327l0.007,0.326l0.004,0.328l0.004,0.327l0.002,0.328l0.001,0.329l-0.001,0.329l-0.001,0.329l-0.003,0.33l-0.005,0.331l-0.006,0.331l-0.007,0.331l-0.008,0.332l-0.01,0.332l-0.012,0.333l-0.012,0.333l-0.014,0.334l-0.016,0.334l-0.016,0.334l-0.019,0.335l-0.019,0.336l-0.021,0.336l-0.023,0.337l-0.024,0.337l-0.025,0.337l-0.027,0.338l-0.028,0.339l-0.029,0.339l-0.032,0.339l-0.032,0.341l-0.034,0.34l-0.036,0.341l-0.037,0.342l-0.038,0.342l-0.04,0.342l-0.007,0.059l-0.035,0.284l-0.044,0.344l-0.044,0.344l-0.047,0.345l-0.048,0.348l-0.029,0.197l-0.032,0.203l-0.034,0.206l-0.036,0.21l-0.038,0.212l-0.041,0.216l-0.044,0.218l-0.045,0.221l-0.048,0.224l-0.05,0.227l-0.052,0.229l-0.055,0.233l-0.057,0.234l-0.059,0.237l-0.061,0.24l-0.064,0.241l-0.065,0.244l-0.069,0.247l-0.07,0.248l-0.072,0.25l-0.075,0.252l-0.077,0.254l-0.079,0.255l-0.081,0.257l-0.084,0.259l-0.086,0.26l-0.088,0.261l-0.09,0.263l-0.092,0.263l-0.095,0.265l-0.096,0.266l-0.099,0.266l-0.101,0.268l-0.103,0.268l-0.106,0.268l-0.107,0.269l-0.11,0.27l-0.112,0.27l-0.114,0.269l-0.116,0.271l-0.119,0.27l-0.12,0.27l-0.123,0.269l-0.125,0.27l-0.127,0.269l-0.13,0.269l-0.131,0.268l-0.134,0.267l-0.136,0.267l-0.138,0.266l-0.14,0.265l-0.142,0.264l-0.145,0.262l-0.147,0.262l-0.149,0.26l-0.038,0.064l-0.114,0.195l-0.154,0.257l-0.156,0.255l-0.159,0.254l-0.161,0.252l-0.163,0.249l-0.165,0.248l-0.168,0.246l-0.169,0.241l-0.087,0.124l-0.087,0.12l-0.087,0.12l-0.088,0.119l-0.088,0.119l-0.089,0.117l-0.09,0.118l-0.09,0.116l-0.091,0.116l-0.091,0.115l-0.092,0.115l-0.093,0.114l-0.093,0.113l-0.094,0.112l-0.095,0.112l-0.095,0.111l-0.096,0.11l-0.096,0.109l-0.097,0.108l-0.098,0.108l-0.099,0.107l-0.099,0.106l-0.1,0.105l-0.1,0.104l-0.102,0.103l-0.101,0.103l-0.103,0.101l-0.103,0.101l-0.104,0.099l-0.105,0.099l-0.106,0.098l-0.106,0.096l-0.107,0.096l-0.107,0.094l-0.109,0.094l-0.109,0.093l-0.11,0.091l-0.11,0.09l-0.112,0.089l-0.112,0.088l-0.113,0.087l-0.113,0.086l-0.115,0.085l-0.115,0.083l-0.116,0.082l-0.117,0.081l-0.118,0.079l-0.118,0.079l-0.119,0.076l-0.12,0.076l-0.121,0.074l-0.122,0.073l-0.123,0.071l-0.123,0.07l-0.124,0.069l-0.125,0.067l-0.126,0.065l-0.127,0.064l-0.128,0.063l-0.128,0.06l-0.129,0.06l-0.131,0.057l-0.13,0.056l-0.132,0.054l-0.133,0.053l-0.133,0.05l-0.134,0.049l-0.135,0.047l-0.136,0.045l-0.137,0.044l-0.137,0.041l-0.138,0.039l-0.139,0.038l-0.14,0.036l-0.14,0.033l-0.141,0.032l-0.142,0.029l-0.142,0.027l-0.143,0.026l-0.144,0.023l-0.144,0.021l-0.145,0.018l-0.143,0.016l-0.002,0.001l-0.146,0.013l-0.147,0.011l-0.147,0.009l-0.148,0.007l-0.148,0.004l-0.148,0.002l-0.149,0l-0.149,-0.003l-0.149,-0.005l-0.15,-0.008l-0.15,-0.01l-0.15,-0.012l-0.151,-0.015l-0.151,-0.017l-0.15,-0.019l-0.151,-0.022l-0.152,-0.025l-0.151,-0.027l-0.151,-0.029l-0.152,-0.032l-0.151,-0.034l-0.152,-0.037l-0.152,-0.039l-0.151,-0.041l-0.152,-0.044l-0.151,-0.047l-0.152,-0.049l-0.151,-0.051l-0.151,-0.054l-0.152,-0.056l-0.151,-0.059l-0.151,-0.061l-0.151,-0.063l-0.151,-0.066l-0.15,-0.068l-0.151,-0.071l-0.151,-0.073l-0.15,-0.076l-0.15,-0.078l-0.15,-0.08l-0.15,-0.083l-0.15,-0.085l-0.082,-0.048l-0.067,-0.04l-0.15,-0.09l-0.15,-0.094l-0.157,-0.1l-0.156,-0.103l-0.154,-0.106l-0.152,-0.107l-0.151,-0.11l-0.148,-0.112l-0.147,-0.114l-0.145,-0.116l-0.142,-0.117l-0.141,-0.12l-0.139,-0.122l-0.138,-0.123l-0.135,-0.126l-0.133,-0.127l-0.132,-0.129l-0.129,-0.131l-0.128,-0.132l-0.126,-0.134l-0.124,-0.136l-0.122,-0.137l-0.12,-0.139l-0.119,-0.141l-0.116,-0.142l-0.115,-0.144l-0.113,-0.145l-0.111,-0.146l-0.109,-0.148l-0.107,-0.149l-0.106,-0.151l-0.104,-0.152l-0.102,-0.154l-0.1,-0.154l-0.098,-0.156l-0.097,-0.157l-0.095,-0.159l-0.093,-0.159l-0.092,-0.161l-0.089,-0.162l-0.088,-0.163l-0.087,-0.164l-0.084,-0.165l-0.083,-0.167l-0.082,-0.167l-0.079,-0.169l-0.078,-0.169l-0.033,-0.073l-0.043,-0.097l-0.075,-0.172l-0.073,-0.172l-0.072,-0.173l-0.07,-0.175l-0.068,-0.175l-0.067,-0.176l-0.065,-0.176l-0.063,-0.178l-0.062,-0.178l-0.061,-0.18l-0.058,-0.18l-0.058,-0.181l-0.055,-0.181l-0.055,-0.183l-0.052,-0.183l-0.052,-0.184l-0.049,-0.184l-0.049,-0.185l-0.046,-0.186l-0.046,-0.187l-0.043,-0.187l-0.043,-0.187l-0.041,-0.189l-0.039,-0.189l-0.038,-0.189l-0.036,-0.19l-0.036,-0.191l-0.033,-0.191l-0.032,-0.191l-0.031,-0.192l-0.029,-0.193l-0.028,-0.193l-0.027,-0.193l-0.025,-0.194l-0.024,-0.195l-0.022,-0.194l-0.021,-0.195l-0.02,-0.196l-0.018,-0.195l-0.017,-0.197l-0.015,-0.196l-0.014,-0.197l-0.013,-0.197l-0.012,-0.197l-0.01,-0.198l-0.008,-0.197l-0.008,-0.198l-0.006,-0.199l-0.004,-0.198l-0.004,-0.199l-0.002,-0.198l-0.001,-0.199l0.001,-0.199l0.002,-0.199l0.003,-0.2l0.005,-0.199l0.006,-0.2l0.007,-0.199l0.008,-0.2l0.01,-0.199l0.011,-0.2l0.012,-0.199l0.014,-0.2l0.015,-0.199l0.016,-0.2l0.018,-0.199l0.019,-0.2l0.02,-0.199l0.021,-0.199l0.023,-0.199l0.003,-0.025l0.02,-0.174l0.024,-0.199l0.025,-0.198l0.026,-0.199l0.028,-0.198l0.029,-0.198l0.031,-0.198l0.031,-0.198l0.033,-0.197l0.034,-0.197l0.036,-0.197l0.036,-0.196l0.038,-0.196l0.039,-0.196l0.041,-0.196l0.041,-0.195l0.043,-0.195l0.045,-0.194l0.045,-0.194l0.047,-0.193l0.048,-0.193l0.049,-0.193l0.05,-0.192l0.052,-0.192l0.053,-0.191l0.054,-0.191l0.055,-0.19l0.057,-0.189l0.058,-0.189l0.059,-0.188l0.06,-0.188l0.061,-0.187l0.063,-0.187l0.064,-0.185l0.066,-0.186l0.066,-0.184l0.068,-0.184l0.069,-0.183l0.07,-0.182l0.072,-0.182l0.072,-0.181l0.074,-0.18l0.076,-0.179l0.076,-0.178l0.078,-0.178l0.079,-0.176l0.08,-0.176l0.082,-0.175l0.082,-0.174l0.084,-0.173l0.085,-0.173l0.087,-0.171l0.088,-0.17l0.089,-0.17l0.09,-0.168l0.091,-0.167l0.093,-0.166l0.094,-0.166l0.095,-0.164l0.097,-0.163l0.098,-0.162l0.099,-0.161l0.1,-0.159l0.102,-0.159l0.103,-0.157l0.104,-0.156l0.106,-0.155l0.107,-0.154l0.108,-0.152l0.109,-0.151l0.111,-0.15l0.112,-0.149l0.113,-0.147l0.115,-0.146l0.116,-0.144l0.117,-0.143l0.119,-0.142l0.12,-0.14l0.121,-0.139l0.122,-0.137l0.124,-0.136l0.125,-0.134l0.127,-0.133l0.128,-0.131l0.129,-0.13l0.131,-0.127l0.132,-0.127l0.133,-0.124l0.134,-0.123l0.136,-0.121l0.138,-0.12l0.138,-0.118l0.14,-0.115l0.142,-0.115l0.143,-0.112l0.144,-0.11l0.145,-0.108l0.147,-0.107l0.148,-0.105l0.15,-0.102l0.15,-0.101l0.153,-0.098l0.153,-0.097l0.155,-0.094l0.156,-0.092l0.158,-0.09l0.159,-0.088l0.16,-0.086l0.161,-0.083l0.163,-0.081l0.164,-0.079l0.166,-0.077l0.166,-0.074l0.168,-0.071l0.169,-0.07l0.171,-0.067l0.171,-0.064l0.173,-0.062l0.174,-0.059l0.175,-0.057l0.177,-0.054l0.177,-0.052l0.179,-0.048l0.179,-0.047l0.065,-0.015l0.116,-0.028l0.182,-0.041l0.183,-0.038l0.184,-0.036l0.185,-0.033l0.186,-0.029l0.187,-0.027l0.188,-0.025l0.189,-0.021l0.19,-0.018l0.19,-0.016l0.192,-0.013l0.193,-0.009l0.193,-0.007l0.194,-0.004l0.192,-0.001l0.216,0.002l0.211,0.004l0.21,0.005l0.207,0.007l0.206,0.009l0.204,0.011l0.203,0.012l0.2,0.015l0.199,0.016l0.197,0.018l0.196,0.019l0.194,0.022l0.192,0.023l0.19,0.025l0.189,0.027l0.187,0.028l0.185,0.03l0.184,0.032l0.182,0.034l0.18,0.035l0.179,0.037l0.177,0.039l0.176,0.041l0.174,0.042l0.172,0.044l0.17,0.045l0.169,0.048l0.168,0.048l0.166,0.051l0.164,0.052l0.162,0.054l0.161,0.055l0.16,0.057l0.157,0.059l0.156,0.06l0.155,0.062l0.153,0.064l0.151,0.065l0.15,0.066l0.148,0.068l0.146,0.07l0.145,0.071l0.143,0.073l0.142,0.074l0.14,0.075l0.138,0.077l0.137,0.079l0.135,0.08l0.133,0.081l0.132,0.083l0.13,0.084l0.129,0.085l0.127,0.087l0.125,0.088l0.124,0.089l0.122,0.091l0.12,0.092l0.119,0.093l0.117,0.094l0.116,0.096l0.114,0.096l0.112,0.098l0.111,0.099l0.109,0.1l0.108,0.101l0.105,0.102l0.105,0.104l0.103,0.104l0.083,0.086l-0.001,-0.024l-0.009,-0.309l-0.009,-0.308l-0.011,-0.308l-0.013,-0.308l-0.013,-0.308l-0.015,-0.307l-0.015,-0.307l-0.017,-0.306l-0.018,-0.306l-0.02,-0.306l-0.02,-0.305l-0.022,-0.305l-0.022,-0.305l-0.024,-0.304l-0.025,-0.304l-0.026,-0.303l-0.027,-0.304l-0.028,-0.303l-0.03,-0.302l-0.03,-0.303l-0.032,-0.302l-0.033,-0.301l-0.033,-0.302l-0.035,-0.301l-0.036,-0.301l-0.037,-0.3l-0.038,-0.3l-0.039,-0.3l-0.04,-0.3l-0.042,-0.299l-0.042,-0.299l-0.043,-0.299l-0.044,-0.299l-0.046,-0.298l-0.046,-0.298l-0.047,-0.298l-0.049,-0.297l-0.049,-0.297l-0.05,-0.297l-0.052,-0.297l-0.052,-0.296l-0.053,-0.296l-0.054,-0.296l-0.055,-0.296l-0.057,-0.296l-0.057,-0.295l-0.058,-0.295l-0.059,-0.295l-0.059,-0.294l-0.061,-0.294l-0.062,-0.295l-0.063,-0.293l-0.063,-0.294l-0.065,-0.294l-0.038,-0.173l-0.027,-0.12l-0.065,-0.293l-0.066,-0.293l-0.067,-0.293l-0.068,-0.293l-0.069,-0.293l-0.07,-0.292l-0.07,-0.292l-0.072,-0.292l-0.072,-0.292l-0.073,-0.292l-0.074,-0.291l-0.075,-0.292l-0.076,-0.291l-0.076,-0.291l-0.077,-0.291l-0.078,-0.29l-0.079,-0.291l-0.08,-0.29l-0.08,-0.291l-0.081,-0.29l-0.082,-0.29l-0.083,-0.29l-0.084,-0.289l-0.084,-0.29l-0.085,-0.29l-0.086,-0.289l-0.086,-0.289l-0.087,-0.288l-0.178,-0.579l-0.179,-0.578l-0.183,-0.577l-0.185,-0.577l-0.188,-0.576l-0.19,-0.576l-0.194,-0.575l-0.196,-0.576l-0.198,-0.575l-0.201,-0.575l-0.203,-0.574l-0.008,-0.022l-0.197,-0.553l-0.207,-0.575l-0.209,-0.574l-0.211,-0.575l-0.214,-0.574l-0.216,-0.574l-0.218,-0.574l-0.219,-0.574l-0.222,-0.574l-0.224,-0.574l-0.226,-0.574l-0.228,-0.574l-0.23,-0.574l-0.231,-0.575l-0.233,-0.574l-0.235,-0.574l-0.236,-0.575l-0.238,-0.574l-0.24,-0.575l-0.241,-0.575l-0.242,-0.576l-0.244,-0.575l-0.245,-0.576l-0.035,-0.08l-0.205,-0.499l-0.24,-0.58l-0.241,-0.581l-0.242,-0.58l-0.243,-0.581l-0.245,-0.581l-0.493,-1.164l-0.496,-1.165l-0.501,-1.168l-0.503,-1.169l-0.507,-1.171l-0.486,-1.122l-0.532,-1.229l-0.51,-1.179l-0.513,-1.182l-0.513,-1.186l-0.513,-1.188l-0.514,-1.191l-0.513,-1.193l-0.004,-0.009l-0.023,-1.21l0.808,-0.872l0.018,-0.008l1.189,-0.018l0.884,0.826Zm5.824,63.893l-0.139,0.003l-0.139,0.005l-0.138,0.008l-0.136,0.009l-0.136,0.012l-0.135,0.014l-0.134,0.015l-0.133,0.018l-0.132,0.019l-0.131,0.022l-0.13,0.024l-0.129,0.025l-0.129,0.028l-0.128,0.029l-0.081,0.02l-0.046,0.011l-0.126,0.033l-0.125,0.035l-0.125,0.037l-0.124,0.039l-0.123,0.041l-0.122,0.042l-0.122,0.045l-0.121,0.046l-0.12,0.048l-0.12,0.05l-0.119,0.051l-0.118,0.053l-0.117,0.056l-0.117,0.057l-0.116,0.058l-0.116,0.061l-0.115,0.062l-0.114,0.064l-0.114,0.066l-0.113,0.067l-0.112,0.07l-0.112,0.071l-0.111,0.073l-0.11,0.074l-0.11,0.076l-0.109,0.078l-0.109,0.08l-0.107,0.081l-0.108,0.083l-0.106,0.085l-0.106,0.086l-0.105,0.088l-0.105,0.09l-0.103,0.091l-0.104,0.093l-0.102,0.095l-0.102,0.096l-0.101,0.098l-0.1,0.1l-0.1,0.101l-0.099,0.102l-0.098,0.105l-0.098,0.105l-0.097,0.108l-0.096,0.108l-0.095,0.111l-0.095,0.112l-0.093,0.113l-0.093,0.115l-0.093,0.116l-0.091,0.118l-0.091,0.119l-0.09,0.12l-0.089,0.122l-0.088,0.124l-0.087,0.124l-0.087,0.126l-0.085,0.128l-0.085,0.129l-0.084,0.13l-0.084,0.131l-0.082,0.132l-0.081,0.134l-0.081,0.135l-0.08,0.137l-0.078,0.137l-0.078,0.139l-0.077,0.14l-0.076,0.141l-0.076,0.142l-0.074,0.143l-0.073,0.145l-0.073,0.145l-0.071,0.147l-0.071,0.147l-0.069,0.149l-0.069,0.149l-0.068,0.151l-0.066,0.152l-0.066,0.152l-0.065,0.154l-0.063,0.154l-0.063,0.155l-0.062,0.156l-0.061,0.157l-0.06,0.158l-0.058,0.159l-0.058,0.159l-0.057,0.161l-0.056,0.161l-0.054,0.161l-0.054,0.163l-0.053,0.163l-0.051,0.164l-0.051,0.165l-0.049,0.165l-0.049,0.166l-0.047,0.166l-0.047,0.167l-0.045,0.168l-0.044,0.168l-0.044,0.169l-0.042,0.169l-0.041,0.17l-0.04,0.17l-0.039,0.171l-0.038,0.171l-0.036,0.171l-0.036,0.172l-0.035,0.173l-0.033,0.172l-0.033,0.173l-0.031,0.174l-0.03,0.173l-0.029,0.174l-0.028,0.175l-0.027,0.174l-0.026,0.175l-0.024,0.175l-0.024,0.175l-0.022,0.175l-0.022,0.175l-0.02,0.176l-0.016,0.153l-0.003,0.023l-0.016,0.175l-0.016,0.176l-0.014,0.176l-0.014,0.176l-0.012,0.176l-0.011,0.176l-0.01,0.176l-0.009,0.176l-0.007,0.176l-0.007,0.175l-0.005,0.176l-0.004,0.175l-0.003,0.176l-0.002,0.175l-0.001,0.175l0.001,0.174l0.001,0.175l0.003,0.174l0.004,0.174l0.005,0.173l0.006,0.174l0.007,0.173l0.009,0.172l0.01,0.172l0.01,0.172l0.012,0.172l0.014,0.171l0.014,0.17l0.015,0.17l0.017,0.17l0.018,0.169l0.019,0.168l0.02,0.168l0.021,0.168l0.023,0.167l0.023,0.166l0.025,0.165l0.026,0.165l0.027,0.164l0.028,0.164l0.03,0.163l0.03,0.162l0.032,0.161l0.033,0.161l0.034,0.159l0.035,0.159l0.036,0.159l0.038,0.157l0.038,0.156l0.04,0.156l0.041,0.154l0.042,0.154l0.043,0.153l0.044,0.152l0.045,0.151l0.047,0.149l0.047,0.149l0.049,0.148l0.05,0.147l0.051,0.145l0.052,0.145l0.053,0.143l0.054,0.143l0.055,0.141l0.057,0.14l0.057,0.139l0.059,0.137l0.059,0.137l0.061,0.135l0.062,0.134l0.036,0.075l0.027,0.057l0.064,0.132l0.065,0.13l0.066,0.129l0.067,0.127l0.068,0.126l0.069,0.125l0.07,0.123l0.071,0.122l0.072,0.121l0.073,0.119l0.074,0.117l0.075,0.117l0.077,0.115l0.077,0.113l0.078,0.112l0.079,0.11l0.08,0.109l0.081,0.108l0.082,0.105l0.082,0.105l0.084,0.103l0.085,0.101l0.086,0.1l0.086,0.098l0.088,0.097l0.088,0.095l0.09,0.094l0.09,0.092l0.092,0.09l0.092,0.089l0.093,0.087l0.094,0.086l0.095,0.084l0.096,0.082l0.097,0.081l0.098,0.08l0.099,0.077l0.1,0.076l0.1,0.075l0.102,0.073l0.103,0.071l0.104,0.07l0.104,0.068l0.106,0.067l0.108,0.065l0.108,0.064l0.108,0.062l0.048,0.027l0.059,0.033l0.106,0.058l0.106,0.056l0.105,0.053l0.103,0.052l0.103,0.05l0.103,0.047l0.101,0.046l0.101,0.043l0.099,0.042l0.099,0.039l0.099,0.038l0.097,0.036l0.097,0.034l0.096,0.032l0.095,0.03l0.094,0.029l0.094,0.027l0.092,0.025l0.093,0.023l0.091,0.022l0.091,0.02l0.09,0.019l0.089,0.017l0.089,0.016l0.088,0.014l0.088,0.012l0.086,0.011l0.087,0.01l0.086,0.008l0.085,0.007l0.085,0.005l0.084,0.004l0.084,0.003l0.083,0.001l0.084,0l0.082,-0.001l0.083,-0.003l0.082,-0.004l0.081,-0.005l0.082,-0.007l0.081,-0.007l0.081,-0.009l0.001,0l0.079,-0.01l0.081,-0.01l0.08,-0.012l0.081,-0.013l0.08,-0.015l0.08,-0.015l0.08,-0.017l0.08,-0.018l0.079,-0.02l0.08,-0.02l0.08,-0.022l0.08,-0.023l0.079,-0.025l0.08,-0.025l0.08,-0.027l0.08,-0.028l0.079,-0.029l0.08,-0.031l0.08,-0.032l0.08,-0.033l0.08,-0.034l0.08,-0.036l0.08,-0.037l0.08,-0.038l0.08,-0.04l0.08,-0.04l0.08,-0.042l0.08,-0.043l0.08,-0.045l0.08,-0.046l0.081,-0.047l0.08,-0.048l0.08,-0.05l0.08,-0.051l0.081,-0.052l0.08,-0.053l0.08,-0.055l0.08,-0.056l0.081,-0.057l0.08,-0.058l0.08,-0.059l0.08,-0.061l0.08,-0.062l0.08,-0.063l0.08,-0.065l0.08,-0.065l0.079,-0.067l0.08,-0.068l0.08,-0.069l0.079,-0.071l0.079,-0.071l0.08,-0.073l0.079,-0.073l0.079,-0.075l0.078,-0.076l0.079,-0.077l0.079,-0.078l0.078,-0.079l0.078,-0.081l0.078,-0.081l0.078,-0.082l0.078,-0.084l0.077,-0.084l0.077,-0.086l0.077,-0.086l0.077,-0.087l0.076,-0.089l0.077,-0.089l0.076,-0.091l0.076,-0.091l0.075,-0.092l0.075,-0.093l0.075,-0.094l0.075,-0.095l0.075,-0.095l0.074,-0.097l0.074,-0.097l0.074,-0.099l0.073,-0.099l0.073,-0.099l0.073,-0.101l0.072,-0.101l0.071,-0.1l0.145,-0.209l0.142,-0.21l0.14,-0.212l0.14,-0.215l0.137,-0.217l0.137,-0.22l0.135,-0.222l0.133,-0.224l0.1,-0.17l0.032,-0.056l0.131,-0.228l0.129,-0.23l0.128,-0.232l0.126,-0.233l0.125,-0.235l0.122,-0.236l0.121,-0.238l0.12,-0.238l0.117,-0.24l0.116,-0.241l0.114,-0.241l0.113,-0.242l0.11,-0.243l0.109,-0.244l0.107,-0.243l0.105,-0.244l0.104,-0.245l0.101,-0.244l0.099,-0.244l0.098,-0.244l0.096,-0.243l0.093,-0.244l0.092,-0.242l0.09,-0.242l0.088,-0.242l0.086,-0.24l0.084,-0.239l0.082,-0.239l0.079,-0.237l0.078,-0.235l0.076,-0.235l0.074,-0.232l0.071,-0.231l0.07,-0.23l0.067,-0.227l0.066,-0.225l0.063,-0.223l0.061,-0.221l0.059,-0.218l0.057,-0.216l0.054,-0.213l0.053,-0.21l0.05,-0.208l0.048,-0.204l0.046,-0.201l0.044,-0.198l0.041,-0.194l0.039,-0.191l0.038,-0.186l0.034,-0.183l0.033,-0.179l0.03,-0.175l0.028,-0.17l0.026,-0.166l0.024,-0.164l0.045,-0.325l0.044,-0.327l0.043,-0.327l0.041,-0.326l0.034,-0.27l0.006,-0.055l0.039,-0.326l0.038,-0.324l0.036,-0.324l0.034,-0.324l0.033,-0.323l0.032,-0.322l0.031,-0.323l0.029,-0.321l0.027,-0.321l0.026,-0.321l0.025,-0.32l0.024,-0.32l0.022,-0.319l0.021,-0.319l0.007,-0.118l-0.005,-0.017l-0.034,-0.106l-0.035,-0.106l-0.035,-0.106l-0.036,-0.104l-0.037,-0.105l-0.037,-0.104l-0.038,-0.103l-0.039,-0.102l-0.039,-0.102l-0.041,-0.102l-0.04,-0.101l-0.042,-0.1l-0.042,-0.099l-0.043,-0.099l-0.044,-0.099l-0.044,-0.097l-0.045,-0.097l-0.046,-0.097l-0.047,-0.095l-0.047,-0.095l-0.048,-0.095l-0.049,-0.093l-0.05,-0.093l-0.05,-0.092l-0.051,-0.091l-0.052,-0.091l-0.053,-0.09l-0.054,-0.089l-0.054,-0.089l-0.055,-0.087l-0.056,-0.087l-0.057,-0.086l-0.058,-0.086l-0.058,-0.084l-0.06,-0.084l-0.06,-0.083l-0.061,-0.082l-0.062,-0.082l-0.063,-0.081l-0.064,-0.079l-0.064,-0.08l-0.066,-0.078l-0.066,-0.077l-0.068,-0.077l-0.068,-0.076l-0.069,-0.075l-0.071,-0.074l-0.071,-0.074l-0.072,-0.073l-0.073,-0.071l-0.075,-0.072l-0.075,-0.07l-0.076,-0.069l-0.078,-0.069l-0.078,-0.068l-0.08,-0.067l-0.081,-0.066l-0.082,-0.065l-0.083,-0.065l-0.084,-0.064l-0.085,-0.063l-0.087,-0.062l-0.088,-0.061l-0.089,-0.06l-0.091,-0.06l-0.091,-0.059l-0.094,-0.058l-0.094,-0.057l-0.096,-0.056l-0.097,-0.055l-0.099,-0.055l-0.1,-0.053l-0.101,-0.053l-0.103,-0.051l-0.105,-0.051l-0.106,-0.05l-0.107,-0.049l-0.109,-0.048l-0.111,-0.047l-0.112,-0.046l-0.114,-0.045l-0.116,-0.044l-0.117,-0.043l-0.119,-0.043l-0.121,-0.041l-0.122,-0.04l-0.125,-0.039l-0.126,-0.037l-0.127,-0.037l-0.13,-0.036l-0.131,-0.034l-0.133,-0.034l-0.136,-0.032l-0.137,-0.031l-0.138,-0.03l-0.141,-0.028l-0.143,-0.028l-0.145,-0.026l-0.146,-0.025l-0.149,-0.023l-0.151,-0.023l-0.152,-0.021l-0.155,-0.019l-0.157,-0.019l-0.159,-0.017l-0.16,-0.015l-0.163,-0.014l-0.165,-0.013l-0.167,-0.011l-0.17,-0.01l-0.171,-0.009l-0.173,-0.007l-0.176,-0.005l-0.178,-0.004l-0.18,-0.002l-0.179,-0.001l-0.144,0.002Z" style="fill:#fff;"/><path d="M201.414,56.487l1.462,0.678l0.566,1.51l0,0.01l-0.011,0.279l-0.013,0.342l-0.025,0.621l-0.026,0.621l-0.027,0.62l-0.028,0.619l-0.029,0.619l-0.029,0.618l-0.031,0.617l-0.063,1.231l-0.065,1.229l-0.067,1.226l-0.068,1.223l-0.137,2.439l-0.068,1.217l-0.066,1.214l-0.066,1.212l-0.063,1.211l-0.03,0.604l-0.03,0.605l-0.029,0.603l-0.028,0.604l-0.027,0.603l-0.026,0.603l-0.025,0.602l-0.024,0.602l-0.023,0.602l-0.021,0.602l-0.02,0.601l-0.019,0.601l-0.017,0.601l-0.015,0.601l-0.014,0.601l-0.012,0.6l-0.011,0.6l-0.004,0.29l-0.005,0.31l-0.007,0.6l-0.005,0.6l-0.003,0.6l-0.001,0.6l0.001,0.6l0.003,0.6l0.005,0.599l0.008,0.6l0.01,0.6l0.013,0.6l0.016,0.6l0.017,0.6l0.021,0.6l0.023,0.6l0.027,0.601l0.029,0.602l0.015,0.299l0.017,0.3l0.017,0.301l0.018,0.3l0.02,0.328l0.021,0.322l0.021,0.318l0.023,0.312l0.022,0.309l0.024,0.304l0.024,0.3l0.024,0.295l0.025,0.292l0.025,0.288l0.026,0.283l0.027,0.281l0.027,0.276l0.027,0.274l0.028,0.27l0.028,0.267l0.029,0.264l0.029,0.259l0.059,0.516l0.061,0.504l0.062,0.494l0.064,0.487l0.065,0.48l0.066,0.474l0.067,0.469l0.068,0.465l0.069,0.462l0.069,0.46l0.071,0.458l0.142,0.92l0.125,0.81l0.011,0.116l0.045,0.473l0.044,0.477l0.045,0.482l0.044,0.479l-0.001,0.009l-0.048,0.509l-0.037,0.514l-0.024,0.52l-0.012,0.524l0,0.01l-0.409,1.224l-0.92,0.614l-0.02,0.003l-1.048,-0.349l-0.719,-1.073l-0.003,-0.01l-0.149,-0.495l-0.163,-0.481l-0.177,-0.471l-0.19,-0.462l-0.003,-0.009l-0.096,-0.46l-0.098,-0.465l-0.099,-0.462l-0.1,-0.458l-0.025,-0.115l-0.126,-0.808l-0.144,-0.923l-0.072,-0.465l-0.072,-0.468l-0.071,-0.473l-0.071,-0.477l-0.07,-0.483l-0.069,-0.49l-0.068,-0.497l-0.067,-0.505l-0.065,-0.515l-0.064,-0.526l-0.063,-0.534l-0.031,-0.274l-0.03,-0.275l-0.03,-0.279l-0.03,-0.282l-0.029,-0.285l-0.028,-0.289l-0.029,-0.292l-0.027,-0.296l-0.027,-0.3l-0.027,-0.304l-0.025,-0.308l-0.026,-0.312l-0.025,-0.316l-0.024,-0.321l-0.023,-0.325l-0.023,-0.33l-0.023,-0.334l-0.021,-0.339l-0.019,-0.311l-0.018,-0.311l-0.018,-0.311l-0.017,-0.312l-0.03,-0.62l-0.029,-0.62l-0.025,-0.62l-0.022,-0.619l-0.019,-0.619l-0.017,-0.618l-0.014,-0.617l-0.012,-0.617l-0.009,-0.617l-0.007,-0.616l-0.004,-0.616l-0.002,-0.615l0,-0.615l0.003,-0.614l0.004,-0.614l0.006,-0.614l0.005,-0.317l0.004,-0.296l0.011,-0.613l0.012,-0.612l0.014,-0.613l0.016,-0.612l0.017,-0.611l0.019,-0.612l0.021,-0.611l0.021,-0.61l0.023,-0.611l0.024,-0.611l0.026,-0.61l0.026,-0.61l0.028,-0.61l0.028,-0.61l0.029,-0.609l0.03,-0.61l0.031,-0.61l0.063,-1.218l0.066,-1.219l0.067,-1.218l0.068,-1.219l0.137,-2.438l0.068,-1.22l0.066,-1.221l0.065,-1.222l0.062,-1.223l0.031,-0.611l0.029,-0.612l0.029,-0.612l0.027,-0.613l0.027,-0.613l0.026,-0.613l0.024,-0.614l0.013,-0.339l0.011,-0.277l0,-0.01l0.679,-1.462l1.51,-0.566l0.02,0.001Z" style="fill:#fff;"/><path d="M199.714,39.368c1.274,-0.069 1.77,1.071 1.806,2.094c0.045,1.275 -0.783,2.239 -2.059,2.239c-1.276,0 -2.022,-0.963 -2.022,-2.239c0,-1.275 0.927,-2.022 2.275,-2.094Z" style="fill:#fff;"/><path d="M158.983,64.27l0.062,0.229l0.061,0.234l0.026,0.101l0.036,0.14l0.062,0.248l0.062,0.255l0.062,0.262l0.063,0.27l0.063,0.276l0.064,0.283l0.064,0.29l0.064,0.297l0.065,0.303l0.066,0.309l0.066,0.317l0.133,0.65l0.135,0.674l0.138,0.698l0.139,0.719l0.142,0.74l0.144,0.761l0.146,0.779l0.149,0.797l0.151,0.814l0.309,1.672l0.318,1.726l0.327,1.771l0.168,0.899l0.17,0.907l0.172,0.913l0.175,0.919l0.177,0.923l0.18,0.926l0.067,0.343l0.115,0.585l0.186,0.929l0.188,0.929l0.191,0.927l0.096,0.462l0.097,0.462l0.097,0.461l0.098,0.46l0.099,0.458l0.099,0.457l0.1,0.456l0.101,0.454l0.101,0.452l0.102,0.45l0.102,0.447l0.103,0.446l0.104,0.443l0.104,0.441l0.105,0.438l0.105,0.435l0.106,0.432l0.107,0.429l0.107,0.425l0.108,0.422l0.109,0.419l0.109,0.414l0.109,0.411l0.11,0.406l0.111,0.403l0.112,0.398l0.111,0.393l0.113,0.388l0.113,0.384l0.113,0.379l0.114,0.373l0.115,0.368l0.115,0.363l0.115,0.357l0.116,0.351l0.116,0.345l0.117,0.338l0.117,0.333l0.118,0.325l0.016,0.045l0.106,0.273l0.124,0.309l0.124,0.305l0.062,0.147l0.062,0.146l0.062,0.145l0.062,0.143l0.062,0.141l0.062,0.139l0.062,0.137l0.062,0.135l0.061,0.133l0.062,0.131l0.062,0.128l0.062,0.127l0.062,0.124l0.004,0.009l0.015,-0.046l0.098,-0.331l0.1,-0.342l0.101,-0.352l0.101,-0.362l0.101,-0.37l0.102,-0.378l0.101,-0.384l0.102,-0.39l0.101,-0.395l0.101,-0.398l0.1,-0.403l0.1,-0.404l0.099,-0.406l0.098,-0.406l0.097,-0.407l0.095,-0.405l0.095,-0.404l0.092,-0.401l0.091,-0.396l0.178,-0.783l0.169,-0.757l0.16,-0.728l0.15,-0.691l0.139,-0.648l0.126,-0.598l0.114,-0.542l0.1,-0.479l0.153,-0.747l0.085,-0.421l0.136,-0.673l0.137,-0.674l0.14,-0.673l0.14,-0.67l0.142,-0.669l0.064,-0.294l0.08,-0.372l0.147,-0.665l0.147,-0.664l0.149,-0.661l0.151,-0.66l0.151,-0.659l0.154,-0.657l0.154,-0.656l0.156,-0.654l0.157,-0.653l0.159,-0.652l0.16,-0.651l0.161,-0.649l0.163,-0.648l0.164,-0.647l0.165,-0.646l0.166,-0.645l0.15,-0.574l0.018,-0.07l0.171,-0.643l0.171,-0.642l0.173,-0.641l0.174,-0.64l0.176,-0.64l0.177,-0.639l0.178,-0.638l0.179,-0.638l0.18,-0.637l0.182,-0.637l0.183,-0.636l0.184,-0.636l0.186,-0.635l0.049,-0.167l0.145,-0.466l0.198,-0.632l0.199,-0.632l0.2,-0.631l0.201,-0.631l0.202,-0.632l0.203,-0.631l0.204,-0.631l0.182,-0.559l0.024,-0.072l0.21,-0.631l0.21,-0.63l0.212,-0.631l0.212,-0.631l0.214,-0.631l0.214,-0.632l0.216,-0.632l0.091,-0.266l0.149,-0.359l0.255,-0.621l0.253,-0.622l0.251,-0.624l0.248,-0.626l0.246,-0.627l0.244,-0.629l0.241,-0.631l0.475,-1.267l0.466,-1.274l0.003,-0.009l0.742,-0.841l1.072,-0.1l0.019,0.006l0.798,0.722l0.091,1.117l-0.002,0.009l-0.389,1.297l-0.37,1.295l-0.178,0.648l-0.173,0.648l-0.169,0.648l-0.165,0.648l-0.159,0.649l-0.156,0.649l-0.15,0.649l-0.085,0.376l-0.079,0.268l-0.186,0.636l-0.185,0.635l-0.184,0.635l-0.182,0.634l-0.18,0.634l-0.18,0.634l-0.177,0.633l-0.021,0.073l-0.159,0.56l-0.179,0.632l-0.177,0.632l-0.176,0.631l-0.175,0.632l-0.173,0.632l-0.172,0.631l-0.171,0.632l-0.125,0.467l-0.047,0.164l-0.178,0.63l-0.177,0.629l-0.175,0.63l-0.175,0.63l-0.173,0.63l-0.172,0.631l-0.17,0.631l-0.17,0.632l-0.167,0.632l-0.167,0.633l-0.166,0.634l-0.164,0.634l-0.162,0.635l-0.018,0.069l-0.145,0.566l-0.161,0.637l-0.16,0.637l-0.159,0.638l-0.157,0.64l-0.156,0.64l-0.155,0.641l-0.153,0.643l-0.152,0.643l-0.151,0.645l-0.149,0.646l-0.148,0.648l-0.146,0.649l-0.145,0.65l-0.144,0.652l-0.142,0.653l-0.141,0.655l-0.078,0.367l-0.062,0.29l-0.14,0.657l-0.138,0.66l-0.136,0.661l-0.135,0.664l-0.135,0.668l-0.086,0.428l-0.155,0.759l-0.101,0.488l-0.115,0.551l-0.129,0.608l-0.141,0.658l-0.151,0.702l-0.163,0.74l-0.171,0.771l-0.18,0.795l-0.093,0.406l-0.094,0.41l-0.096,0.412l-0.098,0.415l-0.099,0.416l-0.1,0.417l-0.102,0.417l-0.102,0.417l-0.103,0.415l-0.104,0.412l-0.105,0.41l-0.106,0.405l-0.106,0.402l-0.106,0.395l-0.106,0.39l-0.107,0.384l-0.107,0.375l-0.107,0.368l-0.107,0.36l-0.107,0.35l-0.107,0.337l-0.054,0.169l-0.054,0.163l-0.053,0.161l-0.054,0.158l-0.054,0.156l-0.053,0.152l-0.054,0.15l-0.054,0.147l-0.054,0.145l-0.055,0.141l-0.016,0.04l-0.041,0.098l-0.058,0.135l-0.058,0.132l-0.059,0.13l-0.059,0.127l-0.061,0.125l-0.062,0.123l-0.063,0.122l-0.066,0.12l-0.068,0.12l-0.072,0.119l-0.077,0.12l-0.082,0.12l-0.09,0.123l-0.092,0.116l-0.062,0.074l-0.059,0.065l-0.064,0.067l-0.069,0.069l-0.075,0.069l-0.082,0.071l-0.09,0.072l-0.1,0.072l-0.11,0.072l-0.122,0.071l-0.136,0.068l-0.15,0.063l-0.164,0.057l-0.179,0.047l-0.192,0.034l-0.203,0.019l-0.21,0l-0.214,-0.02l-0.211,-0.039l-0.204,-0.059l-0.193,-0.074l-0.178,-0.088l-0.162,-0.097l-0.146,-0.104l-0.129,-0.106l-0.098,-0.093l-0.111,-0.117l-0.094,-0.102l-0.092,-0.103l-0.09,-0.106l-0.089,-0.107l-0.088,-0.109l-0.086,-0.11l-0.084,-0.112l-0.084,-0.114l-0.083,-0.116l-0.081,-0.117l-0.08,-0.118l-0.08,-0.121l-0.078,-0.121l-0.077,-0.124l-0.077,-0.125l-0.076,-0.126l-0.075,-0.129l-0.074,-0.129l-0.074,-0.132l-0.072,-0.133l-0.021,-0.039l-0.052,-0.095l-0.071,-0.137l-0.071,-0.137l-0.07,-0.14l-0.07,-0.14l-0.069,-0.143l-0.069,-0.144l-0.068,-0.145l-0.068,-0.147l-0.067,-0.149l-0.067,-0.15l-0.066,-0.152l-0.066,-0.153l-0.065,-0.155l-0.065,-0.156l-0.065,-0.157l-0.064,-0.159l-0.064,-0.161l-0.063,-0.162l-0.064,-0.164l-0.062,-0.165l-0.063,-0.166l-0.063,-0.17l-0.122,-0.337l-0.122,-0.346l-0.104,-0.301l-0.018,-0.049l-0.125,-0.355l-0.124,-0.359l-0.123,-0.365l-0.122,-0.37l-0.121,-0.374l-0.121,-0.38l-0.119,-0.385l-0.118,-0.389l-0.118,-0.393l-0.116,-0.398l-0.116,-0.403l-0.115,-0.406l-0.114,-0.411l-0.113,-0.414l-0.112,-0.419l-0.112,-0.422l-0.11,-0.425l-0.11,-0.429l-0.109,-0.432l-0.109,-0.435l-0.107,-0.438l-0.107,-0.442l-0.106,-0.443l-0.105,-0.447l-0.105,-0.449l-0.104,-0.451l-0.103,-0.453l-0.102,-0.456l-0.102,-0.457l-0.101,-0.46l-0.1,-0.461l-0.099,-0.462l-0.099,-0.464l-0.098,-0.465l-0.098,-0.466l-0.096,-0.467l-0.096,-0.468l-0.095,-0.468l-0.095,-0.47l-0.187,-0.939l-0.185,-0.94l-0.182,-0.939l-0.113,-0.592l-0.066,-0.346l-0.178,-0.934l-0.175,-0.931l-0.172,-0.925l-0.17,-0.919l-0.167,-0.912l-0.165,-0.903l-0.322,-1.776l-0.312,-1.728l-0.302,-1.672l-0.147,-0.811l-0.145,-0.793l-0.142,-0.775l-0.14,-0.754l-0.138,-0.732l-0.135,-0.711l-0.132,-0.686l-0.13,-0.661l-0.128,-0.636l-0.063,-0.306l-0.062,-0.3l-0.062,-0.292l-0.061,-0.286l-0.06,-0.277l-0.059,-0.27l-0.059,-0.261l-0.058,-0.254l-0.058,-0.245l-0.056,-0.236l-0.056,-0.228l-0.032,-0.126l-0.023,-0.092l-0.054,-0.209l-0.055,-0.206l-0.003,-0.01l0.191,-1.404l1.119,-0.867l0.019,-0.006l1.403,0.191l0.869,1.119Zm11.969,46.174l0.058,0.057l-0.057,-0.057l-0.007,-0.005l0.006,0.005Z" style="fill:#fff;"/><path d="M127.24,64.587l0.137,0.002l0.138,0.003l0.138,0.005l0.138,0.006l0.139,0.008l0.139,0.009l0.139,0.011l0.139,0.012l0.14,0.013l0.14,0.016l0.141,0.016l0.14,0.018l0.141,0.02l0.141,0.021l0.141,0.023l0.142,0.024l0.142,0.026l0.142,0.027l0.142,0.028l0.143,0.031l0.143,0.031l0.143,0.034l0.143,0.034l0.144,0.037l0.144,0.037l0.144,0.04l0.144,0.041l0.144,0.042l0.145,0.044l0.145,0.045l0.145,0.047l0.145,0.049l0.146,0.05l0.145,0.052l0.146,0.053l0.146,0.054l0.147,0.057l0.146,0.057l0.147,0.06l0.147,0.061l0.147,0.062l0.148,0.064l0.147,0.065l0.148,0.068l0.148,0.068l0.045,0.021l0.104,0.049l0.148,0.072l0.149,0.074l0.152,0.077l0.772,0.898l-0.071,1.176l-0.009,0.018l-0.892,0.77l-1.183,-0.069l-0.009,-0.005l-0.133,-0.064l-0.128,-0.061l-0.127,-0.059l-0.088,-0.04l-0.038,-0.017l-0.126,-0.057l-0.125,-0.054l-0.124,-0.054l-0.125,-0.051l-0.123,-0.051l-0.123,-0.048l-0.123,-0.048l-0.122,-0.046l-0.121,-0.045l-0.121,-0.043l-0.12,-0.042l-0.12,-0.04l-0.119,-0.039l-0.119,-0.038l-0.118,-0.036l-0.118,-0.035l-0.117,-0.034l-0.116,-0.032l-0.116,-0.031l-0.116,-0.03l-0.115,-0.028l-0.114,-0.027l-0.114,-0.026l-0.114,-0.025l-0.112,-0.023l-0.113,-0.022l-0.112,-0.02l-0.111,-0.02l-0.111,-0.018l-0.11,-0.017l-0.11,-0.016l-0.109,-0.015l-0.109,-0.013l-0.108,-0.012l-0.108,-0.011l-0.107,-0.01l-0.107,-0.009l-0.106,-0.007l-0.106,-0.007l-0.105,-0.005l-0.105,-0.004l-0.105,-0.003l-0.103,-0.002l-0.104,-0.001l-0.103,0l-0.103,0.002l-0.102,0.002l-0.102,0.004l-0.101,0.005l-0.101,0.006l-0.1,0.006l-0.1,0.008l-0.1,0.009l-0.099,0.01l-0.099,0.011l-0.099,0.012l-0.098,0.014l-0.097,0.014l-0.098,0.015l-0.097,0.016l-0.096,0.017l-0.097,0.019l-0.096,0.019l-0.095,0.02l-0.095,0.021l-0.095,0.022l-0.095,0.024l-0.094,0.024l-0.094,0.025l-0.094,0.026l-0.093,0.028l-0.093,0.028l-0.093,0.029l-0.092,0.03l-0.092,0.031l-0.092,0.032l-0.091,0.033l-0.092,0.034l-0.091,0.035l-0.09,0.036l-0.091,0.037l-0.09,0.038l-0.09,0.039l-0.089,0.039l-0.09,0.041l-0.089,0.042l-0.088,0.043l-0.089,0.043l-0.088,0.045l-0.088,0.045l-0.088,0.047l-0.088,0.047l-0.087,0.048l-0.087,0.05l-0.087,0.05l-0.086,0.051l-0.087,0.052l-0.086,0.053l-0.086,0.054l-0.085,0.055l-0.085,0.056l-0.085,0.057l-0.085,0.057l-0.085,0.059l-0.084,0.06l-0.084,0.06l-0.084,0.061l-0.084,0.063l-0.083,0.063l-0.083,0.064l-0.083,0.065l-0.083,0.066l-0.082,0.067l-0.082,0.068l-0.082,0.068l-0.081,0.07l-0.082,0.07l-0.081,0.072l-0.081,0.072l-0.08,0.073l-0.08,0.074l-0.08,0.075l-0.08,0.076l-0.08,0.076l-0.079,0.078l-0.079,0.078l-0.078,0.079l-0.079,0.08l-0.078,0.081l-0.077,0.082l-0.078,0.083l-0.077,0.083l-0.077,0.085l-0.077,0.085l-0.076,0.086l-0.076,0.086l-0.076,0.088l-0.076,0.089l-0.075,0.089l-0.075,0.09l-0.074,0.091l-0.075,0.091l-0.074,0.093l-0.073,0.093l-0.074,0.094l-0.073,0.095l-0.072,0.096l-0.073,0.096l-0.072,0.097l-0.072,0.098l-0.071,0.099l-0.07,0.097l-0.143,0.203l-0.066,0.096l-0.074,0.108l-0.139,0.207l-0.138,0.209l-0.137,0.212l-0.135,0.216l-0.134,0.217l-0.132,0.221l-0.131,0.223l-0.13,0.226l-0.128,0.228l-0.127,0.231l-0.125,0.234l-0.124,0.236l-0.123,0.238l-0.121,0.241l-0.12,0.243l-0.118,0.245l-0.116,0.247l-0.116,0.25l-0.113,0.252l-0.113,0.254l-0.11,0.255l-0.11,0.258l-0.107,0.26l-0.106,0.262l-0.105,0.264l-0.103,0.265l-0.102,0.267l-0.1,0.269l-0.098,0.271l-0.097,0.272l-0.095,0.274l-0.094,0.275l-0.092,0.277l-0.091,0.278l-0.089,0.28l-0.087,0.281l-0.086,0.282l-0.084,0.284l-0.082,0.285l-0.081,0.286l-0.08,0.287l-0.077,0.288l-0.076,0.29l-0.075,0.29l-0.073,0.291l-0.071,0.293l-0.069,0.293l-0.066,0.285l-0.002,0.009l-0.067,0.294l-0.066,0.295l-0.064,0.296l-0.062,0.297l-0.061,0.297l-0.059,0.297l-0.057,0.298l-0.056,0.299l-0.054,0.299l-0.052,0.3l-0.05,0.299l-0.049,0.3l-0.048,0.301l-0.045,0.3l-0.044,0.301l-0.043,0.3l-0.04,0.301l-0.039,0.301l-0.038,0.301l-0.035,0.3l-0.034,0.301l-0.032,0.3l-0.031,0.3l-0.029,0.3l-0.027,0.299l-0.025,0.3l-0.024,0.298l-0.022,0.299l-0.02,0.298l-0.019,0.297l-0.017,0.296l-0.015,0.297l-0.014,0.295l-0.012,0.295l-0.01,0.293l-0.009,0.293l-0.006,0.293l-0.006,0.291l-0.003,0.29l-0.002,0.29l0,0.288l0.002,0.287l0.003,0.286l0.005,0.265l0,0.02l0.006,0.283l0.007,0.283l0.009,0.281l0.011,0.279l0.012,0.278l0.014,0.277l0.016,0.275l0.017,0.274l0.019,0.272l0.021,0.271l0.022,0.268l0.024,0.267l0.026,0.265l0.028,0.263l0.029,0.262l0.031,0.259l0.032,0.258l0.034,0.255l0.036,0.253l0.037,0.251l0.04,0.249l0.04,0.247l0.043,0.244l0.044,0.242l0.045,0.24l0.047,0.237l0.049,0.234l0.051,0.232l0.037,0.164l0.015,0.066l0.053,0.227l0.054,0.224l0.056,0.221l0.058,0.219l0.059,0.215l0.061,0.213l0.063,0.21l0.063,0.207l0.066,0.203l0.066,0.201l0.068,0.197l0.07,0.194l0.071,0.191l0.072,0.188l0.073,0.184l0.075,0.18l0.076,0.178l0.078,0.173l0.08,0.173l0.038,0.081l0.04,0.083l0.041,0.081l0.04,0.081l0.041,0.08l0.041,0.079l0.042,0.078l0.041,0.077l0.042,0.077l0.043,0.075l0.042,0.074l0.043,0.073l0.043,0.073l0.043,0.071l0.043,0.07l0.044,0.07l0.044,0.068l0.044,0.067l0.044,0.067l0.044,0.065l0.045,0.065l0.045,0.063l0.045,0.062l0.045,0.062l0.045,0.06l0.046,0.059l0.045,0.059l0.046,0.057l0.046,0.056l0.046,0.056l0.046,0.054l0.046,0.053l0.047,0.052l0.046,0.052l0.047,0.05l0.047,0.049l0.046,0.048l0.047,0.048l0.047,0.046l0.047,0.045l0.047,0.044l0.048,0.044l0.047,0.042l0.047,0.041l0.048,0.04l0.047,0.04l0.048,0.038l0.047,0.038l0.048,0.036l0.047,0.036l0.048,0.035l0.048,0.034l0.048,0.033l0.048,0.032l0.048,0.031l0.048,0.03l0.048,0.03l0.048,0.028l0.049,0.028l0.048,0.027l0.049,0.026l0.048,0.025l0.049,0.024l0.049,0.024l0.049,0.023l0.049,0.022l0.05,0.021l0.05,0.02l0.049,0.02l0.051,0.019l0.05,0.018l0.05,0.017l0.032,0.01l0.031,0.01l0.03,0.008l0.03,0.009l0.03,0.007l0.03,0.007l0.029,0.007l0.03,0.006l0.029,0.005l0.028,0.005l0.029,0.005l0.029,0.004l0.028,0.003l0.029,0.003l0.028,0.002l0.028,0.002l0.029,0.002l0.028,0.001l0.029,0.001l0.028,0l0.029,-0.001l0.029,0l0.029,-0.002l0.029,-0.001l0.029,-0.003l0.029,-0.002l0.03,-0.004l0.03,-0.003l0.03,-0.004l0.031,-0.005l0.031,-0.006l0.031,-0.005l0.032,-0.007l0.031,-0.007l0.033,-0.007l0.032,-0.008l0.033,-0.009l0.033,-0.009l0.034,-0.01l0.034,-0.011l0.035,-0.011l0.035,-0.012l0.035,-0.013l0.036,-0.013l0.036,-0.014l0.037,-0.015l0.037,-0.015l0.037,-0.016l0.038,-0.017l0.038,-0.018l0.038,-0.018l0.039,-0.019l0.04,-0.02l0.04,-0.021l0.04,-0.021l0.04,-0.022l0.041,-0.023l0.037,-0.022l0.088,-0.053l0.085,-0.053l0.087,-0.057l0.088,-0.06l0.088,-0.063l0.091,-0.067l0.091,-0.071l0.092,-0.073l0.093,-0.077l0.094,-0.08l0.095,-0.084l0.096,-0.087l0.097,-0.091l0.097,-0.093l0.098,-0.097l0.098,-0.101l0.099,-0.103l0.1,-0.107l0.1,-0.11l0.101,-0.113l0.101,-0.116l0.101,-0.119l0.101,-0.122l0.102,-0.125l0.102,-0.129l0.103,-0.131l0.102,-0.134l0.103,-0.137l0.103,-0.14l0.103,-0.142l0.103,-0.145l0.103,-0.149l0.103,-0.15l0.103,-0.154l0.103,-0.156l0.103,-0.158l0.103,-0.161l0.103,-0.164l0.103,-0.166l0.103,-0.168l0.102,-0.171l0.103,-0.173l0.102,-0.176l0.102,-0.178l0.102,-0.18l0.102,-0.182l0.101,-0.185l0.102,-0.186l0.101,-0.189l0.101,-0.19l0.1,-0.193l0.101,-0.195l0.1,-0.197l0.099,-0.198l0.1,-0.201l0.099,-0.202l0.098,-0.204l0.099,-0.206l0.098,-0.208l0.098,-0.209l0.097,-0.211l0.097,-0.213l0.096,-0.214l0.097,-0.216l0.095,-0.218l0.096,-0.219l0.094,-0.22l0.095,-0.222l0.094,-0.223l0.009,-0.023l0.085,-0.202l0.093,-0.226l0.093,-0.227l0.092,-0.229l0.092,-0.23l0.091,-0.231l0.091,-0.232l0.09,-0.233l0.09,-0.234l0.09,-0.236l0.088,-0.236l0.089,-0.238l0.088,-0.238l0.087,-0.24l0.086,-0.24l0.086,-0.241l0.086,-0.242l0.085,-0.243l0.084,-0.244l0.084,-0.244l0.083,-0.246l0.083,-0.245l0.082,-0.247l0.081,-0.247l0.081,-0.248l0.08,-0.248l0.08,-0.249l0.079,-0.249l0.078,-0.25l0.077,-0.25l0.077,-0.25l0.076,-0.25l0.151,-0.504l0.148,-0.504l0.145,-0.504l0.142,-0.505l0.14,-0.506l0.136,-0.505l0.133,-0.505l0.131,-0.505l0.127,-0.504l0.045,-0.179l-0.005,-0.065l-0.022,-0.323l-0.02,-0.322l-0.019,-0.32l-0.017,-0.319l-0.016,-0.317l-0.014,-0.316l-0.014,-0.314l-0.012,-0.312l-0.01,-0.311l-0.01,-0.308l-0.008,-0.306l-0.007,-0.304l-0.005,-0.301l-0.005,-0.3l-0.003,-0.296l-0.003,-0.294l-0.001,-0.291l0,-0.289l0.001,-0.29l0.001,-0.162l0.004,-0.221l0.006,-0.277l0.007,-0.33l0.01,-0.379l0.012,-0.424l0.013,-0.464l0.016,-0.5l0.018,-0.532l0.02,-0.559l0.022,-0.581l0.024,-0.599l0.006,-0.126l0.03,-0.485l0.041,-0.621l0.042,-0.624l0.045,-0.625l0.046,-0.618l0.024,-0.308l0.025,-0.304l0.025,-0.3l0.025,-0.297l0.026,-0.292l0.027,-0.287l0.027,-0.282l0.027,-0.275l0.028,-0.27l0.029,-0.263l0.029,-0.255l0.029,-0.248l0.031,-0.24l0.031,-0.232l0.031,-0.223l0.033,-0.216l0.034,-0.207l0.035,-0.2l0.037,-0.187l0.021,-0.1l0.02,-0.093l0.022,-0.093l0.022,-0.092l0.025,-0.093l0.026,-0.095l0.03,-0.096l0.033,-0.1l0.038,-0.106l0.046,-0.113l0.056,-0.125l0.072,-0.139l0.097,-0.16l0.116,-0.16l0.104,-0.122l0.106,-0.109l0.13,-0.114l0.156,-0.117l0.188,-0.113l0.222,-0.102l0.254,-0.081l0.278,-0.05l0.289,-0.012l0.286,0.029l0.267,0.064l0.238,0.09l0.205,0.106l0.173,0.113l0.143,0.114l0.102,0.096l0.075,0.078l0.056,0.061l0.054,0.062l0.053,0.063l0.05,0.063l0.049,0.064l0.048,0.064l0.045,0.064l0.044,0.065l0.047,0.073l0.076,0.124l0.075,0.132l0.07,0.134l0.066,0.134l0.061,0.136l0.057,0.136l0.053,0.137l0.05,0.138l0.047,0.14l0.044,0.14l0.041,0.142l0.038,0.143l0.022,0.089l0.015,0.054l0.036,0.145l0.033,0.147l0.032,0.148l0.029,0.149l0.028,0.151l0.026,0.153l0.024,0.155l0.023,0.156l0.021,0.158l0.019,0.16l0.017,0.162l0.017,0.163l0.014,0.166l0.014,0.167l0.011,0.169l0.011,0.171l0.009,0.173l0.008,0.175l0.006,0.177l0.005,0.178l0.004,0.181l0.002,0.182l0.002,0.184l0,0.186l-0.001,0.188l-0.003,0.19l-0.003,0.192l-0.005,0.193l-0.006,0.196l-0.007,0.197l-0.008,0.199l-0.01,0.2l-0.01,0.203l-0.012,0.204l-0.013,0.206l-0.014,0.207l-0.015,0.21l-0.016,0.211l-0.017,0.212l-0.019,0.214l-0.019,0.216l-0.021,0.217l-0.021,0.219l-0.023,0.22l-0.023,0.222l-0.025,0.224l-0.026,0.224l-0.027,0.227l-0.027,0.227l-0.029,0.229l-0.03,0.231l-0.031,0.231l-0.032,0.233l-0.032,0.234l-0.034,0.236l-0.035,0.237l-0.036,0.237l-0.037,0.24l-0.037,0.24l-0.039,0.243l-0.08,0.484l-0.084,0.49l-0.088,0.494l-0.091,0.498l-0.09,0.47l-0.005,0.031l-0.099,0.504l-0.101,0.508l-0.105,0.51l-0.109,0.513l-0.084,0.387l0.018,0.286l0.021,0.301l0.022,0.303l0.024,0.303l0.024,0.303l0.027,0.305l0.027,0.305l0.029,0.306l0.031,0.306l0.032,0.306l0.034,0.306l0.008,0.074l0.027,0.232l0.036,0.306l0.037,0.306l0.04,0.306l0.041,0.305l0.042,0.305l0.044,0.303l0.046,0.303l0.048,0.302l0.049,0.301l0.051,0.3l0.052,0.299l0.055,0.297l0.056,0.296l0.058,0.293l0.059,0.293l0.062,0.29l0.063,0.288l0.065,0.286l0.067,0.284l0.068,0.281l0.071,0.279l0.072,0.277l0.074,0.273l0.076,0.271l0.078,0.267l0.08,0.265l0.082,0.264l0.04,0.126l0.042,0.128l0.042,0.128l0.043,0.127l0.043,0.125l0.044,0.125l0.044,0.124l0.045,0.123l0.044,0.122l0.046,0.121l0.046,0.12l0.046,0.118l0.047,0.118l0.047,0.117l0.047,0.116l0.048,0.114l0.049,0.114l0.049,0.112l0.049,0.111l0.049,0.11l0.05,0.109l0.051,0.108l0.051,0.106l0.051,0.106l0.051,0.104l0.052,0.102l0.053,0.102l0.052,0.1l0.053,0.099l0.054,0.097l0.033,0.061l0.019,0.036l0.052,0.097l0.052,0.095l0.052,0.093l0.052,0.093l0.053,0.091l0.053,0.09l0.054,0.088l0.054,0.087l0.054,0.085l0.054,0.084l0.055,0.083l0.055,0.081l0.055,0.08l0.056,0.079l0.055,0.077l0.056,0.075l0.057,0.074l0.056,0.073l0.057,0.071l0.057,0.069l0.057,0.068l0.057,0.067l0.057,0.065l0.058,0.064l0.058,0.062l0.057,0.061l0.058,0.059l0.058,0.058l0.059,0.056l0.058,0.055l0.059,0.054l0.058,0.052l0.059,0.051l0.059,0.049l0.059,0.048l0.059,0.046l0.059,0.045l0.06,0.044l0.059,0.042l0.06,0.041l0.059,0.04l0.06,0.038l0.061,0.037l0.06,0.036l0.061,0.035l0.06,0.033l0.062,0.032l0.061,0.031l0.062,0.03l0.062,0.029l0.062,0.027l0.063,0.026l0.064,0.026l0.064,0.024l0.064,0.022l0.065,0.022l0.066,0.021l0.066,0.019l0.067,0.018l0.067,0.017l0.069,0.016l0.069,0.015l0.07,0.014l0.071,0.013l0.073,0.011l0.073,0.01l0.074,0.009l0.075,0.007l0.076,0.007l0.078,0.005l0.078,0.003l0.08,0.003l0.081,0.001l0.083,-0.001l0.014,0l0.07,0.009l0.087,0.009l0.088,0.007l0.089,0.006l0.092,0.004l0.094,0.002l0.095,0.001l0.097,-0.002l0.099,-0.003l0.101,-0.005l0.103,-0.007l0.104,-0.009l0.107,-0.011l0.108,-0.013l0.11,-0.015l0.112,-0.018l0.113,-0.02l0.116,-0.022l0.117,-0.024l0.119,-0.026l0.121,-0.029l0.123,-0.032l0.124,-0.033l0.126,-0.037l0.127,-0.038l0.13,-0.042l0.131,-0.043l0.132,-0.047l0.135,-0.049l0.135,-0.051l0.138,-0.055l0.139,-0.057l0.14,-0.06l0.142,-0.062l0.144,-0.065l0.145,-0.069l0.146,-0.071l0.148,-0.073l0.15,-0.077l0.15,-0.08l0.152,-0.082l0.154,-0.086l0.16,-0.092l0.009,-0.005l1.206,-0.193l0.976,0.63l0.011,0.017l0.198,1.148l-0.652,1.031l-0.008,0.006l-0.16,0.119l-0.164,0.12l-0.164,0.118l-0.163,0.116l-0.162,0.114l-0.162,0.111l-0.162,0.109l-0.161,0.106l-0.16,0.105l-0.16,0.102l-0.16,0.099l-0.159,0.098l-0.159,0.095l-0.158,0.093l-0.159,0.09l-0.157,0.088l-0.158,0.086l-0.157,0.084l-0.157,0.081l-0.157,0.079l-0.157,0.077l-0.157,0.074l-0.156,0.072l-0.156,0.07l-0.156,0.067l-0.157,0.065l-0.156,0.062l-0.156,0.061l-0.156,0.057l-0.156,0.056l-0.156,0.053l-0.156,0.05l-0.156,0.048l-0.156,0.045l-0.156,0.043l-0.156,0.041l-0.156,0.038l-0.157,0.035l-0.156,0.033l-0.156,0.03l-0.157,0.028l-0.156,0.025l-0.13,0.018l-0.026,0.002l-0.157,0.007l-0.156,0.005l-0.156,0.001l-0.155,-0.001l-0.155,-0.004l-0.154,-0.006l-0.154,-0.01l-0.153,-0.012l-0.152,-0.014l-0.152,-0.018l-0.151,-0.02l-0.15,-0.023l-0.149,-0.025l-0.148,-0.029l-0.148,-0.031l-0.146,-0.033l-0.146,-0.036l-0.145,-0.039l-0.143,-0.041l-0.143,-0.044l-0.141,-0.047l-0.141,-0.049l-0.139,-0.051l-0.138,-0.054l-0.136,-0.056l-0.136,-0.058l-0.134,-0.061l-0.133,-0.063l-0.132,-0.065l-0.13,-0.067l-0.129,-0.07l-0.127,-0.071l-0.127,-0.074l-0.124,-0.075l-0.124,-0.078l-0.122,-0.079l-0.12,-0.082l-0.119,-0.083l-0.118,-0.085l-0.117,-0.086l-0.115,-0.089l-0.113,-0.09l-0.112,-0.092l-0.111,-0.093l-0.11,-0.095l-0.108,-0.096l-0.107,-0.098l-0.105,-0.099l-0.104,-0.101l-0.103,-0.102l-0.101,-0.104l-0.1,-0.105l-0.099,-0.106l-0.098,-0.108l-0.096,-0.108l-0.095,-0.11l-0.094,-0.112l-0.093,-0.112l-0.091,-0.114l-0.091,-0.114l-0.089,-0.116l-0.088,-0.117l-0.087,-0.118l-0.086,-0.12l-0.085,-0.12l-0.083,-0.121l-0.083,-0.122l-0.081,-0.124l-0.081,-0.124l-0.079,-0.125l-0.079,-0.126l-0.078,-0.127l-0.076,-0.128l-0.076,-0.129l-0.028,-0.049l-0.045,-0.082l-0.071,-0.132l-0.07,-0.133l-0.069,-0.134l-0.068,-0.135l-0.068,-0.135l-0.066,-0.137l-0.065,-0.137l-0.065,-0.137l-0.064,-0.139l-0.063,-0.139l-0.062,-0.14l-0.061,-0.141l-0.06,-0.142l-0.06,-0.142l-0.058,-0.143l-0.058,-0.143l-0.057,-0.145l-0.057,-0.145l-0.055,-0.145l-0.055,-0.146l-0.054,-0.147l-0.053,-0.148l-0.053,-0.148l-0.052,-0.148l-0.051,-0.15l-0.05,-0.15l-0.05,-0.15l-0.049,-0.151l-0.048,-0.152l-0.048,-0.154l-0.093,-0.303l-0.09,-0.308l-0.088,-0.31l-0.085,-0.311l-0.083,-0.314l-0.08,-0.315l-0.017,-0.07l-0.056,0.164l-0.089,0.255l-0.089,0.254l-0.09,0.253l-0.091,0.253l-0.091,0.252l-0.092,0.251l-0.093,0.25l-0.093,0.249l-0.094,0.248l-0.094,0.248l-0.096,0.246l-0.095,0.245l-0.097,0.245l-0.096,0.243l-0.098,0.242l-0.098,0.242l-0.099,0.24l-0.089,0.215l-0.01,0.024l-0.1,0.237l-0.101,0.237l-0.101,0.235l-0.102,0.234l-0.102,0.233l-0.103,0.231l-0.104,0.23l-0.104,0.229l-0.104,0.227l-0.106,0.226l-0.106,0.224l-0.106,0.223l-0.107,0.221l-0.108,0.22l-0.108,0.218l-0.108,0.217l-0.11,0.215l-0.11,0.213l-0.11,0.212l-0.111,0.21l-0.112,0.208l-0.112,0.207l-0.112,0.205l-0.114,0.203l-0.114,0.201l-0.114,0.2l-0.115,0.197l-0.116,0.196l-0.116,0.193l-0.117,0.192l-0.118,0.19l-0.118,0.188l-0.118,0.186l-0.12,0.183l-0.12,0.182l-0.121,0.18l-0.121,0.177l-0.122,0.176l-0.123,0.173l-0.123,0.171l-0.124,0.169l-0.125,0.166l-0.126,0.165l-0.126,0.162l-0.127,0.16l-0.128,0.157l-0.129,0.155l-0.13,0.153l-0.131,0.15l-0.131,0.148l-0.133,0.146l-0.133,0.143l-0.134,0.14l-0.136,0.138l-0.136,0.135l-0.138,0.133l-0.139,0.13l-0.14,0.127l-0.141,0.124l-0.142,0.122l-0.144,0.119l-0.145,0.116l-0.147,0.113l-0.148,0.11l-0.15,0.107l-0.151,0.104l-0.153,0.1l-0.154,0.097l-0.152,0.091l-0.083,0.048l-0.079,0.045l-0.08,0.044l-0.08,0.042l-0.08,0.042l-0.081,0.041l-0.082,0.04l-0.082,0.039l-0.082,0.038l-0.083,0.037l-0.083,0.036l-0.084,0.035l-0.084,0.034l-0.085,0.033l-0.085,0.031l-0.086,0.031l-0.086,0.029l-0.087,0.028l-0.087,0.027l-0.087,0.026l-0.088,0.025l-0.089,0.023l-0.088,0.022l-0.09,0.021l-0.089,0.02l-0.09,0.018l-0.09,0.017l-0.091,0.016l-0.091,0.014l-0.092,0.013l-0.091,0.011l-0.092,0.01l-0.093,0.008l-0.092,0.008l-0.093,0.005l-0.093,0.004l-0.093,0.003l-0.093,0.001l-0.094,0l-0.093,-0.002l-0.094,-0.004l-0.093,-0.005l-0.094,-0.006l-0.094,-0.009l-0.093,-0.009l-0.094,-0.011l-0.093,-0.013l-0.094,-0.014l-0.093,-0.016l-0.093,-0.018l-0.093,-0.019l-0.093,-0.02l-0.092,-0.022l-0.092,-0.024l-0.092,-0.025l-0.092,-0.026l-0.091,-0.028l-0.091,-0.03l-0.108,-0.037l-0.106,-0.038l-0.106,-0.04l-0.105,-0.041l-0.105,-0.043l-0.104,-0.044l-0.103,-0.046l-0.102,-0.047l-0.101,-0.049l-0.101,-0.05l-0.1,-0.052l-0.099,-0.053l-0.098,-0.054l-0.097,-0.056l-0.096,-0.057l-0.096,-0.058l-0.095,-0.06l-0.094,-0.061l-0.093,-0.062l-0.092,-0.064l-0.091,-0.064l-0.09,-0.066l-0.09,-0.067l-0.088,-0.068l-0.044,-0.035l-0.044,-0.035l-0.087,-0.07l-0.086,-0.072l-0.084,-0.073l-0.085,-0.073l-0.083,-0.075l-0.082,-0.076l-0.082,-0.077l-0.08,-0.078l-0.08,-0.079l-0.079,-0.08l-0.078,-0.081l-0.077,-0.082l-0.076,-0.082l-0.076,-0.084l-0.075,-0.085l-0.074,-0.085l-0.073,-0.087l-0.072,-0.087l-0.071,-0.088l-0.071,-0.089l-0.07,-0.09l-0.069,-0.091l-0.068,-0.091l-0.068,-0.093l-0.067,-0.093l-0.066,-0.094l-0.065,-0.094l-0.064,-0.096l-0.064,-0.096l-0.063,-0.097l-0.062,-0.098l-0.062,-0.099l-0.061,-0.099l-0.06,-0.1l-0.06,-0.101l-0.058,-0.102l-0.058,-0.102l-0.058,-0.103l-0.057,-0.104l-0.056,-0.104l-0.055,-0.105l-0.055,-0.106l-0.054,-0.107l-0.053,-0.107l-0.053,-0.108l-0.052,-0.108l-0.053,-0.113l-0.1,-0.217l-0.099,-0.223l-0.096,-0.225l-0.094,-0.229l-0.091,-0.23l-0.089,-0.233l-0.087,-0.236l-0.085,-0.238l-0.082,-0.241l-0.08,-0.242l-0.077,-0.245l-0.076,-0.248l-0.073,-0.249l-0.072,-0.252l-0.069,-0.254l-0.067,-0.256l-0.064,-0.259l-0.063,-0.26l-0.061,-0.263l-0.016,-0.075l-0.042,-0.189l-0.056,-0.267l-0.054,-0.268l-0.052,-0.271l-0.05,-0.272l-0.048,-0.274l-0.046,-0.276l-0.044,-0.278l-0.042,-0.28l-0.04,-0.281l-0.038,-0.283l-0.036,-0.285l-0.034,-0.286l-0.032,-0.288l-0.031,-0.289l-0.028,-0.291l-0.027,-0.292l-0.024,-0.294l-0.023,-0.295l-0.021,-0.297l-0.019,-0.298l-0.017,-0.299l-0.015,-0.301l-0.013,-0.301l-0.012,-0.303l-0.009,-0.304l-0.008,-0.306l-0.006,-0.306l-0.004,-0.307l0,-0.022l0,-0.287l0,-0.309l0.003,-0.31l0.005,-0.311l0.006,-0.312l0.009,-0.313l0.01,-0.313l0.012,-0.314l0.014,-0.315l0.015,-0.316l0.018,-0.316l0.019,-0.317l0.021,-0.317l0.023,-0.318l0.024,-0.318l0.027,-0.318l0.028,-0.319l0.03,-0.32l0.032,-0.319l0.034,-0.32l0.035,-0.32l0.037,-0.321l0.039,-0.32l0.041,-0.321l0.043,-0.32l0.044,-0.321l0.046,-0.321l0.048,-0.32l0.05,-0.321l0.051,-0.32l0.054,-0.321l0.055,-0.32l0.057,-0.32l0.058,-0.319l0.06,-0.319l0.063,-0.319l0.063,-0.319l0.066,-0.317l0.068,-0.318l0.069,-0.317l0.071,-0.316l0.072,-0.316l0.075,-0.316l0.076,-0.314l0.002,-0.009l0.077,-0.305l0.081,-0.312l0.082,-0.313l0.085,-0.311l0.086,-0.31l0.087,-0.309l0.09,-0.309l0.091,-0.307l0.093,-0.307l0.095,-0.305l0.097,-0.304l0.098,-0.303l0.1,-0.302l0.102,-0.301l0.103,-0.299l0.106,-0.298l0.107,-0.297l0.109,-0.295l0.111,-0.294l0.112,-0.292l0.114,-0.291l0.116,-0.289l0.118,-0.288l0.12,-0.286l0.121,-0.285l0.123,-0.282l0.125,-0.281l0.127,-0.279l0.129,-0.278l0.13,-0.275l0.132,-0.274l0.134,-0.272l0.136,-0.269l0.138,-0.268l0.14,-0.265l0.141,-0.264l0.143,-0.261l0.145,-0.259l0.147,-0.257l0.149,-0.255l0.151,-0.252l0.152,-0.25l0.155,-0.248l0.156,-0.245l0.158,-0.243l0.16,-0.24l0.162,-0.237l0.164,-0.235l0.088,-0.123l0.079,-0.11l0.166,-0.227l0.087,-0.116l0.085,-0.113l0.086,-0.112l0.086,-0.112l0.087,-0.11l0.087,-0.111l0.088,-0.109l0.089,-0.109l0.088,-0.108l0.09,-0.107l0.09,-0.106l0.09,-0.106l0.091,-0.105l0.091,-0.104l0.092,-0.104l0.092,-0.103l0.093,-0.101l0.094,-0.102l0.094,-0.1l0.094,-0.099l0.095,-0.099l0.095,-0.098l0.096,-0.097l0.097,-0.096l0.097,-0.096l0.097,-0.094l0.098,-0.094l0.099,-0.093l0.099,-0.092l0.1,-0.091l0.1,-0.091l0.101,-0.089l0.101,-0.088l0.102,-0.088l0.102,-0.087l0.103,-0.086l0.103,-0.084l0.104,-0.084l0.105,-0.083l0.105,-0.082l0.105,-0.082l0.106,-0.08l0.107,-0.079l0.107,-0.078l0.108,-0.077l0.108,-0.077l0.109,-0.075l0.109,-0.074l0.11,-0.073l0.11,-0.073l0.111,-0.071l0.112,-0.07l0.112,-0.069l0.113,-0.068l0.113,-0.067l0.113,-0.066l0.115,-0.064l0.114,-0.064l0.116,-0.063l0.116,-0.061l0.116,-0.06l0.117,-0.06l0.117,-0.058l0.118,-0.057l0.119,-0.055l0.119,-0.055l0.12,-0.053l0.12,-0.053l0.12,-0.051l0.121,-0.049l0.122,-0.049l0.122,-0.047l0.123,-0.046l0.123,-0.045l0.124,-0.044l0.124,-0.042l0.124,-0.042l0.126,-0.039l0.125,-0.039l0.126,-0.037l0.127,-0.036l0.127,-0.035l0.128,-0.033l0.128,-0.032l0.128,-0.031l0.129,-0.029l0.129,-0.028l0.13,-0.027l0.13,-0.025l0.131,-0.024l0.131,-0.023l0.131,-0.021l0.132,-0.019l0.133,-0.019l0.132,-0.017l0.133,-0.015l0.134,-0.014l0.134,-0.013l0.134,-0.011l0.135,-0.01l0.135,-0.009l0.135,-0.007l0.136,-0.005l0.136,-0.004l0.136,-0.003l0.137,-0.001l0.137,0Zm3.895,8.805l0.002,0.002l-0.022,-0.039l0.02,0.037Zm-0.016,-0.022l-0.013,-0.018l-0.014,-0.018l0.022,0.031l-0.012,-0.016l-0.013,-0.016l0.024,0.032l-0.012,-0.014l-0.012,-0.013l0.028,0.033l-0.026,-0.029l0.029,0.033l-0.026,-0.028l0.031,0.034l-0.027,-0.027l0.031,0.032l0.003,0.003l-0.014,-0.023l-0.028,-0.041l0.029,0.045Z" style="fill:#fff;"/><path d="M36.906,18.27l0.157,-0.162l0,0l0.002,-0.002l0.191,-0.146l0.211,-0.114l0.226,-0.081l0.235,-0.045l0.24,-0.008l0.238,0.03l0.002,0l0.226,0.064l0.214,0.097l0.197,0.129l0.176,0.157l0.149,0.182l0.002,0.002l0.108,0.178l0,0l0.083,0.19l0.041,0.117l0.038,0.194l0.012,0.116l0.005,0.078l0.003,0.072l0.002,0.128l0,0.144l0,0.01l-0.064,0.153l-0.003,0.042l-0.011,0.147l-0.012,0.172l-0.027,0.421l-0.025,0.415l0.017,0.094l0.149,0.598l0.026,0.083l0.125,0.586l0.152,0.589l-0.007,0.144l-0.038,0.778l-0.04,0.828l-0.04,0.871l-0.041,0.905l-0.041,0.933l-0.041,0.953l-0.04,0.967l-0.039,0.973l-0.028,0.706l-0.012,0.265l-0.04,0.964l-0.038,0.947l-0.036,0.925l-0.033,0.895l-0.031,0.858l-0.027,0.813l-0.024,0.761l-0.02,0.701l-0.015,0.636l-0.006,0.288l-0.005,0.269l-0.004,0.247l-0.002,0.226l-0.001,0.2l0,0.178l0.005,0.937l0.009,0.938l0.002,0.203l0.008,0.734l0.012,0.936l0.016,0.936l0.018,0.934l0.021,0.933l0.023,0.932l0.026,0.932l0.029,0.93l0.032,0.93l0.035,0.929l0.037,0.928l0.039,0.927l0.043,0.927l0.045,0.926l0.047,0.925l0.05,0.925l0.053,0.924l0.055,0.923l0.058,0.923l0.06,0.923l0.063,0.922l0.065,0.922l0.068,0.921l0.07,0.921l0.073,0.92l0.074,0.92l0.078,0.92l0.079,0.92l0.082,0.919l0.084,0.92l0.039,0.405l0.047,0.514l0.088,0.919l0.09,0.919l0.093,0.918l0.094,0.919l0.097,0.919l0.099,0.919l0.101,0.919l0.103,0.919l0.106,0.919l0.107,0.919l0.11,0.92l0.112,0.919l0.113,0.92l0.116,0.92l0.118,0.921l0.12,0.921l0.122,0.921l0.123,0.921l0.126,0.922l0.128,0.923l0.129,0.922l0.131,0.924l0.134,0.924l0.135,0.924l0.137,0.925l0.139,0.926l0.14,0.926l0.143,0.927l0.144,0.928l0.145,0.929l0.15,0.943l0.018,0.122l0.021,0.154l0.023,0.18l0.026,0.209l0.061,0.502l0.072,0.616l0.177,1.529l0.213,1.858l0.242,2.098l0.129,1.111l0.133,1.136l0.137,1.152l0.138,1.155l0.14,1.148l0.14,1.129l0.07,0.552l0.069,0.545l0.068,0.534l0.069,0.521l0.067,0.509l0.066,0.493l0.066,0.477l0.051,0.367l0.011,0.092l0.054,0.44l0.053,0.42l0.052,0.396l0.05,0.372l0.021,0.15l-0.057,0.209l-0.084,0.339l-0.064,0.31l-0.026,0.139l-0.023,0.132l-0.019,0.122l-0.005,0.035l0.001,0.02l0.015,0.176l0.014,0.165l0.014,0.156l0.012,0.146l0.011,0.138l0.008,0.131l0.006,0.127l0.001,0.124l-0.005,0.128l-0.011,0.126l-0.014,0.086l-0.018,0.085l-0.026,0.097l-0.038,0.115l-0.06,0.139l-0.097,0.171l-0.159,0.212l-0.115,0.107l-0.157,0.126l-0.171,0.105l0,0.001l-0.007,0.005l-0.231,0.101l-0.245,0.065l0,0l-0.007,0.003l-0.266,0.027l-0.267,-0.017l0,0l-0.008,0l-0.228,-0.05l-0.218,-0.081l-0.17,-0.076l-0.254,-0.188l-0.165,-0.166l-0.11,-0.137l-0.077,-0.113l-0.059,-0.095l-0.046,-0.083l-0.038,-0.072l-0.038,-0.076l-0.054,-0.108l-0.052,-0.111l-0.051,-0.107l-0.051,-0.107l-0.052,-0.109l-0.055,-0.113l-0.058,-0.117l-0.061,-0.122l-0.065,-0.128l-0.068,-0.132l-0.074,-0.139l-0.078,-0.146l-0.171,-0.302l-0.194,-0.327l-0.122,-0.197l-0.029,-0.162l-0.067,-0.394l-0.069,-0.415l-0.071,-0.435l-0.072,-0.454l-0.014,-0.093l-0.052,-0.379l-0.065,-0.489l-0.066,-0.505l-0.067,-0.518l-0.068,-0.53l-0.067,-0.542l-0.069,-0.552l-0.068,-0.56l-0.137,-1.14l-0.137,-1.157l-0.136,-1.163l-0.133,-1.158l-0.13,-1.143l-0.126,-1.115l-0.235,-2.102l-0.207,-1.859l-0.17,-1.523l-0.069,-0.605l-0.057,-0.486l-0.023,-0.19l-0.019,-0.154l-0.015,-0.108l-0.01,-0.069l-0.143,-0.923l-0.144,-0.937l-0.142,-0.937l-0.141,-0.936l-0.138,-0.935l-0.137,-0.934l-0.135,-0.935l-0.133,-0.933l-0.132,-0.933l-0.129,-0.933l-0.128,-0.933l-0.126,-0.932l-0.124,-0.931l-0.121,-0.932l-0.12,-0.931l-0.118,-0.931l-0.116,-0.931l-0.114,-0.93l-0.112,-0.93l-0.11,-0.931l-0.107,-0.93l-0.106,-0.93l-0.104,-0.93l-0.101,-0.93l-0.099,-0.93l-0.097,-0.93l-0.095,-0.93l-0.093,-0.93l-0.09,-0.931l-0.088,-0.93l-0.086,-0.931l-0.047,-0.52l-0.036,-0.411l-0.081,-0.931l-0.078,-0.932l-0.075,-0.932l-0.073,-0.932l-0.071,-0.933l-0.069,-0.933l-0.066,-0.933l-0.063,-0.934l-0.061,-0.934l-0.059,-0.935l-0.056,-0.935l-0.054,-0.936l-0.051,-0.937l-0.048,-0.937l-0.046,-0.938l-0.044,-0.938l-0.04,-0.939l-0.038,-0.94l-0.036,-0.941l-0.032,-0.941l-0.03,-0.943l-0.028,-0.943l-0.024,-0.944l-0.022,-0.945l-0.019,-0.946l-0.016,-0.947l-0.014,-0.947l-0.01,-0.949l-0.008,-0.95l-0.004,-0.745l0,-0.206l-0.001,-0.952l0.003,-0.956l0.002,-0.205l0.003,-0.226l0.005,-0.246l0.006,-0.264l0.008,-0.283l0.009,-0.302l0.022,-0.651l0.026,-0.716l0.031,-0.773l0.035,-0.822l0.039,-0.866l0.041,-0.902l0.045,-0.931l0.047,-0.953l0.048,-0.968l0.014,-0.266l0.039,-0.71l0.054,-0.977l0.055,-0.971l0.055,-0.957l0.056,-0.937l0.054,-0.91l0.054,-0.875l0.052,-0.833l0.05,-0.785l0.01,-0.146l0.22,-0.573l0.195,-0.575l0.036,-0.081l0.224,-0.585l0.03,-0.093l0.032,-0.427l0.035,-0.438l0.016,-0.189l0.016,-0.167l0.014,-0.148l0.015,-0.131l0.015,-0.117l0.012,-0.075l0.018,-0.095l0.045,-0.181l0.052,-0.121l0.103,-0.201l0.132,-0.184Zm6.788,102.896l-0.029,0.084l0.01,-0.018l-0.019,0.068l0.01,-0.022l-0.013,0.055l0.011,-0.024l-0.014,0.066l0.023,-0.057l-0.011,0.065l0.02,-0.044l0.022,-0.055l-0.004,0.037l0.024,-0.077l0.023,-0.077l0.023,-0.094l0.024,-0.11l0.005,-0.03l-0.018,0.028l0.009,-0.011l-0.071,0.138l0.01,-0.013l-0.045,0.107l0.01,-0.016Z" style="fill:#fff;"/><path d="M16.521,123.306l0.155,0.152l0.153,0.149l0.154,0.148l0.154,0.147l0.155,0.146l0.155,0.144l0.157,0.143l0.156,0.142l0.158,0.14l0.158,0.139l0.16,0.138l0.159,0.136l0.161,0.134l0.161,0.133l0.162,0.132l0.163,0.13l0.163,0.129l0.164,0.128l0.165,0.126l0.165,0.125l0.165,0.124l0.167,0.122l0.166,0.121l0.168,0.119l0.167,0.119l0.169,0.116l0.169,0.116l0.169,0.114l0.17,0.112l0.171,0.111l0.171,0.11l0.171,0.109l0.172,0.107l0.173,0.105l0.173,0.104l0.173,0.103l0.174,0.102l0.174,0.1l0.175,0.099l0.175,0.097l0.175,0.096l0.176,0.095l0.176,0.093l0.177,0.092l0.059,0.03l0.113,0.068l0.169,0.102l0.17,0.1l0.169,0.1l0.17,0.099l0.17,0.097l0.171,0.097l0.171,0.096l0.17,0.095l0.172,0.094l0.171,0.093l0.172,0.092l0.171,0.091l0.172,0.09l0.173,0.089l0.172,0.088l0.173,0.087l0.172,0.086l0.173,0.086l0.174,0.084l0.173,0.083l0.174,0.083l0.174,0.081l0.174,0.081l0.174,0.08l0.174,0.078l0.175,0.078l0.174,0.077l0.175,0.076l0.119,0.051l0.055,0.025l0.173,0.08l0.173,0.078l0.173,0.078l0.173,0.077l0.174,0.075l0.173,0.075l0.174,0.074l0.174,0.074l0.174,0.072l0.174,0.072l0.175,0.07l0.175,0.07l0.174,0.069l0.175,0.068l0.176,0.068l0.175,0.066l0.175,0.065l0.176,0.065l0.176,0.064l0.176,0.063l0.176,0.062l0.176,0.061l0.176,0.061l0.177,0.059l0.177,0.059l0.176,0.058l0.177,0.057l0.177,0.056l0.178,0.056l0.177,0.054l0.178,0.054l0.177,0.053l0.178,0.052l0.178,0.051l0.178,0.051l0.178,0.049l0.178,0.049l0.178,0.048l0.179,0.047l0.178,0.046l0.179,0.045l0.178,0.045l0.179,0.044l0.179,0.043l0.179,0.042l0.179,0.041l0.179,0.041l0.18,0.039l0.179,0.039l0.18,0.038l0.179,0.037l0.18,0.037l0.179,0.035l0.18,0.035l0.107,0.02l0.073,0.014l0.18,0.034l0.18,0.032l0.18,0.032l0.18,0.032l0.18,0.03l0.18,0.029l0.18,0.029l0.181,0.028l0.18,0.027l0.18,0.026l0.181,0.026l0.18,0.025l0.181,0.024l0.18,0.023l0.181,0.022l0.181,0.022l0.18,0.02l0.181,0.02l0.181,0.02l0.181,0.018l0.181,0.018l0.181,0.016l0.18,0.016l0.181,0.016l0.181,0.014l0.181,0.014l0.181,0.013l0.181,0.012l0.181,0.011l0.181,0.011l0.181,0.009l0.181,0.009l0.181,0.009l0.181,0.007l0.181,0.007l0.181,0.006l0.181,0.005l0.181,0.004l0.087,0.002l0.094,0.002l0.181,0.004l0.181,0.003l0.181,0.002l0.181,0.002l0.181,0.001l0.181,0l0.18,-0.001l0.181,-0.002l0.181,-0.002l0.181,-0.003l0.181,-0.004l0.18,-0.005l0.181,-0.005l0.18,-0.006l0.181,-0.007l0.181,-0.007l0.18,-0.009l0.181,-0.009l0.18,-0.01l0.18,-0.01l0.181,-0.012l0.18,-0.012l0.18,-0.013l0.18,-0.013l0.18,-0.015l0.06,-0.005l0.12,-0.008l0.18,-0.014l0.18,-0.014l0.18,-0.015l0.18,-0.016l0.18,-0.017l0.18,-0.017l0.18,-0.018l0.179,-0.019l0.18,-0.019l0.18,-0.021l0.179,-0.021l0.179,-0.021l0.18,-0.023l0.179,-0.023l0.179,-0.024l0.179,-0.024l0.179,-0.026l0.179,-0.026l0.179,-0.027l0.178,-0.027l0.179,-0.028l0.179,-0.029l0.178,-0.03l0.178,-0.031l0.178,-0.031l0.178,-0.032l0.178,-0.032l0.178,-0.033l0.178,-0.035l0.177,-0.034l0.178,-0.036l0.177,-0.036l0.178,-0.037l0.177,-0.037l0.177,-0.039l0.176,-0.039l0.177,-0.039l0.177,-0.041l0.176,-0.041l0.176,-0.042l0.176,-0.042l0.176,-0.044l0.176,-0.044l0.176,-0.044l0.175,-0.046l0.176,-0.046l0.175,-0.047l0.175,-0.047l0.175,-0.048l0.174,-0.049l0.175,-0.05l0.174,-0.05l0.174,-0.051l0.174,-0.052l0.174,-0.052l0.174,-0.053l0.173,-0.054l0.173,-0.054l0.173,-0.055l0.173,-0.056l0.173,-0.057l0.172,-0.057l0.173,-0.058l0.172,-0.058l0.171,-0.06l0.172,-0.06l0.171,-0.06l0.172,-0.062l0.171,-0.062l0.17,-0.062l0.171,-0.064l0.17,-0.064l0.17,-0.064l0.17,-0.066l0.17,-0.066l0.169,-0.067l0.17,-0.067l0.168,-0.068l0.169,-0.069l0.169,-0.069l0.168,-0.07l0.168,-0.071l0.167,-0.072l0.168,-0.072l0.167,-0.072l0.167,-0.074l0.167,-0.074l0.166,-0.075l0.166,-0.075l0.166,-0.076l0.166,-0.077l0.165,-0.077l0.165,-0.078l0.165,-0.079l0.165,-0.08l0.164,-0.08l0.164,-0.08l0.163,-0.082l0.164,-0.082l0.163,-0.082l0.163,-0.084l0.162,-0.084l0.162,-0.084l0.162,-0.085l0.162,-0.086l0.161,-0.087l0.161,-0.087l0.161,-0.088l0.16,-0.088l0.16,-0.09l0.16,-0.089l0.159,-0.091l0.159,-0.091l0.159,-0.091l0.158,-0.093l0.158,-0.093l0.158,-0.093l0.157,-0.095l0.157,-0.095l0.157,-0.095l0.157,-0.096l0.156,-0.097l0.155,-0.097l0.156,-0.098l0.155,-0.099l0.154,-0.099l0.154,-0.1l0.154,-0.101l0.154,-0.101l0.153,-0.102l0.153,-0.102l0.152,-0.103l0.152,-0.104l0.152,-0.104l0.151,-0.105l0.151,-0.106l0.151,-0.106l0.15,-0.106l0.15,-0.108l0.149,-0.108l0.149,-0.108l0.149,-0.109l0.148,-0.11l0.148,-0.111l0.147,-0.111l0.147,-0.111l0.147,-0.113l0.146,-0.112l0.146,-0.114l0.145,-0.114l0.145,-0.115l0.144,-0.115l0.145,-0.116l0.143,-0.116l0.143,-0.117l0.143,-0.118l0.143,-0.118l0.142,-0.119l0.141,-0.12l0.141,-0.12l0.141,-0.12l0.14,-0.122l0.14,-0.121l0.139,-0.123l0.139,-0.123l0.138,-0.123l0.138,-0.125l0.138,-0.124l0.137,-0.126l0.137,-0.126l0.136,-0.126l0.135,-0.127l0.136,-0.128l0.134,-0.128l0.134,-0.129l0.134,-0.13l0.134,-0.13l0.132,-0.13l0.133,-0.131l0.132,-0.132l0.131,-0.132l0.131,-0.133l0.13,-0.134l0.13,-0.134l0.129,-0.134l0.129,-0.136l0.129,-0.135l0.128,-0.137l0.127,-0.137l0.127,-0.137l0.126,-0.138l0.126,-0.139l0.125,-0.139l0.125,-0.139l0.124,-0.141l0.124,-0.141l0.123,-0.141l0.123,-0.142l0.122,-0.142l0.122,-0.143l0.121,-0.144l0.121,-0.144l0.12,-0.145l0.119,-0.145l0.088,-0.108l0.031,-0.038l0.119,-0.146l0.118,-0.147l0.117,-0.148l0.117,-0.148l0.116,-0.148l0.116,-0.149l0.115,-0.15l0.115,-0.15l0.114,-0.151l0.114,-0.151l0.113,-0.152l0.112,-0.152l0.112,-0.153l0.111,-0.153l0.111,-0.154l0.11,-0.155l0.109,-0.155l0.109,-0.155l0.108,-0.156l0.108,-0.157l0.107,-0.157l0.107,-0.158l0.106,-0.158l0.105,-0.159l0.105,-0.159l0.104,-0.16l0.104,-0.16l0.103,-0.161l0.102,-0.161l0.102,-0.162l0.101,-0.163l0.1,-0.163l0.1,-0.163l0.099,-0.164l0.099,-0.165l0.098,-0.165l0.097,-0.166l0.097,-0.166l0.096,-0.166l0.096,-0.168l0.095,-0.167l0.094,-0.169l0.093,-0.168l0.093,-0.17l0.093,-0.169l0.091,-0.171l0.091,-0.17l0.09,-0.172l0.09,-0.171l0.089,-0.173l0.089,-0.173l0.087,-0.173l0.087,-0.174l0.087,-0.174l0.085,-0.175l0.085,-0.175l0.085,-0.176l0.083,-0.177l0.083,-0.177l0.082,-0.177l0.082,-0.178l0.081,-0.178l0.08,-0.179l0.08,-0.18l0.079,-0.18l0.078,-0.18l0.077,-0.181l0.077,-0.181l0.076,-0.182l0.075,-0.183l0.075,-0.183l0.074,-0.183l0.073,-0.184l0.073,-0.184l0.072,-0.185l0.071,-0.185l0.07,-0.186l0.07,-0.187l0.068,-0.187l0.069,-0.187l0.067,-0.188l0.067,-0.188l0.066,-0.189l0.065,-0.189l0.065,-0.19l0.063,-0.19l0.063,-0.191l0.063,-0.191l0.061,-0.192l0.061,-0.192l0.06,-0.193l0.059,-0.193l0.059,-0.194l0.057,-0.194l0.057,-0.194l0.057,-0.195l0.055,-0.196l0.055,-0.196l0.053,-0.197l0.054,-0.197l0.052,-0.197l0.051,-0.198l0.051,-0.198l0.05,-0.199l0.049,-0.2l0.049,-0.2l0.047,-0.2l0.047,-0.201l0.046,-0.201l0.046,-0.202l0.044,-0.202l0.044,-0.203l0.042,-0.202l0.081,-0.394l0.079,-0.393l0.077,-0.392l0.074,-0.39l0.073,-0.39l0.07,-0.389l0.067,-0.387l0.066,-0.387l0.064,-0.386l0.061,-0.385l0.059,-0.383l0.057,-0.383l0.055,-0.382l0.053,-0.381l0.051,-0.38l0.048,-0.378l0.046,-0.378l0.045,-0.377l0.042,-0.376l0.04,-0.375l0.038,-0.374l0.035,-0.373l0.034,-0.372l0.032,-0.371l0.029,-0.37l0.028,-0.369l0.025,-0.368l0.023,-0.367l0.021,-0.367l0.019,-0.365l0.018,-0.364l0.015,-0.363l0.013,-0.363l0.011,-0.361l0.008,-0.36l0.007,-0.36l0.005,-0.358l0.003,-0.358l0.001,-0.356l-0.001,-0.356l-0.003,-0.355l-0.006,-0.353l-0.007,-0.353l-0.009,-0.352l-0.011,-0.351l-0.013,-0.35l-0.015,-0.349l-0.018,-0.348l-0.019,-0.347l-0.021,-0.346l-0.022,-0.345l-0.025,-0.344l-0.027,-0.343l-0.029,-0.343l-0.031,-0.341l-0.032,-0.341l-0.035,-0.339l-0.037,-0.339l-0.038,-0.338l-0.04,-0.336l-0.042,-0.336l-0.045,-0.335l-0.046,-0.334l-0.048,-0.333l-0.049,-0.332l-0.052,-0.331l-0.054,-0.331l-0.055,-0.329l-0.057,-0.329l-0.06,-0.327l-0.061,-0.327l-0.063,-0.326l-0.064,-0.324l-0.067,-0.324l-0.068,-0.323l-0.071,-0.322l-0.072,-0.322l-0.074,-0.32l-0.076,-0.319l-0.077,-0.319l-0.08,-0.318l-0.081,-0.316l-0.083,-0.316l-0.085,-0.315l-0.085,-0.311l-0.001,-0.003l-0.089,-0.313l-0.09,-0.313l-0.092,-0.311l-0.094,-0.311l-0.095,-0.309l-0.097,-0.309l-0.099,-0.308l-0.101,-0.307l-0.103,-0.306l-0.104,-0.306l-0.106,-0.304l-0.108,-0.304l-0.11,-0.302l-0.111,-0.302l-0.113,-0.301l-0.115,-0.3l-0.117,-0.3l-0.118,-0.298l-0.12,-0.297l-0.122,-0.297l-0.123,-0.296l-0.125,-0.295l-0.127,-0.294l-0.129,-0.293l-0.13,-0.293l-0.132,-0.291l-0.134,-0.291l-0.136,-0.29l-0.137,-0.289l-0.139,-0.288l-0.14,-0.287l-0.142,-0.287l-0.144,-0.285l-0.146,-0.285l-0.147,-0.284l-0.149,-0.283l-0.15,-0.283l-0.152,-0.281l-0.154,-0.281l-0.156,-0.279l-0.157,-0.279l-0.159,-0.278l-0.16,-0.278l-0.162,-0.276l-0.164,-0.276l-0.166,-0.275l-0.167,-0.273l-0.168,-0.274l-0.17,-0.272l-0.172,-0.271l-0.174,-0.271l-0.175,-0.27l-0.177,-0.269l-0.178,-0.268l-0.18,-0.267l-0.181,-0.267l-0.183,-0.265l-0.185,-0.265l-0.187,-0.264l-0.187,-0.264l-0.19,-0.262l-0.191,-0.261l-0.193,-0.261l-0.194,-0.26l-0.196,-0.259l-0.197,-0.259l-0.199,-0.257l-0.2,-0.257l-0.202,-0.255l-0.204,-0.255l-0.205,-0.255l-0.207,-0.253l-0.208,-0.253l-0.21,-0.251l-0.211,-0.251l-0.213,-0.25l-0.214,-0.25l-0.216,-0.248l-0.217,-0.248l-0.219,-0.246l-0.22,-0.246l-0.222,-0.246l-0.224,-0.244l-0.225,-0.244l-0.226,-0.242l-0.228,-0.242l-0.229,-0.241l-0.231,-0.241l-0.233,-0.239l-0.233,-0.239l-0.236,-0.238l-0.237,-0.237l-0.238,-0.236l-0.24,-0.235l-0.241,-0.235l-0.242,-0.233l-0.244,-0.233l-0.246,-0.232l-0.247,-0.232l-0.248,-0.23l-0.25,-0.23l-0.252,-0.229l-0.252,-0.227l-0.254,-0.228l-0.256,-0.226l-0.257,-0.226l-0.258,-0.224l-0.26,-0.224l-0.262,-0.223l-0.262,-0.222l-0.264,-0.222l-0.266,-0.22l-0.266,-0.22l-0.269,-0.219l-0.269,-0.218l-0.271,-0.218l-0.273,-0.216l-0.273,-0.216l-0.275,-0.215l-0.277,-0.214l-0.278,-0.213l-0.279,-0.212l-0.28,-0.212l-0.282,-0.211l-0.283,-0.209l-0.285,-0.209l-0.286,-0.209l-0.287,-0.207l-0.288,-0.207l-0.29,-0.205l-0.291,-0.205l-0.293,-0.205l-0.294,-0.203l-0.295,-0.202l-0.296,-0.202l-0.298,-0.201l-0.299,-0.2l-0.3,-0.199l-0.302,-0.198l-0.303,-0.198l-0.304,-0.196l-0.305,-0.196l-0.307,-0.195l-0.308,-0.194l-0.309,-0.193l-0.31,-0.193l-0.312,-0.192l-0.313,-0.19l-0.314,-0.19l-0.315,-0.19l-0.317,-0.188l-0.318,-0.187l-0.319,-0.187l-0.32,-0.186l-0.322,-0.185l-0.322,-0.184l-0.324,-0.183l-0.325,-0.183l-0.327,-0.182l-0.327,-0.18l-0.329,-0.18l-0.33,-0.18l-0.331,-0.178l-0.332,-0.177l-0.333,-0.177l-0.335,-0.176l-0.336,-0.175l-0.337,-0.174l-0.338,-0.173l-0.339,-0.173l-0.34,-0.171l-0.377,-0.188l-0.374,-0.186l-0.373,-0.182l-0.37,-0.179l-0.369,-0.177l-0.368,-0.174l-0.365,-0.171l-0.364,-0.169l-0.362,-0.165l-0.36,-0.163l-0.359,-0.16l-0.357,-0.158l-0.356,-0.155l-0.355,-0.152l-0.352,-0.15l-0.352,-0.147l-0.35,-0.144l-0.348,-0.142l-0.348,-0.139l-0.346,-0.137l-0.344,-0.134l-0.344,-0.132l-0.342,-0.129l-0.342,-0.127l-0.34,-0.125l-0.339,-0.122l-0.338,-0.119l-0.337,-0.118l-0.336,-0.115l-0.335,-0.112l-0.334,-0.11l-0.334,-0.108l-0.332,-0.106l-0.332,-0.104l-0.331,-0.101l-0.33,-0.099l-0.33,-0.097l-0.329,-0.094l-0.329,-0.093l-0.328,-0.09l-0.327,-0.089l-0.327,-0.086l-0.326,-0.084l-0.326,-0.082l-0.326,-0.08l-0.326,-0.077l-0.325,-0.076l-0.324,-0.074l-0.325,-0.072l-0.325,-0.07l-0.324,-0.068l-0.324,-0.066l-0.324,-0.065l-0.325,-0.062l-0.324,-0.06l-0.324,-0.059l-0.325,-0.057l-0.324,-0.055l-0.325,-0.053l-0.325,-0.051l-0.325,-0.05l-0.325,-0.048l-0.326,-0.046l-0.326,-0.044l-0.327,-0.043l-0.327,-0.041l-0.327,-0.039l-0.328,-0.038l-0.329,-0.036l-0.329,-0.034l-0.33,-0.033l-0.33,-0.031l-0.332,-0.03l-0.332,-0.028l-0.332,-0.027l-0.334,-0.025l-0.334,-0.023l-0.336,-0.022l-0.336,-0.021l-0.337,-0.019l-0.338,-0.018l-0.339,-0.016l-0.341,-0.015l-0.341,-0.013l-0.343,-0.012l-0.343,-0.011l-0.345,-0.009l-0.346,-0.008l-0.348,-0.007l-0.349,-0.005l-0.35,-0.004l-0.351,-0.003l-0.353,-0.001l-0.355,0l-0.356,0.001l-0.357,0.002l-0.359,0.003l-0.361,0.005l-0.362,0.006l-0.364,0.007l-0.365,0.008l-0.368,0.009l-0.369,0.011l-0.37,0.011l-0.373,0.013l-0.375,0.013l-0.376,0.015l-0.378,0.015l-0.38,0.017l-0.383,0.018l-0.384,0.018l-0.386,0.02l-0.389,0.021l-0.39,0.021l-0.393,0.023l-0.394,0.023l-0.797,0.049l-0.806,0.053l-0.815,0.056l-0.824,0.059l-0.503,0.038l-0.331,0.024l-0.847,0.066l-0.01,0l-1.573,-0.519l-0.757,-1.47l-0.001,-0.02l0.517,-1.571l1.472,-0.759l0.01,-0.001l0.852,-0.068l0.336,-0.026l0.51,-0.04l0.837,-0.063l0.828,-0.059l0.82,-0.057l0.811,-0.053l0.404,-0.025l0.401,-0.024l0.4,-0.024l0.398,-0.022l0.395,-0.022l0.395,-0.02l0.392,-0.019l0.391,-0.019l0.389,-0.017l0.387,-0.017l0.386,-0.015l0.385,-0.014l0.383,-0.013l0.381,-0.012l0.38,-0.011l0.379,-0.01l0.377,-0.008l0.376,-0.008l0.375,-0.006l0.373,-0.004l0.373,-0.004l0.371,-0.002l0.369,-0.001l0.369,0l0.368,0.002l0.366,0.003l0.366,0.004l0.364,0.006l0.364,0.007l0.362,0.008l0.362,0.01l0.361,0.012l0.36,0.013l0.359,0.014l0.359,0.016l0.357,0.017l0.357,0.019l0.356,0.021l0.356,0.022l0.355,0.024l0.354,0.025l0.354,0.027l0.354,0.029l0.352,0.031l0.353,0.032l0.352,0.033l0.351,0.036l0.351,0.037l0.351,0.039l0.35,0.041l0.35,0.043l0.35,0.045l0.35,0.046l0.349,0.048l0.35,0.05l0.349,0.052l0.349,0.054l0.348,0.056l0.349,0.058l0.349,0.06l0.349,0.062l0.348,0.064l0.349,0.065l0.349,0.068l0.349,0.07l0.349,0.072l0.349,0.074l0.35,0.076l0.349,0.079l0.35,0.08l0.351,0.083l0.35,0.084l0.351,0.087l0.351,0.089l0.352,0.092l0.352,0.093l0.352,0.096l0.353,0.098l0.353,0.101l0.354,0.102l0.355,0.105l0.355,0.107l0.355,0.11l0.357,0.112l0.357,0.114l0.357,0.117l0.359,0.119l0.359,0.121l0.36,0.124l0.361,0.127l0.362,0.129l0.362,0.131l0.364,0.134l0.364,0.136l0.366,0.139l0.366,0.141l0.368,0.144l0.368,0.146l0.37,0.149l0.371,0.152l0.372,0.154l0.373,0.156l0.375,0.16l0.375,0.162l0.377,0.165l0.379,0.167l0.38,0.17l0.381,0.173l0.382,0.175l0.384,0.178l0.386,0.181l0.387,0.184l0.388,0.187l0.391,0.189l0.392,0.192l0.393,0.195l0.354,0.177l0.354,0.178l0.352,0.179l0.351,0.18l0.35,0.181l0.348,0.181l0.348,0.183l0.347,0.184l0.345,0.184l0.344,0.186l0.343,0.186l0.342,0.187l0.341,0.188l0.34,0.19l0.339,0.19l0.337,0.191l0.336,0.192l0.335,0.192l0.334,0.194l0.333,0.195l0.331,0.196l0.331,0.196l0.329,0.198l0.328,0.198l0.327,0.199l0.325,0.201l0.325,0.201l0.323,0.202l0.322,0.203l0.32,0.204l0.32,0.205l0.318,0.206l0.317,0.207l0.316,0.208l0.314,0.209l0.314,0.21l0.312,0.21l0.311,0.212l0.309,0.212l0.308,0.214l0.307,0.214l0.306,0.216l0.304,0.216l0.303,0.217l0.302,0.219l0.301,0.219l0.299,0.22l0.298,0.221l0.296,0.222l0.296,0.223l0.294,0.224l0.292,0.225l0.291,0.226l0.29,0.226l0.289,0.228l0.287,0.229l0.286,0.23l0.285,0.23l0.283,0.232l0.282,0.232l0.28,0.234l0.279,0.234l0.278,0.236l0.276,0.236l0.275,0.237l0.274,0.239l0.272,0.239l0.271,0.24l0.269,0.241l0.268,0.243l0.266,0.243l0.265,0.244l0.264,0.245l0.262,0.246l0.261,0.247l0.259,0.248l0.258,0.249l0.256,0.25l0.255,0.251l0.254,0.252l0.252,0.253l0.25,0.253l0.249,0.255l0.248,0.256l0.246,0.257l0.244,0.257l0.243,0.259l0.242,0.26l0.24,0.26l0.238,0.262l0.237,0.263l0.236,0.263l0.234,0.265l0.232,0.265l0.231,0.267l0.229,0.267l0.228,0.269l0.226,0.269l0.224,0.271l0.223,0.271l0.222,0.272l0.22,0.274l0.218,0.274l0.217,0.275l0.215,0.277l0.213,0.277l0.212,0.278l0.21,0.279l0.209,0.281l0.207,0.281l0.205,0.282l0.204,0.283l0.202,0.284l0.2,0.286l0.199,0.286l0.197,0.287l0.195,0.288l0.194,0.289l0.192,0.29l0.191,0.291l0.188,0.292l0.187,0.293l0.186,0.294l0.183,0.295l0.182,0.296l0.18,0.297l0.179,0.298l0.176,0.299l0.175,0.299l0.174,0.301l0.171,0.302l0.17,0.303l0.168,0.304l0.166,0.304l0.165,0.306l0.162,0.307l0.161,0.308l0.159,0.308l0.158,0.31l0.155,0.31l0.154,0.312l0.152,0.312l0.15,0.314l0.149,0.314l0.146,0.316l0.145,0.316l0.143,0.318l0.141,0.318l0.139,0.319l0.137,0.321l0.136,0.321l0.133,0.322l0.132,0.323l0.13,0.325l0.128,0.325l0.126,0.326l0.125,0.327l0.122,0.328l0.12,0.329l0.119,0.33l0.117,0.331l0.114,0.331l0.113,0.333l0.111,0.334l0.109,0.335l0.107,0.335l0.106,0.337l0.103,0.337l0.101,0.339l0.099,0.339l0.098,0.341l0.095,0.341l0.093,0.342l0.092,0.343l0.089,0.345l0.087,0.345l0.086,0.346l0.083,0.347l0.082,0.348l0.079,0.349l0.078,0.349l0.075,0.351l0.073,0.352l0.072,0.352l0.069,0.354l0.068,0.354l0.065,0.355l0.063,0.357l0.061,0.357l0.06,0.358l0.057,0.359l0.055,0.36l0.053,0.361l0.051,0.362l0.049,0.362l0.047,0.364l0.045,0.365l0.042,0.365l0.041,0.366l0.038,0.368l0.037,0.368l0.034,0.369l0.032,0.37l0.031,0.371l0.028,0.372l0.026,0.372l0.023,0.374l0.022,0.375l0.02,0.375l0.017,0.376l0.015,0.377l0.014,0.379l0.011,0.379l0.009,0.379l0.006,0.381l0.005,0.382l0.002,0.383l0.001,0.383l-0.002,0.384l-0.004,0.386l-0.007,0.386l-0.008,0.387l-0.011,0.388l-0.012,0.389l-0.015,0.389l-0.017,0.391l-0.02,0.391l-0.021,0.393l-0.024,0.393l-0.026,0.394l-0.028,0.395l-0.03,0.396l-0.033,0.397l-0.035,0.398l-0.037,0.398l-0.039,0.4l-0.041,0.4l-0.044,0.401l-0.046,0.402l-0.048,0.403l-0.05,0.404l-0.053,0.405l-0.055,0.405l-0.057,0.407l-0.06,0.407l-0.061,0.408l-0.064,0.41l-0.066,0.41l-0.069,0.41l-0.071,0.412l-0.073,0.413l-0.075,0.413l-0.078,0.415l-0.08,0.415l-0.082,0.416l-0.084,0.417l-0.047,0.223l-0.047,0.223l-0.048,0.223l-0.049,0.222l-0.05,0.222l-0.051,0.221l-0.052,0.22l-0.052,0.22l-0.054,0.22l-0.054,0.219l-0.055,0.219l-0.056,0.218l-0.057,0.218l-0.058,0.217l-0.059,0.216l-0.059,0.217l-0.061,0.215l-0.061,0.216l-0.062,0.214l-0.063,0.214l-0.064,0.214l-0.065,0.213l-0.065,0.213l-0.067,0.212l-0.067,0.212l-0.068,0.211l-0.069,0.211l-0.069,0.21l-0.071,0.209l-0.071,0.21l-0.072,0.208l-0.073,0.208l-0.074,0.208l-0.075,0.207l-0.075,0.206l-0.076,0.206l-0.078,0.206l-0.077,0.205l-0.079,0.204l-0.079,0.204l-0.081,0.204l-0.081,0.202l-0.082,0.203l-0.082,0.202l-0.084,0.201l-0.084,0.201l-0.085,0.2l-0.086,0.199l-0.086,0.2l-0.087,0.198l-0.088,0.198l-0.089,0.198l-0.09,0.197l-0.09,0.196l-0.091,0.196l-0.092,0.195l-0.093,0.195l-0.093,0.194l-0.095,0.194l-0.094,0.193l-0.096,0.193l-0.096,0.192l-0.098,0.191l-0.097,0.191l-0.099,0.19l-0.099,0.19l-0.1,0.189l-0.101,0.189l-0.102,0.188l-0.102,0.188l-0.103,0.187l-0.103,0.186l-0.105,0.186l-0.105,0.185l-0.105,0.185l-0.107,0.184l-0.107,0.184l-0.108,0.183l-0.109,0.182l-0.109,0.182l-0.11,0.181l-0.11,0.181l-0.112,0.18l-0.112,0.18l-0.112,0.179l-0.114,0.178l-0.114,0.178l-0.115,0.177l-0.115,0.177l-0.116,0.176l-0.117,0.176l-0.117,0.174l-0.118,0.175l-0.119,0.173l-0.119,0.174l-0.12,0.172l-0.121,0.172l-0.121,0.171l-0.122,0.171l-0.123,0.17l-0.123,0.17l-0.124,0.169l-0.124,0.168l-0.125,0.168l-0.126,0.167l-0.126,0.167l-0.127,0.166l-0.128,0.165l-0.128,0.165l-0.129,0.164l-0.129,0.163l-0.13,0.163l-0.131,0.162l-0.034,0.043l-0.097,0.119l-0.132,0.161l-0.133,0.16l-0.133,0.16l-0.134,0.159l-0.134,0.159l-0.135,0.158l-0.136,0.157l-0.136,0.157l-0.136,0.156l-0.138,0.155l-0.137,0.155l-0.139,0.154l-0.139,0.154l-0.139,0.152l-0.14,0.153l-0.141,0.151l-0.141,0.151l-0.142,0.151l-0.142,0.15l-0.143,0.149l-0.144,0.148l-0.143,0.148l-0.145,0.147l-0.145,0.147l-0.146,0.146l-0.146,0.145l-0.146,0.145l-0.147,0.144l-0.148,0.143l-0.148,0.143l-0.149,0.142l-0.149,0.141l-0.15,0.141l-0.15,0.14l-0.151,0.14l-0.151,0.139l-0.152,0.138l-0.153,0.138l-0.152,0.136l-0.154,0.137l-0.153,0.135l-0.155,0.135l-0.154,0.135l-0.156,0.133l-0.156,0.133l-0.156,0.132l-0.156,0.132l-0.158,0.131l-0.157,0.13l-0.158,0.13l-0.159,0.129l-0.159,0.128l-0.16,0.128l-0.16,0.127l-0.16,0.126l-0.161,0.126l-0.161,0.125l-0.162,0.124l-0.162,0.124l-0.163,0.123l-0.163,0.122l-0.164,0.122l-0.164,0.121l-0.164,0.12l-0.165,0.12l-0.165,0.119l-0.166,0.118l-0.166,0.117l-0.167,0.117l-0.167,0.117l-0.167,0.115l-0.168,0.115l-0.168,0.114l-0.169,0.113l-0.169,0.113l-0.17,0.112l-0.17,0.112l-0.17,0.11l-0.17,0.11l-0.172,0.11l-0.171,0.108l-0.172,0.108l-0.172,0.107l-0.173,0.107l-0.173,0.106l-0.173,0.105l-0.174,0.104l-0.174,0.104l-0.174,0.103l-0.175,0.102l-0.176,0.102l-0.175,0.101l-0.176,0.1l-0.176,0.1l-0.177,0.099l-0.177,0.098l-0.178,0.097l-0.177,0.097l-0.178,0.096l-0.179,0.095l-0.179,0.094l-0.179,0.094l-0.179,0.093l-0.18,0.093l-0.18,0.091l-0.18,0.091l-0.181,0.091l-0.181,0.089l-0.182,0.089l-0.181,0.088l-0.182,0.087l-0.183,0.087l-0.182,0.086l-0.183,0.085l-0.184,0.084l-0.183,0.084l-0.184,0.083l-0.184,0.082l-0.185,0.082l-0.184,0.081l-0.186,0.08l-0.185,0.079l-0.186,0.079l-0.185,0.077l-0.187,0.077l-0.186,0.077l-0.187,0.075l-0.187,0.075l-0.187,0.075l-0.188,0.073l-0.188,0.073l-0.188,0.071l-0.188,0.072l-0.189,0.07l-0.188,0.07l-0.19,0.069l-0.189,0.068l-0.19,0.067l-0.189,0.067l-0.19,0.066l-0.191,0.065l-0.19,0.064l-0.191,0.064l-0.191,0.063l-0.192,0.062l-0.191,0.061l-0.192,0.061l-0.192,0.06l-0.192,0.059l-0.192,0.058l-0.193,0.058l-0.193,0.057l-0.193,0.056l-0.193,0.055l-0.193,0.054l-0.194,0.054l-0.194,0.053l-0.194,0.052l-0.194,0.052l-0.195,0.05l-0.194,0.05l-0.195,0.049l-0.195,0.049l-0.195,0.047l-0.196,0.047l-0.195,0.046l-0.196,0.045l-0.196,0.044l-0.196,0.044l-0.196,0.043l-0.197,0.042l-0.196,0.041l-0.197,0.041l-0.197,0.039l-0.197,0.039l-0.197,0.038l-0.197,0.038l-0.198,0.036l-0.197,0.036l-0.198,0.035l-0.198,0.034l-0.198,0.033l-0.198,0.033l-0.198,0.031l-0.199,0.031l-0.198,0.03l-0.199,0.03l-0.199,0.028l-0.199,0.028l-0.199,0.027l-0.199,0.026l-0.199,0.025l-0.2,0.025l-0.199,0.023l-0.2,0.023l-0.2,0.022l-0.199,0.022l-0.2,0.02l-0.2,0.02l-0.2,0.018l-0.2,0.018l-0.201,0.017l-0.2,0.017l-0.2,0.015l-0.135,0.01l-0.066,0.004l-0.201,0.012l-0.2,0.011l-0.201,0.01l-0.201,0.009l-0.201,0.008l-0.201,0.008l-0.201,0.006l-0.201,0.006l-0.201,0.005l-0.201,0.004l-0.201,0.004l-0.202,0.002l-0.201,0.002l-0.201,0.001l-0.201,0l-0.201,-0.001l-0.202,-0.002l-0.201,-0.002l-0.201,-0.004l-0.202,-0.004l-0.201,-0.005l-0.201,-0.006l-0.202,-0.006l-0.201,-0.008l-0.201,-0.008l-0.105,-0.005l-0.096,-0.005l-0.202,-0.011l-0.201,-0.012l-0.201,-0.013l-0.201,-0.013l-0.201,-0.015l-0.201,-0.015l-0.202,-0.016l-0.201,-0.017l-0.201,-0.018l-0.201,-0.019l-0.2,-0.02l-0.201,-0.02l-0.201,-0.021l-0.201,-0.023l-0.201,-0.023l-0.2,-0.024l-0.201,-0.024l-0.2,-0.026l-0.201,-0.026l-0.2,-0.028l-0.2,-0.028l-0.201,-0.029l-0.2,-0.03l-0.2,-0.031l-0.2,-0.032l-0.2,-0.032l-0.2,-0.034l-0.199,-0.034l-0.2,-0.035l-0.2,-0.036l-0.199,-0.037l-0.199,-0.038l-0.2,-0.039l-0.199,-0.039l-0.199,-0.041l-0.199,-0.041l-0.199,-0.042l-0.198,-0.043l-0.081,-0.018l-0.118,-0.027l-0.198,-0.045l-0.198,-0.046l-0.198,-0.047l-0.198,-0.048l-0.198,-0.049l-0.198,-0.049l-0.197,-0.051l-0.198,-0.051l-0.197,-0.053l-0.197,-0.053l-0.197,-0.054l-0.197,-0.055l-0.196,-0.056l-0.197,-0.057l-0.196,-0.058l-0.196,-0.058l-0.196,-0.06l-0.196,-0.06l-0.196,-0.061l-0.195,-0.063l-0.195,-0.063l-0.195,-0.064l-0.195,-0.065l-0.195,-0.065l-0.194,-0.067l-0.195,-0.068l-0.194,-0.068l-0.194,-0.07l-0.194,-0.07l-0.193,-0.071l-0.193,-0.072l-0.193,-0.073l-0.193,-0.074l-0.193,-0.075l-0.192,-0.076l-0.193,-0.077l-0.192,-0.077l-0.191,-0.079l-0.192,-0.079l-0.191,-0.081l-0.191,-0.081l-0.191,-0.082l-0.191,-0.083l-0.19,-0.084l-0.19,-0.085l-0.19,-0.086l-0.189,-0.087l-0.19,-0.087l-0.189,-0.089l-0.189,-0.089l-0.188,-0.091l-0.189,-0.091l-0.188,-0.093l-0.187,-0.093l-0.06,-0.03l-0.126,-0.068l-0.185,-0.1l-0.184,-0.101l-0.184,-0.102l-0.184,-0.103l-0.183,-0.104l-0.183,-0.104l-0.183,-0.106l-0.182,-0.106l-0.182,-0.108l-0.182,-0.108l-0.182,-0.109l-0.181,-0.11l-0.18,-0.11l-0.181,-0.112l-0.18,-0.112l-0.18,-0.114l-0.179,-0.114l-0.179,-0.115l-0.179,-0.116l-0.179,-0.117l-0.178,-0.118l-0.177,-0.118l-0.178,-0.12l-0.177,-0.12l-0.176,-0.122l-0.177,-0.122l-0.176,-0.123l-0.175,-0.124l-0.117,-0.083l-0.056,-0.045l-0.167,-0.138l-0.166,-0.138l-0.167,-0.138l-0.166,-0.139l-0.166,-0.139l-0.166,-0.14l-0.165,-0.141l-0.166,-0.14l-0.165,-0.142l-0.165,-0.141l-0.165,-0.143l-0.164,-0.143l-0.164,-0.143l-0.164,-0.144l-0.164,-0.144l-0.164,-0.145l-0.164,-0.145l-0.163,-0.146l-0.163,-0.146l-0.163,-0.147l-0.163,-0.147l-0.163,-0.148l-0.163,-0.148l-0.162,-0.149l-0.162,-0.15l-0.162,-0.15l-0.162,-0.15l-0.162,-0.151l-0.162,-0.152l-0.161,-0.152l-0.162,-0.153l-0.161,-0.153l-0.161,-0.154l-0.162,-0.154l-0.161,-0.155l-0.161,-0.155l-0.161,-0.156l-0.161,-0.156l-0.161,-0.157l-0.161,-0.157l-0.161,-0.159l-0.16,-0.159l-0.16,-0.16l-0.158,-0.159l-0.007,-0.007l-0.401,-0.985l0.396,-0.981l0.007,-0.008l0.007,-0.007l0.98,-0.4l0.987,0.397l0.007,0.007Z" style="fill:#fff;"/></g></svg>