<?xml version="1.0" standalone="no"?>
<!DOCTYPE svg PUBLIC "-//W3C//DTD SVG 20010904//EN"
 "http://www.w3.org/TR/2001/REC-SVG-20010904/DTD/svg10.dtd">
<svg version="1.0" xmlns="http://www.w3.org/2000/svg"
 width="700.000000pt" height="700.000000pt" viewBox="0 0 700.000000 700.000000"
 preserveAspectRatio="xMidYMid meet">
<metadata>
Created by potrace 1.11, written by Peter Selinger 2001-2013
</metadata>
<g transform="translate(0.000000,700.000000) scale(0.100000,-0.100000)"
fill="#000000" stroke="none">
<path d="M1659 5460 c-347 -61 -634 -270 -905 -660 -161 -230 -345 -608 -494
-1015 l-48 -130 -40 -9 c-80 -17 -132 -104 -110 -184 35 -131 214 -153 277
-34 l13 24 541 -7 c298 -4 661 -8 807 -10 146 -2 510 -6 810 -10 300 -4 625
-8 722 -9 98 -1 179 -4 182 -7 2 -2 11 -40 21 -84 9 -44 18 -88 20 -97 26
-124 115 -406 177 -563 233 -591 586 -962 1035 -1084 149 -41 156 -42 348 -46
255 -5 423 29 620 124 448 218 777 712 975 1464 17 63 28 87 39 88 126 5 226
70 274 178 28 62 28 160 0 222 -59 131 -195 199 -337 166 -52 -12 -132 -69
-161 -115 l-20 -31 -215 -1 c-118 -1 -316 -3 -440 -5 -569 -8 -1068 -15 -1565
-21 -297 -4 -585 -7 -640 -8 l-99 -1 -47 135 c-93 271 -249 624 -374 845 -62
110 -212 339 -234 355 -3 3 -23 27 -44 53 -201 250 -466 418 -747 474 -58 12
-281 14 -341 3z m479 -569 c398 -77 698 -280 927 -626 120 -181 164 -274 255
-536 l48 -136 -267 -3 c-146 -1 -360 -3 -476 -5 -115 -2 -428 -6 -695 -9 -422
-5 -1012 -13 -1447 -20 -73 -1 -133 1 -133 4 0 3 -14 20 -32 39 l-31 34 43
126 c50 147 103 270 154 359 20 35 36 66 36 68 0 2 25 41 57 86 118 174 258
315 408 415 72 48 253 136 315 154 25 7 50 14 55 15 208 64 553 79 783 35z
m1907 -1486 c292 -3 661 -8 820 -10 563 -7 1441 -18 1488 -18 42 0 50 -3 62
-27 14 -26 75 -86 109 -105 17 -10 15 -19 -28 -125 -83 -200 -214 -426 -311
-535 -20 -22 -46 -51 -59 -65 -157 -174 -387 -314 -624 -381 -77 -22 -81 -22
-152 -34 -25 -4 -54 -9 -65 -12 -11 -3 -101 -6 -200 -8 -237 -5 -359 12 -550
73 -441 140 -763 489 -973 1053 -51 136 -73 217 -56 206 5 -3 248 -8 539 -12z"/>
</g>
</svg>
