<?xml version="1.0" standalone="no"?>
<!DOCTYPE svg PUBLIC "-//W3C//DTD SVG 20010904//EN"
 "http://www.w3.org/TR/2001/REC-SVG-20010904/DTD/svg10.dtd">
<svg version="1.0" xmlns="http://www.w3.org/2000/svg"
 width="1424.000000pt" height="1424.000000pt" viewBox="0 0 1424.000000 1424.000000"
 preserveAspectRatio="xMidYMid meet">
<metadata>
Created by potrace 1.11, written by Peter Selinger 2001-2013
</metadata>
<g transform="translate(0.000000,1424.000000) scale(0.100000,-0.100000)"
fill="#000000" stroke="none">
<path d="M7005 14228 c-22 -4 -47 -11 -55 -14 -8 -3 -15 -4 -15 -3 0 5 -129
-66 -149 -81 -141 -109 -230 -287 -226 -450 3 -107 4 -111 46 -218 41 -106
145 -227 231 -267 18 -9 35 -20 38 -25 4 -6 8 -164 11 -353 2 -188 6 -529 9
-757 9 -785 16 -1256 21 -1620 4 -316 5 -435 2 -459 0 -3 0 -8 1 -11 1 -3 4
-147 6 -320 2 -173 7 -508 10 -745 3 -236 8 -612 11 -835 3 -223 6 -554 8
-737 l3 -332 -31 -7 c-48 -10 -279 -83 -298 -94 -10 -6 -22 -10 -27 -10 -5 0
-22 -5 -38 -12 -15 -6 -32 -12 -38 -14 -20 -5 -171 -63 -210 -80 -22 -10 -46
-19 -53 -20 -6 -1 -33 -13 -60 -25 -26 -13 -49 -24 -52 -25 -10 -2 -189 -74
-235 -94 -45 -20 -101 -43 -110 -46 -14 -3 -79 -31 -163 -70 -41 -19 -75 -34
-77 -34 -5 0 -211 -97 -240 -113 -46 -25 -135 -67 -138 -64 -2 1 -10 -3 -18
-9 -8 -6 -54 -33 -104 -60 -49 -26 -108 -58 -130 -71 -22 -12 -51 -28 -65 -35
-14 -7 -48 -27 -77 -45 -29 -18 -56 -33 -60 -33 -4 0 -21 -11 -37 -25 -16 -14
-33 -25 -38 -25 -7 0 -196 -121 -223 -143 -5 -4 -41 -30 -80 -57 -38 -27 -74
-53 -80 -57 -5 -5 -36 -28 -68 -51 -56 -42 -197 -159 -267 -222 -46 -41 -200
-191 -200 -194 0 -2 -27 -32 -60 -67 -34 -35 -70 -75 -81 -89 -97 -125 -149
-194 -149 -200 0 -3 -9 -16 -20 -28 -12 -12 -17 -22 -13 -22 4 0 3 -4 -3 -8
-9 -6 -31 -41 -114 -182 -12 -21 -74 -148 -92 -190 -24 -53 -75 -198 -93 -264
-19 -64 -18 -63 -29 -121 -4 -22 -10 -47 -13 -55 -3 -8 -7 -24 -7 -35 -2 -20
-12 -95 -23 -170 -8 -53 -7 -334 1 -410 6 -58 13 -114 22 -165 4 -26 31 -151
40 -185 3 -11 7 -27 9 -35 2 -8 4 -15 5 -15 1 0 3 -7 5 -16 17 -91 162 -408
245 -540 49 -76 176 -256 190 -269 3 -3 18 -21 34 -40 59 -73 154 -175 224
-244 117 -112 123 -118 202 -185 41 -36 77 -68 78 -73 2 -4 10 -8 17 -8 7 0
15 -4 17 -8 2 -5 41 -38 88 -73 47 -35 87 -66 90 -69 14 -14 70 -50 79 -50 5
0 11 -4 13 -8 3 -9 213 -152 222 -152 3 0 31 -17 63 -37 91 -59 95 -61 153
-93 30 -16 80 -44 110 -61 164 -95 548 -281 805 -391 77 -33 154 -65 170 -72
42 -18 99 -41 105 -42 3 0 16 -5 30 -12 14 -6 70 -29 125 -52 55 -23 111 -47
125 -53 14 -6 27 -11 30 -12 5 -1 175 -64 255 -95 28 -11 57 -20 66 -20 9 0
19 -3 23 -7 3 -4 14 -8 22 -9 9 -1 23 -6 32 -10 9 -4 19 -8 22 -9 47 -12 80
-30 81 -43 5 -109 71 -206 169 -249 38 -17 165 -25 190 -13 8 4 32 16 53 26
58 29 115 97 135 164 11 36 8 138 -5 177 -20 58 -84 127 -145 156 l-52 25 3
203 c2 112 4 328 5 480 2 151 6 281 10 287 4 7 4 12 -1 12 -4 0 -8 22 -8 50 0
27 2 50 5 50 3 0 6 156 6 348 1 191 5 563 8 827 15 1103 18 1346 20 1651 2
177 6 326 10 332 3 6 2 14 -4 17 -7 5 -8 11 -1 19 6 6 6 18 2 25 -5 8 -5 26
-1 41 4 15 4 33 0 41 -5 7 -6 17 -3 22 3 5 7 149 8 321 2 171 6 554 10 851 4
297 8 598 9 668 1 102 4 130 16 137 14 8 36 13 113 25 17 3 39 8 47 11 8 3 26
8 40 10 14 3 41 9 60 14 19 5 50 12 69 15 19 3 38 8 42 11 5 3 21 7 36 9 23 4
121 28 203 50 174 47 255 69 300 84 53 18 140 44 150 45 3 1 19 6 35 12 17 6
55 19 85 29 30 9 62 19 70 23 8 3 18 6 23 7 4 2 9 4 12 5 3 1 8 3 13 5 4 1 14
5 22 8 8 4 58 22 111 41 144 51 376 150 547 232 84 41 157 74 162 74 6 0 10 3
10 8 0 4 21 18 48 31 92 45 247 138 350 208 35 24 65 43 68 43 5 0 141 102
224 168 110 88 156 129 269 242 107 106 150 153 228 250 15 19 31 37 36 38 4
2 7 10 7 18 0 8 3 14 8 14 4 0 18 17 32 38 14 20 31 43 37 50 7 7 13 17 13 22
0 5 6 15 13 22 25 26 110 175 172 303 82 169 169 411 191 531 3 15 7 31 9 34
2 4 7 22 10 41 3 19 10 57 15 84 6 28 12 70 15 94 2 24 7 60 10 80 16 111 28
521 15 521 -3 0 -5 28 -6 63 0 34 -4 91 -8 127 -5 36 -9 77 -10 93 0 15 -4 27
-7 27 -3 0 -5 10 -4 22 1 12 -4 47 -11 77 -7 31 -15 67 -18 81 -25 135 -113
395 -177 523 -10 20 -16 37 -13 37 3 0 -4 13 -15 29 -12 16 -21 32 -21 36 0 4
-25 50 -55 103 -72 124 -79 136 -86 142 -3 3 -19 25 -34 50 -15 25 -31 47 -34
50 -4 3 -18 21 -31 40 -13 19 -47 62 -74 95 -28 33 -60 70 -71 84 -21 25 -227
232 -267 267 -66 59 -238 194 -246 194 -6 0 -12 3 -14 8 -5 11 -101 80 -203
144 -49 32 -95 62 -102 68 -7 5 -15 10 -18 10 -3 0 -23 11 -44 24 -101 64
-512 272 -569 287 -4 2 -36 15 -72 31 -97 43 -98 43 -200 83 -52 20 -115 43
-140 51 -25 8 -54 19 -65 24 -21 10 -319 109 -345 115 -8 2 -71 20 -140 40
-69 21 -134 39 -145 41 -11 2 -54 13 -95 24 -41 12 -88 23 -104 26 -65 12 -75
21 -74 61 2 207 -115 406 -295 503 -110 60 -267 84 -382 58z m705 -805 c52
-18 230 -87 278 -108 17 -8 49 -22 70 -32 117 -52 309 -147 324 -160 9 -8 23
-15 31 -17 8 -1 26 -9 40 -19 15 -9 31 -17 37 -17 5 0 10 -4 10 -9 0 -5 8 -11
18 -15 34 -11 285 -173 290 -188 2 -4 8 -8 14 -8 5 0 43 -27 84 -60 41 -33 78
-60 83 -60 5 0 11 -4 13 -8 2 -5 41 -42 87 -82 144 -128 289 -282 400 -428 70
-93 201 -295 201 -311 0 -6 5 -11 11 -11 5 0 8 -4 4 -9 -3 -5 -1 -12 4 -15 31
-19 212 -455 236 -566 2 -8 13 -51 24 -96 12 -45 24 -94 26 -110 4 -26 14 -75
31 -154 7 -34 12 -74 19 -140 3 -30 7 -71 10 -90 14 -116 21 -479 11 -625 -7
-105 -16 -211 -20 -232 -3 -11 -7 -44 -11 -73 -4 -29 -9 -62 -11 -74 -3 -12
-7 -30 -8 -41 -2 -11 -6 -33 -10 -50 -3 -16 -8 -41 -11 -54 -24 -122 -119
-428 -152 -491 -7 -14 -13 -28 -13 -33 0 -10 -113 -240 -152 -307 -60 -105
-200 -306 -269 -385 -147 -169 -311 -329 -415 -407 -28 -22 -46 -36 -79 -65
-7 -7 -18 -13 -23 -13 -6 0 -12 -4 -14 -9 -3 -10 -58 -49 -168 -121 -41 -27
-80 -53 -86 -57 -5 -4 -19 -13 -30 -19 -10 -6 -30 -17 -44 -25 -14 -8 -27 -16
-30 -19 -38 -38 -674 -339 -698 -331 -1 1 -15 -5 -30 -13 -26 -13 -371 -133
-408 -141 -11 -2 -40 -11 -66 -19 l-48 -15 0 47 c-1 47 -1 94 4 593 2 141 6
261 10 267 3 6 3 13 -2 16 -9 5 -8 59 2 75 4 5 2 12 -3 15 -6 4 -6 18 -1 34 4
16 4 36 -2 45 -5 10 -5 17 -1 17 10 0 10 47 0 56 -4 4 -4 11 0 17 3 6 7 139 9
296 2 287 10 917 19 1606 3 204 7 566 10 805 3 239 7 445 9 457 3 13 0 25 -5
28 -5 4 -6 11 -3 17 7 10 13 441 17 1110 1 170 6 308 10 308 4 0 4 6 0 14 -4
8 -7 66 -5 130 l3 115 54 31 c68 39 143 106 181 162 16 24 33 46 39 50 5 4 6
8 2 8 -4 0 -3 9 3 21 8 14 17 18 28 14 9 -4 37 -14 62 -22z m-749 -6580 c0 -5
2 -154 4 -333 5 -439 14 -1138 20 -1570 3 -195 7 -534 10 -753 2 -220 6 -401
8 -404 3 -2 1 -17 -3 -33 -4 -16 -6 -31 -3 -34 3 -3 7 -155 9 -338 3 -326 8
-783 19 -1583 3 -220 7 -564 10 -763 2 -200 6 -366 8 -369 3 -2 1 -18 -3 -34
-5 -16 -5 -29 -1 -29 20 0 -4 -52 -28 -61 -36 -14 -110 -71 -111 -86 0 -24
-22 -23 -102 4 -46 15 -85 28 -88 29 -3 0 -12 3 -20 6 -8 4 -62 23 -120 43
-58 20 -121 43 -140 50 -19 8 -80 31 -135 51 -240 86 -543 247 -811 429 -70
47 -210 151 -234 174 -10 9 -39 34 -66 56 -53 44 -261 249 -309 305 -17 19
-53 64 -80 100 -28 36 -53 67 -56 70 -13 10 -166 246 -189 292 -14 27 -28 48
-32 48 -5 0 -8 5 -8 11 0 5 -20 53 -46 106 -66 139 -151 363 -168 445 -3 13
-14 57 -25 98 -11 41 -22 86 -25 100 -3 14 -7 36 -11 50 -5 25 -10 54 -19 120
-3 19 -8 53 -11 75 -24 156 -29 234 -29 495 -1 221 7 407 19 483 2 12 6 40 10
62 6 43 21 134 30 178 13 66 17 85 32 142 8 33 16 65 17 70 2 6 8 28 14 50 6
22 12 43 12 47 2 12 66 191 90 249 38 90 176 368 189 379 3 3 12 17 20 33 8
15 18 27 23 27 4 0 8 5 8 11 0 10 115 178 130 189 3 3 13 14 21 26 35 52 113
138 224 249 125 125 207 198 281 251 15 10 34 27 43 37 8 9 21 17 28 17 7 0
13 3 13 8 0 4 17 18 38 32 20 14 39 27 42 30 10 11 226 147 285 180 33 18 76
42 95 53 79 45 330 167 345 167 8 0 15 4 15 8 0 5 6 9 13 9 6 0 80 26 162 58
83 31 157 58 165 61 8 2 98 32 200 68 183 63 219 73 221 59z"/>
</g>
</svg>
