<?xml version="1.0" standalone="no"?>
<!DOCTYPE svg PUBLIC "-//W3C//DTD SVG 20010904//EN"
 "http://www.w3.org/TR/2001/REC-SVG-20010904/DTD/svg10.dtd">
<svg version="1.0" xmlns="http://www.w3.org/2000/svg"
 width="700.000000pt" height="700.000000pt" viewBox="0 0 700.000000 700.000000"
 preserveAspectRatio="xMidYMid meet">
<metadata>
Created by potrace 1.11, written by Peter Selinger 2001-2013
</metadata>
<g transform="translate(0.000000,700.000000) scale(0.100000,-0.100000)"
fill="#000000" stroke="none">
<path d="M1595 5425 c-164 -40 -282 -97 -421 -201 -270 -203 -538 -587 -735
-1050 -23 -54 -50 -118 -60 -141 -11 -23 -19 -46 -19 -51 0 -4 -11 -30 -24
-58 -13 -27 -41 -99 -62 -160 l-39 -112 -49 -5 c-138 -13 -178 -207 -57 -275
78 -44 170 -19 210 56 l13 24 526 -7 c290 -3 651 -8 802 -10 151 -2 523 -6
825 -10 581 -7 903 -12 921 -14 10 -1 39 -106 59 -208 10 -58 61 -230 102
-353 255 -755 658 -1180 1213 -1279 82 -15 141 -18 270 -16 91 2 177 6 191 8
24 5 138 29 149 32 3 1 19 5 35 10 117 32 290 122 405 210 317 243 580 707
734 1295 l28 105 58 1 c152 3 274 129 274 284 0 160 -124 284 -283 284 -90 0
-158 -31 -219 -99 l-47 -53 -570 -7 c-313 -4 -662 -8 -775 -10 -113 -2 -470
-6 -795 -10 -324 -4 -644 -8 -711 -9 l-121 -2 -48 141 c-26 77 -60 168 -76
203 -16 34 -29 65 -29 68 0 12 -125 293 -173 389 -220 441 -467 739 -755 912
-59 35 -172 86 -221 99 -177 48 -377 56 -526 19z m470 -499 c17 -4 66 -13 110
-22 87 -16 266 -74 330 -106 175 -88 323 -206 475 -378 112 -126 266 -411 340
-625 23 -66 47 -137 54 -157 10 -27 10 -38 2 -41 -6 -2 -130 -5 -276 -7 -146
-1 -366 -4 -490 -5 -124 -2 -436 -6 -695 -9 -400 -5 -856 -11 -1429 -20 -98
-1 -132 2 -140 12 -6 7 -26 28 -44 46 l-33 33 27 79 c207 619 546 996 1030
1143 55 16 113 32 129 35 17 3 44 8 60 11 17 3 57 8 90 11 33 4 62 8 65 11 6
6 359 -4 395 -11z m2815 -1531 c162 -2 531 -7 820 -10 765 -9 700 -7 712 -30
19 -35 72 -86 111 -106 20 -11 37 -21 37 -23 0 -2 -16 -43 -35 -91 -139 -345
-328 -611 -555 -784 -197 -150 -400 -234 -671 -275 -94 -14 -453 -16 -509 -2
-14 3 -41 9 -60 12 -19 3 -62 13 -95 21 -33 8 -67 16 -75 18 -8 2 -45 15 -82
29 -357 134 -627 394 -821 786 -76 153 -87 181 -143 343 l-44 129 558 -7 c306
-3 690 -8 852 -10z"/>
</g>
</svg>
