<svg width="1" height="1" viewBox="0 0 1 1" fill="none" xmlns="http://www.w3.org/2000/svg">
<g clip-path="url(#clip0)">
<path d="M0.257105 0.286421C0.375948 0.286421 0.454116 0.356859 0.491633 0.497736C0.528847 0.638758 0.607015 0.709275 0.72615 0.709275C0.845285 0.709275 0.923465 0.638758 0.960678 0.497736C0.924465 0.685353 0.846296 0.779163 0.72615 0.779162C0.606015 0.779162 0.527847 0.685353 0.491633 0.497736C0.433139 0.310118 0.354959 0.216309 0.257105 0.216309C0.159251 0.216309 0.0810714 0.310118 0.022577 0.497735C0.0600938 0.356859 0.138262 0.286421 0.257105 0.286421V0.286421Z" fill="white" stroke="white" stroke-width="0.02" stroke-miterlimit="3" stroke-linecap="square"/>
<path d="M0.022577 0.502136L0.022577 0.492451L0.960678 0.48053L0.960678 0.51371L0.022577 0.502136Z" fill="white"/>
<path d="M0.960674 0.458435C0.982382 0.458435 1 0.476053 1 0.497761C1 0.519469 0.982382 0.537087 0.960674 0.537087C0.938966 0.537087 0.921348 0.519469 0.921348 0.497761C0.921348 0.476053 0.938966 0.458435 0.960674 0.458435Z" fill="white"/>
<path d="M0.0225734 0.478088C0.0334273 0.478088 0.0422363 0.486897 0.0422363 0.497751C0.0422363 0.508605 0.0334273 0.517414 0.0225734 0.517414C0.0117195 0.517414 0.00291048 0.508605 0.00291048 0.497751C0.00291048 0.486897 0.0117195 0.478088 0.0225734 0.478088Z" fill="white"/>
</g>
<defs>
<clipPath id="clip0">
<rect x="1" width="1" height="1" transform="rotate(90 1 0)" fill="white"/>
</clipPath>
</defs>
</svg>
