<svg width="90" height="53" viewBox="0 0 90 53" fill="none" xmlns="http://www.w3.org/2000/svg">
<path d="M23.552 7.56299C34.1287 7.56299 41.0863 13.832 44.425 26.37C47.737 38.9213 54.6943 45.197 65.297 45.197C75.9003 45.197 82.858 38.9213 86.17 26.37C82.9473 43.068 75.9897 51.417 65.297 51.417C54.605 51.417 47.6477 43.068 44.425 26.37C39.219 9.67199 32.2614 1.323 23.552 1.323C14.8427 1.32299 7.88502 9.67199 2.67902 26.37C6.01768 13.832 12.9754 7.56299 23.552 7.56299Z" fill="white" stroke="white" stroke-width="1.8" stroke-miterlimit="3" stroke-linecap="square"/>
<path d="M2.67902 26.762L2.67902 25.9L86.17 24.839L86.17 27.792L2.67902 26.762Z" fill="white"/>
<path d="M86.17 22.87C88.102 22.87 89.67 24.438 89.67 26.37C89.67 28.302 88.102 29.87 86.17 29.87C84.238 29.87 82.67 28.302 82.67 26.37C82.67 24.438 84.238 22.87 86.17 22.87Z" fill="white"/>
<path d="M2.67902 24.62C3.64502 24.62 4.42902 25.404 4.42902 26.37C4.42902 27.336 3.64502 28.12 2.67902 28.12C1.71302 28.12 0.929016 27.336 0.929016 26.37C0.929016 25.404 1.71302 24.62 2.67902 24.62Z" fill="white"/>
</svg>
