<?xml version="1.0" standalone="no"?><!-- Generator: Gravit.io --><svg xmlns="http://www.w3.org/2000/svg" xmlns:xlink="http://www.w3.org/1999/xlink" style="isolation:isolate" viewBox="0 0 500 500" width="500" height="500"><g style="isolation:isolate" id="Layer 0"><mask id="_mask_UEQcGkazfBCruYek7TF7zGLPTPkrCdze"><path d=" M 0 250 C 0 112.021 112.021 0 250 0 C 387.979 0 500 112.021 500 250 C 500 387.979 387.979 500 250 500 C 112.021 500 0 387.979 0 250 Z " fill="white" stroke="none"/></mask><path d=" M 0 250 C 0 112.021 112.021 0 250 0 C 387.979 0 500 112.021 500 250 C 500 387.979 387.979 500 250 500 C 112.021 500 0 387.979 0 250 Z " fill="none" mask="url(#_mask_UEQcGkazfBCruYek7TF7zGLPTPkrCdze)" vector-effect="non-scaling-stroke" stroke-width="20" stroke="rgb(255,255,255)" stroke-linejoin="miter" stroke-linecap="square" stroke-miterlimit="3"/><path d=" M 378.395 182.592 C 374.782 178.978 368.91 178.978 365.297 182.592 L 250.126 297.988 L 134.73 182.592 C 131.117 178.978 125.245 178.978 121.632 182.592 C 118.019 186.205 118.019 192.076 121.632 195.689 L 243.352 317.409 C 245.159 319.216 247.417 320.119 249.901 320.119 C 252.159 320.119 254.643 319.216 256.45 317.409 L 378.169 195.689 C 382.009 192.076 382.009 186.205 378.395 182.592 L 378.395 182.592 Z " fill="rgb(255,255,255)"/></g></svg>