<?xml version="1.0" standalone="no"?><!-- Generator: Gravit.io --><svg xmlns="http://www.w3.org/2000/svg" xmlns:xlink="http://www.w3.org/1999/xlink" style="isolation:isolate" viewBox="0 0 60 60" width="60" height="60"><path d=" M 34.167 18.283 C 31.548 19.236 29.893 21.694 30.081 24.384 L 30.144 25.422 L 29.096 25.295 C 25.283 24.808 21.951 23.156 19.122 20.38 L 17.739 19.003 L 17.383 20.02 C 16.629 22.287 17.111 24.681 18.682 26.291 C 19.52 27.181 19.331 27.308 17.886 26.778 C 17.383 26.609 16.943 26.482 16.901 26.545 C 16.755 26.694 17.257 28.621 17.655 29.384 C 18.2 30.444 19.31 31.481 20.526 32.096 L 21.553 32.583 L 20.338 32.604 C 19.165 32.604 19.123 32.625 19.249 33.071 C 19.668 34.448 21.323 35.91 23.167 36.546 L 24.466 36.99 L 23.335 37.668 C 21.659 38.644 19.689 39.194 17.719 39.235 C 16.775 39.256 16 39.341 16 39.405 C 16 39.616 18.557 40.802 20.044 41.269 C 24.507 42.646 29.809 42.052 33.79 39.701 C 36.619 38.027 39.447 34.701 40.768 31.48 C 41.481 29.765 42.193 26.629 42.193 25.126 C 42.193 24.151 42.256 24.024 43.429 22.859 C 44.121 22.181 44.77 21.44 44.896 21.228 C 45.106 20.825 45.084 20.825 44.016 21.185 C 42.235 21.821 41.983 21.736 42.864 20.783 C 43.513 20.105 44.289 18.876 44.289 18.516 C 44.289 18.453 43.975 18.558 43.618 18.749 C 43.241 18.961 42.403 19.279 41.774 19.469 L 40.643 19.83 L 39.616 19.13 C 39.05 18.749 38.255 18.325 37.835 18.198 C 36.766 17.902 35.131 17.944 34.167 18.283 Z  M 30 60 C 13.432 60 0 46.568 0 30 C 0 13.431 13.432 0 30 0 C 46.568 0 60 13.431 60 30 C 60 46.568 46.568 60 30 60 Z " fill-rule="evenodd" fill="rgb(89,141,202)"/></svg>