<?xml version="1.0" standalone="no"?><!-- Generator: Gravit.io --><svg xmlns="http://www.w3.org/2000/svg" xmlns:xlink="http://www.w3.org/1999/xlink" style="isolation:isolate" viewBox="0 0 530 425.165" width="530" height="425.165"><g id="Group"><path d=" M 162.203 192.198 L 104.836 192.198 L 104.836 17.472 C 104.836 7.862 96.973 0 87.363 0 C 77.753 0 69.891 7.862 69.891 17.472 L 69.891 192.198 L 17.764 192.198 C 8.154 192.198 0 199.186 0 208.797 L 0 288.005 C 0 297.615 8.154 305.477 17.764 305.477 L 69.89 305.477 L 69.89 407.4 C 69.89 417.01 77.752 424.873 87.362 424.873 C 96.972 424.873 104.835 417.01 104.835 407.4 L 104.835 305.478 L 162.202 305.478 C 171.812 305.478 180.548 297.616 180.548 288.006 L 180.548 208.798 C 180.549 199.186 171.813 192.198 162.203 192.198 Z  M 142.692 270.824 L 34.946 270.824 L 34.946 224.231 L 142.692 224.231 L 142.692 270.824 Z  M 355.274 70.181 C 355.274 60.571 347.994 52.126 338.384 52.126 L 279.56 52.126 L 279.56 17.472 C 279.56 7.862 271.698 0 262.088 0 C 252.478 0 244.616 7.862 244.616 17.472 L 244.616 52.418 L 193.946 52.418 C 184.336 52.418 177.638 60.572 177.638 70.473 L 177.638 149.682 C 177.638 159.292 184.336 165.99 193.946 165.99 L 244.616 165.99 L 244.616 407.693 C 244.616 417.303 252.478 425.165 262.088 425.165 C 271.698 425.165 279.56 417.303 279.56 407.693 L 279.56 165.989 L 338.384 165.989 C 347.994 165.989 355.274 159.291 355.274 149.681 L 355.274 70.181 Z  M 317.418 133.956 L 209.67 133.956 L 209.67 87.362 L 317.418 87.362 L 317.418 133.956 Z  M 513.984 262.088 L 454.287 262.088 L 454.287 17.472 C 454.287 7.862 446.424 0 436.814 0 C 427.204 0 419.342 7.862 419.342 17.472 L 419.342 262.088 L 369.546 262.088 C 359.936 262.088 352.364 270.824 352.364 280.434 L 352.364 359.643 C 352.364 369.253 359.936 378.28 369.546 378.28 L 419.342 378.28 L 419.342 407.401 C 419.342 417.011 427.204 424.874 436.814 424.874 C 446.424 424.874 454.287 417.011 454.287 407.401 L 454.287 378.28 L 513.984 378.28 C 523.594 378.28 530 369.253 530 359.643 L 530 280.434 C 530 270.824 523.593 262.088 513.984 262.088 Z  M 495.054 340.714 L 387.308 340.714 L 387.308 294.121 L 495.055 294.121 L 495.055 340.714 L 495.054 340.714 Z " fill="rgb(0,0,0)"/></g></svg>