<?xml version="1.0" encoding="UTF-8" standalone="no"?><!DOCTYPE svg PUBLIC "-//W3C//DTD SVG 1.1//EN" "http://www.w3.org/Graphics/SVG/1.1/DTD/svg11.dtd"><svg width="100%" height="100%" viewBox="0 0 200 200" version="1.1" xmlns="http://www.w3.org/2000/svg" xmlns:xlink="http://www.w3.org/1999/xlink" xml:space="preserve" xmlns:serif="http://www.serif.com/" style="fill-rule:evenodd;clip-rule:evenodd;stroke-linejoin:round;"><g id="INTRO-FIP" serif:id="INTRO FIP"><g id="Layer-1" serif:id="Layer 1"><rect x="0" y="0" width="200" height="200" style="fill:#ffdc00;"/><path d="M150.222,67.682c-0.691,-5.683 -4.394,-10.609 -9.66,-12.852l0,0l0,0l5.813,-13.628c10.118,4.311 17.23,13.775 18.555,24.693l-14.708,1.787Zm-12.184,32.697l-1.787,-14.708c5.683,-0.691 10.609,-4.394 12.852,-9.66l0,0l0,0l0,0l13.628,5.813c-4.311,10.118 -13.775,17.229 -24.693,18.555m-10.1,-15.822l-5.813,13.628c-10.118,-4.311 -17.23,-13.775 -18.556,-24.693l14.709,-1.787c0.691,5.683 4.393,10.608 9.66,12.852l0,0l0,0Zm2.523,-45.546l1.787,14.708c-5.683,0.691 -10.608,4.393 -12.852,9.66l0,0l0,0l-13.628,-5.814c4.311,-10.117 13.775,-17.229 24.693,-18.554m8.77,-4.494c-19.382,-2.751 -37.345,10.747 -40.096,30.13c-2.751,19.382 10.747,37.345 30.13,40.096c19.382,2.751 37.345,-10.747 40.096,-30.13c2.751,-19.382 -10.747,-37.345 -30.13,-40.096" style="fill-rule:nonzero;"/><path d="M150.222,67.682c-0.691,-5.683 -4.394,-10.609 -9.66,-12.852l0,0l0,0l5.813,-13.628c10.118,4.311 17.23,13.775 18.555,24.693l-14.708,1.787Zm-12.184,32.697l-1.787,-14.708c5.683,-0.691 10.609,-4.394 12.852,-9.66l0,0l0,0l0,0l13.628,5.813c-4.311,10.118 -13.775,17.229 -24.693,18.555Zm-10.1,-15.822l-5.813,13.628c-10.118,-4.311 -17.23,-13.775 -18.556,-24.693l14.709,-1.787c0.691,5.683 4.393,10.608 9.66,12.852l0,0l0,0Zm2.523,-45.546l1.787,14.708c-5.683,0.691 -10.608,4.393 -12.852,9.66l0,0l0,0l-13.628,-5.814c4.311,-10.117 13.775,-17.229 24.693,-18.554Zm8.77,-4.494c-19.382,-2.751 -37.345,10.747 -40.096,30.13c-2.751,19.382 10.747,37.345 30.13,40.096c19.382,2.751 37.345,-10.747 40.096,-30.13c2.751,-19.382 -10.747,-37.345 -30.13,-40.096Z" style="fill:none;fill-rule:nonzero;stroke:#000;stroke-width:3.92px;"/><path d="M63.19,98.063l-3.73,-10.491c4.053,-1.442 7.055,-4.967 7.833,-9.197l0,0l0,0l10.949,2.019c-1.496,8.128 -7.265,14.9 -15.052,17.669m-10.018,-9.921l-2.019,10.95c-8.129,-1.496 -14.9,-7.265 -17.669,-15.052l10.49,-3.731c1.442,4.053 4.967,7.055 9.198,7.833l0,0l0,0Zm-5.65,-33.82l3.731,10.49c-4.053,1.442 -7.055,4.967 -7.834,9.198l0.001,0l-0.001,0l-10.949,-2.019c1.496,-8.128 7.265,-14.9 15.052,-17.669m12.042,-1.009c8.128,1.496 14.9,7.265 17.668,15.052l-10.49,3.731c-1.442,-4.053 -4.967,-7.056 -9.198,-7.834l0,0l0,0l0,0l2.02,-10.949Zm22.312,20.767c-1.173,-14.664 -14.026,-25.614 -28.69,-24.441c-14.664,1.172 -25.614,14.025 -24.441,28.689c1.172,14.665 14.025,25.614 28.689,24.442c14.665,-1.173 25.614,-14.026 24.442,-28.69" style="fill-rule:nonzero;"/><path d="M63.19,98.063l-3.73,-10.491c4.053,-1.442 7.055,-4.967 7.833,-9.197l0,0l0,0l10.949,2.019c-1.496,8.128 -7.265,14.9 -15.052,17.669Zm-10.018,-9.921l-2.019,10.95c-8.129,-1.496 -14.9,-7.265 -17.669,-15.052l10.49,-3.731c1.442,4.053 4.967,7.055 9.198,7.833l0,0l0,0Zm-5.65,-33.82l3.731,10.49c-4.053,1.442 -7.055,4.967 -7.834,9.198l0.001,0l-0.001,0l-10.949,-2.019c1.496,-8.128 7.265,-14.9 15.052,-17.669Zm12.042,-1.009c8.128,1.496 14.9,7.265 17.668,15.052l-10.49,3.731c-1.442,-4.053 -4.967,-7.056 -9.198,-7.834l0,0l0,0l0,0l2.02,-10.949Zm22.312,20.767c-1.173,-14.664 -14.026,-25.614 -28.69,-24.441c-14.664,1.172 -25.614,14.025 -24.441,28.689c1.172,14.665 14.025,25.614 28.689,24.442c14.665,-1.173 25.614,-14.026 24.442,-28.69Z" style="fill:none;fill-rule:nonzero;stroke:#000;stroke-width:3.92px;"/><path d="M49.089,87.35l96.328,0l0,78.266l-96.328,0l0,-78.266Zm109.33,59.616l-12.3,0l0,-32.616l12.3,0l0,32.616Zm-110.285,-21.147l-5.703,0l0,-13.886l5.703,0l0,13.886Zm-4.686,-0.178l4.935,0m-5.024,-14.436l-5.103,0l0,15.332l5.103,0l0,-15.332Zm5.024,0.896l-4.935,0m114.971,34.865l-12.3,0m12.521,-34.775l12.716,0l0,36.933l-12.716,0l0,-36.933Zm-12.521,2.159l12.3,0" style="fill-rule:nonzero;stroke:#000;stroke-width:3.92px;stroke-linecap:round;"/><g><g><text x="68.55px" y="124.352px" style="font-family:'AtlanticCruise', 'Atlantic Cruise';font-size:28.653px;fill:#ffdc00;">F</text><text x="78.378px" y="124.352px" style="font-family:'AtlanticCruise', 'Atlantic Cruise';font-size:28.653px;fill:#ffdc00;">ilm<tspan x="106.201px 111.473px " y="124.352px 124.352px "> i</tspan>n</text></g><text x="74.138px" y="147.274px" style="font-family:'AtlanticCruise', 'Atlantic Cruise';font-size:28.653px;fill:#ffdc00;">piazza</text></g></g></g><path id="Gradient" d="M0,0l0,200l200,0l0,-200l-200,0Z" style="fill:url(#_Linear1);"/><defs><linearGradient id="_Linear1" x1="0" y1="0" x2="1" y2="0" gradientUnits="userSpaceOnUse" gradientTransform="matrix(1.22465e-14,-200,200,1.22465e-14,100,200)"><stop offset="0" style="stop-color:#000;stop-opacity:0.25"/><stop offset="1" style="stop-color:#000;stop-opacity:0"/></linearGradient></defs></svg>