<svg xmlns="http://www.w3.org/2000/svg" width="100%" height="100%" viewBox="0 0 200 200" fill-rule="evenodd" stroke-linejoin="round"><style><![CDATA[.F{fill:#ffdc00}.G{fill-rule:nonzero}.H{font-family:AtlanticCruise,Atlantic Cruise}.I{font-size:28.653px}.J{stroke-width:3.92}]]></style><path d="M0 0h200v200H0z" class="F"/><path d="M150.222 67.682a16.13 16.13 0 0 0-9.66-12.852l5.813-13.628a30.98 30.98 0 0 1 18.555 24.693l-14.708 1.787zm-12.184 32.697l-1.788-14.71a16.13 16.13 0 0 0 12.852-9.66l13.628 5.813a30.98 30.98 0 0 1-24.693 18.555m-10.1-15.822l-5.813 13.628a30.98 30.98 0 0 1-18.556-24.693l14.7-1.787c.7 5.683 4.393 10.608 9.66 12.852zM130.46 39l1.787 14.708c-5.683.7-10.608 4.393-12.852 9.66l-13.628-5.814A30.98 30.98 0 0 1 130.46 39.01m8.77-4.494c-19.382-2.75-37.345 10.747-40.096 30.13s10.747 37.345 30.13 40.096 37.345-10.747 40.096-30.13-10.747-37.345-30.13-40.096" class="G"/><path d="M150.222 67.682a16.13 16.13 0 0 0-9.66-12.852l5.813-13.628a30.98 30.98 0 0 1 18.555 24.693l-14.708 1.787zm-12.184 32.697l-1.788-14.71a16.13 16.13 0 0 0 12.852-9.66l13.628 5.813a30.98 30.98 0 0 1-24.693 18.555zm-10.1-15.822l-5.813 13.628a30.98 30.98 0 0 1-18.556-24.693l14.7-1.787c.7 5.683 4.393 10.608 9.66 12.852zm2.523-45.546l1.787 14.708c-5.683.7-10.608 4.393-12.852 9.66l-13.628-5.814a30.98 30.98 0 0 1 24.693-18.554zm8.77-4.494c-19.382-2.75-37.345 10.747-40.096 30.13s10.747 37.345 30.13 40.096 37.345-10.747 40.096-30.13-10.747-37.345-30.13-40.096z" fill="none" stroke="#000" class="J"/><path d="M63.2 98.063l-3.73-10.5a12.12 12.12 0 0 0 7.833-9.197l10.95 2.02c-1.496 8.128-7.265 14.9-15.052 17.67m-10.018-9.92l-2.02 10.95A23.28 23.28 0 0 1 33.484 84.04l10.5-3.73a12.12 12.12 0 0 0 9.198 7.833zm-5.65-33.82l3.73 10.5a12.12 12.12 0 0 0-7.834 9.198l-10.95-2.02c1.496-8.128 7.265-14.9 15.052-17.67m12.042-1a23.28 23.28 0 0 1 17.668 15.052l-10.5 3.73a12.12 12.12 0 0 0-9.198-7.834l2.02-10.95zM81.876 74.08c-1.173-14.664-14.026-25.614-28.7-24.44s-25.614 14.025-24.44 28.7 14.025 25.614 28.7 24.442 25.614-14.026 24.442-28.7" class="G"/><g stroke="#000" class="J"><path d="M63.2 98.063l-3.73-10.5a12.12 12.12 0 0 0 7.833-9.197l10.95 2.02c-1.496 8.128-7.265 14.9-15.052 17.67zm-10.018-9.92l-2.02 10.95A23.28 23.28 0 0 1 33.484 84.04l10.5-3.73a12.12 12.12 0 0 0 9.198 7.833zm-5.65-33.82l3.73 10.5a12.12 12.12 0 0 0-7.834 9.198L32.478 72c1.496-8.128 7.265-14.9 15.052-17.67zm12.042-1a23.28 23.28 0 0 1 17.668 15.052l-10.5 3.73a12.12 12.12 0 0 0-9.198-7.834l2.02-10.95zM81.876 74.08c-1.173-14.664-14.026-25.614-28.7-24.44s-25.614 14.025-24.44 28.7 14.025 25.614 28.7 24.442 25.614-14.026 24.442-28.7z" fill="none"/><path d="M49.1 87.35h96.328v78.266H49.1V87.35zm109.33 59.616h-12.3V114.35h12.3v32.616zM48.134 125.82H42.43v-13.886h5.703v13.886zm-4.686-.178h4.935m-5.024-14.436h-5.103v15.332h5.103v-15.332zm5.024.896h-4.935m114.97 34.865h-12.3m12.52-34.775h12.716v36.933H158.64V112.2zm-12.52 2.16h12.3" stroke-linecap="round" class="G"/></g><text x="68.55" y="124.352" class="F H I">F</text><text x="78.378" y="124.352" class="F H I">ilm<tspan x="106.2 111.473" y="124.352 124.352"> i</tspan>n</text><text x="74.138" y="147.274" class="F H I">piazza</text><path d="M0 0v200h200V0H0z" fill="url(#A)"/><defs><linearGradient id="A" x1="100" y1="200" x2="100" y2="0" gradientUnits="userSpaceOnUse"><stop offset="0" stop-opacity=".25"/><stop offset="1" stop-opacity="0"/></linearGradient></defs></svg>