<?xml version="1.0" standalone="no"?><!-- Generator: Gravit.io --><svg xmlns="http://www.w3.org/2000/svg" xmlns:xlink="http://www.w3.org/1999/xlink" style="isolation:isolate" viewBox="0 0 60 60" width="60" height="60"><path d=" M 25.765 46.32 L 32.509 46.32 L 32.509 29.998 L 37.008 29.998 L 37.604 24.374 L 32.509 24.374 L 32.516 21.558 C 32.516 20.092 32.656 19.305 34.76 19.305 L 37.572 19.305 L 37.572 13.68 L 33.072 13.68 C 27.667 13.68 25.765 16.409 25.765 20.997 L 25.765 24.374 L 22.396 24.374 L 22.396 29.999 L 25.765 29.999 L 25.765 46.32 Z  M 30 60 C 13.432 60 0 46.568 0 30 C 0 13.431 13.432 0 30 0 C 46.568 0 60 13.431 60 30 C 60 46.568 46.568 60 30 60 Z " fill-rule="evenodd" fill="rgb(58,88,155)"/></svg>