<?xml version="1.0" standalone="no"?><!-- Generator: Gravit.io --><svg xmlns="http://www.w3.org/2000/svg" xmlns:xlink="http://www.w3.org/1999/xlink" style="isolation:isolate" viewBox="58.748 92.172 52.599 88.741" width="52.599" height="88.741"><g id="Logo"><path d=" M 66.24 158.29 Q 66.24 142.425 85.047 137.417 Q 103.874 132.449 103.874 116.545 Q 103.874 100.64 85.047 95.672 Q 110.094 100.506 110.094 116.545 Q 110.094 132.583 85.047 137.417 Q 60 145.226 60 158.29 Q 60 171.354 85.047 179.163 Q 66.24 174.155 66.24 158.29 Z " fill="rgb(0,0,0)" vector-effect="non-scaling-stroke" stroke-width="0.835" stroke="rgb(0,0,0)" stroke-linejoin="miter" stroke-linecap="square" stroke-miterlimit="3"/><path d=" M 85.439 179.163 L 84.577 179.163 L 83.516 95.672 L 86.469 95.672 L 85.439 179.163 Z " fill="rgb(0,0,0)"/><path d=" M 81.547 95.672 C 81.547 93.74 83.115 92.172 85.047 92.172 C 86.979 92.172 88.547 93.74 88.547 95.672 C 88.547 97.604 86.979 99.172 85.047 99.172 C 83.115 99.172 81.547 97.604 81.547 95.672 Z " fill="rgb(0,0,0)"/><path d=" M 83.297 179.163 C 83.297 178.197 84.081 177.413 85.047 177.413 C 86.013 177.413 86.797 178.197 86.797 179.163 C 86.797 180.129 86.013 180.913 85.047 180.913 C 84.081 180.913 83.297 180.129 83.297 179.163 Z " fill="rgb(0,0,0)"/></g></svg>