<?xml version="1.0" standalone="no"?>
<!-- Generator: Gravit.io -->
<svg xmlns="http://www.w3.org/2000/svg" xmlns:xlink="http://www.w3.org/1999/xlink" style="isolation:isolate" viewBox="0 0 96.745 57.585">
    <g id="g4593">
        <path d=" M 96.304 12.561 C 91.986 7.379 84.222 7.584 78.428 9.833 L 42.034 23.596 C 31.422 17.83 20.957 19.521 20.948 16.698 C 20.942 14.492 22.969 14.969 22.649 9.226 C 22.342 3.711 16.571 -0.353 11.13 0.024 C 5.685 0.008 0.053 4.197 0.022 9.951 C -0.367 15.748 4.523 21.116 10.29 21.479 C 17.046 22.464 28.995 18.338 34.635 28.376 C 30.477 36.1 23.061 36.143 16.354 35.777 C 10.786 35.473 4.104 37.088 1.465 42.568 C -1.086 47.82 1.452 55.277 7.349 56.865 C 13.301 59.029 21.458 56.248 22.852 49.407 C 23.926 44.134 20.187 41.669 21.614 39.752 C 22.691 38.305 29.557 39.121 41.769 33.593 L 81.263 47.383 C 86.252 48.76 92.343 48.696 96.745 43.781 L 55.795 28.44 L 96.304 12.561 L 96.304 12.561 Z  M 15.058 4.369 C 20.81 7.559 20.367 16.259 14.404 17.961 C 9.012 19.856 2.1 14.63 3.804 8.776 C 4.797 3.973 11.119 2.185 15.058 4.369 Z  M 15.412 39.937 C 21.412 42.132 20.424 52.275 14.334 53.656 C 10.296 55.071 4.512 53.069 4.089 48.309 C 3.284 42.521 10.072 37.27 15.412 39.937 Z " fill="rgb(0,0,0)"/>
    </g>
</svg>
