<?xml version="1.0" standalone="no"?><!-- Generator: Gravit.io --><svg xmlns="http://www.w3.org/2000/svg" xmlns:xlink="http://www.w3.org/1999/xlink" style="isolation:isolate" viewBox="0 0 623 623" width="623" height="623"><defs><clipPath id="_clipPath_JGsbOtTI5lIUSlf6P3dlC2BzsCnhuvYV"><rect width="623" height="623"/></clipPath></defs><g clip-path="url(#_clipPath_JGsbOtTI5lIUSlf6P3dlC2BzsCnhuvYV)"><circle vector-effect="non-scaling-stroke" cx="311.5" cy="311.5" r="300" fill="none" stroke-width="23" stroke="rgb(0,0,0)" stroke-linejoin="miter" stroke-linecap="square" stroke-miterlimit="3"/><g><path d=" M 253.313 299.962 L 220.841 299.962 L 220.841 201.06 C 220.841 195.62 216.39 191.17 210.951 191.17 C 205.511 191.17 201.061 195.62 201.061 201.06 L 201.061 299.962 L 171.555 299.962 C 166.115 299.962 161.5 303.917 161.5 309.357 L 161.5 354.192 C 161.5 359.632 166.115 364.082 171.555 364.082 L 201.06 364.082 L 201.06 421.774 C 201.06 427.214 205.511 431.664 210.95 431.664 C 216.39 431.664 220.841 427.214 220.841 421.774 L 220.841 364.082 L 253.312 364.082 C 258.752 364.082 263.697 359.632 263.697 354.193 L 263.697 309.358 C 263.698 303.917 258.753 299.962 253.313 299.962 Z  M 242.269 344.467 L 181.281 344.467 L 181.281 318.093 L 242.269 318.093 L 242.269 344.467 Z  M 362.598 230.895 C 362.598 225.456 358.478 220.676 353.038 220.676 L 319.742 220.676 L 319.742 201.06 C 319.742 195.62 315.291 191.17 309.852 191.17 C 304.412 191.17 299.962 195.62 299.962 201.06 L 299.962 220.841 L 271.281 220.841 C 265.841 220.841 262.05 225.456 262.05 231.061 L 262.05 275.896 C 262.05 281.336 265.841 285.127 271.281 285.127 L 299.962 285.127 L 299.962 421.94 C 299.962 427.38 304.412 431.83 309.852 431.83 C 315.291 431.83 319.742 427.38 319.742 421.94 L 319.742 285.126 L 353.038 285.126 C 358.478 285.126 362.598 281.335 362.598 275.895 L 362.598 230.895 Z  M 341.171 266.994 L 280.181 266.994 L 280.181 240.62 L 341.171 240.62 L 341.171 266.994 Z  M 452.434 339.522 L 418.644 339.522 L 418.644 201.06 C 418.644 195.62 414.193 191.17 408.753 191.17 C 403.314 191.17 398.863 195.62 398.863 201.06 L 398.863 339.522 L 370.677 339.522 C 365.237 339.522 360.951 344.467 360.951 349.907 L 360.951 394.742 C 360.951 400.181 365.237 405.291 370.677 405.291 L 398.863 405.291 L 398.863 421.775 C 398.863 427.214 403.314 431.665 408.753 431.665 C 414.193 431.665 418.644 427.214 418.644 421.775 L 418.644 405.291 L 452.434 405.291 C 457.874 405.291 461.5 400.181 461.5 394.742 L 461.5 349.907 C 461.5 344.467 457.873 339.522 452.434 339.522 Z  M 441.719 384.027 L 380.731 384.027 L 380.731 357.654 L 441.72 357.654 L 441.72 384.027 L 441.719 384.027 Z " fill="rgb(0,0,0)"/></g></g></svg>