<?xml version="1.0" standalone="no"?><!-- Generator: Gravit.io --><svg xmlns="http://www.w3.org/2000/svg" xmlns:xlink="http://www.w3.org/1999/xlink" style="isolation:isolate" viewBox="0 0 623 623" width="623" height="623"><defs><clipPath id="_clipPath_j2RNyiJdtFdMyzmvu6QCucPWPzxoyD4x"><rect width="623" height="623"/></clipPath></defs><g clip-path="url(#_clipPath_j2RNyiJdtFdMyzmvu6QCucPWPzxoyD4x)"><g><g><path d=" M 311.499 367.05 C 326.779 367.05 339.854 361.61 350.733 350.735 C 361.611 339.861 367.05 326.778 367.05 311.5 L 367.05 222.614 C 367.05 207.336 361.615 194.259 350.733 183.379 C 339.854 172.501 326.779 167.058 311.499 167.058 C 296.221 167.058 283.144 172.501 272.264 183.379 C 261.384 194.257 255.945 207.336 255.945 222.614 L 255.945 311.5 C 255.945 326.777 261.386 339.861 272.264 350.735 C 283.142 361.61 296.221 367.05 311.499 367.05 Z " fill="rgb(0,0,0)"/><path d=" M 408.195 281.466 C 406.002 279.267 403.393 278.167 400.383 278.167 C 397.377 278.167 394.773 279.267 392.571 281.466 C 390.375 283.665 389.275 286.269 389.275 289.277 L 389.275 311.5 C 389.275 332.912 381.663 351.227 366.443 366.446 C 351.228 381.666 332.912 389.276 311.498 389.276 C 290.086 389.276 271.771 381.666 256.55 366.446 C 241.332 351.231 233.723 332.913 233.723 311.5 L 233.723 289.277 C 233.723 286.269 232.623 283.665 230.425 281.466 C 228.225 279.267 225.624 278.167 222.613 278.167 C 219.602 278.167 216.998 279.267 214.799 281.466 C 212.599 283.665 211.5 286.269 211.5 289.277 L 211.5 311.5 C 211.5 337.078 220.037 359.33 237.107 378.251 C 254.177 397.173 275.27 408.022 300.387 410.798 L 300.387 433.717 L 255.944 433.717 C 252.935 433.717 250.331 434.818 248.132 437.018 C 245.933 439.215 244.833 441.82 244.833 444.829 C 244.833 447.834 245.933 450.444 248.132 452.641 C 250.331 454.839 252.935 455.942 255.944 455.942 L 367.05 455.942 C 370.058 455.942 372.666 454.839 374.862 452.641 C 377.063 450.444 378.164 447.834 378.164 444.829 C 378.164 441.821 377.063 439.216 374.862 437.018 C 372.666 434.818 370.059 433.717 367.05 433.717 L 322.612 433.717 L 322.612 410.798 C 347.725 408.022 368.816 397.173 385.888 378.251 C 402.96 359.33 411.5 337.078 411.5 311.5 L 411.5 289.277 C 411.5 286.269 410.398 283.667 408.195 281.466 Z " fill="rgb(0,0,0)"/></g></g><circle vector-effect="non-scaling-stroke" cx="311.5" cy="311.5" r="300" fill="none" stroke-width="23" stroke="rgb(0,0,0)" stroke-linejoin="miter" stroke-linecap="square" stroke-miterlimit="3"/></g></svg>