<svg width="1440" height="737" viewBox="0 0 1440 737" fill="none" xmlns="http://www.w3.org/2000/svg">
<path d="M651 183.5C786.5 50.5 1065.39 37.1957 1288.5 119.5C1394.48 158.595 1416.87 73.6722 1440 0.186493V601.515C1380.85 588.72 1276.96 574.502 1155.5 594C968.336 624.045 966.515 708.34 778.5 732.5C604.165 754.902 437 664.5 286 664.5C179.554 664.5 75.5592 671.643 0 736.564V410.688C20.1408 411.881 46.5992 397.536 79.5 357.5C162.5 256.5 237.5 232.5 329 272.5C420.5 312.5 515.5 316.5 651 183.5Z" fill="url(#paint0_linear)"/>
<defs>
<linearGradient id="paint0_linear" x1="-48.4993" y1="627.856" x2="1434.5" y2="628.053" gradientUnits="userSpaceOnUse">
<stop stop-color="#46FFC8"/>
<stop offset="1" stop-color="#17BAFF"/>
</linearGradient>
</defs>
</svg>
